SplineFontDB: 3.0
FontName: Jost-BlackItalic
FullName: Jost* 900 Black Italic
FamilyName: Jost* Black
Weight: Black
Copyright: This typeface is licensed under the SIL open font license.
UComments: "2018-6-8: Created with FontForge (http://fontforge.org)"
Version: 003.400
ItalicAngle: -10
UnderlinePosition: -100
UnderlineWidth: 50
Ascent: 800
Descent: 200
InvalidEm: 0
LayerCount: 2
Layer: 0 0 "Back" 1
Layer: 1 0 "Fore" 0
XUID: [1021 69 1495626776 760146]
FSType: 0
OS2Version: 0
OS2_WeightWidthSlopeOnly: 0
OS2_UseTypoMetrics: 0
CreationTime: 1528480336
ModificationTime: 1577674374
PfmFamily: 17
TTFWeight: 900
TTFWidth: 5
LineGap: 100
VLineGap: 0
OS2TypoAscent: 825
OS2TypoAOffset: 0
OS2TypoDescent: -225
OS2TypoDOffset: 0
OS2TypoLinegap: 100
OS2WinAscent: 900
OS2WinAOffset: 0
OS2WinDescent: 300
OS2WinDOffset: 0
HheadAscent: 1030
HheadAOffset: 0
HheadDescent: -350
HheadDOffset: 0
OS2CapHeight: 700
OS2XHeight: 460
OS2Vendor: 'PfEd'
Lookup: 1 0 0 "alt a" { "alt a"  } ['ss01' ('DFLT' <'dflt' > 'latn' <'dflt' > ) ]
Lookup: 1 0 0 "Tabular Numbers lookup" { "Tabular Numbers lookup"  } ['tnum' ('DFLT' <'dflt' > 'grek' <'dflt' > 'latn' <'dflt' > ) ]
Lookup: 258 0 0 "Lets get our kern on" { "kernin like nobodys business" [150,0,4] } ['kern' ('DFLT' <'dflt' > 'latn' <'dflt' > ) ]
MarkAttachClasses: 1
DEI: 91125
KernClass2: 16 14 "kernin like nobodys business"
 43 slash seven V W Wcircumflex uni040E uni0423
 175 quotedbl quotesingle asterisk grave dieresis ordfeminine macron degree acute ordmasculine circumflex breve dotaccent ring tilde quoteleft quoteright quotedblleft quotedblright
 25 nine question F P uni0420
 131 A L backslash Agrave Aacute Acircumflex Atilde Adieresis Aring Amacron Abreve Aogonek Lacute uni013B Lslash uni0410 uni0414 uni041C
 58 three eight B C germandbls uni0411 uni0412 uni0417 uni0421
 29 K X Z uni0416 uni041A uni0425

StartChar: H
Encoding: 72 72 0
Width: 805
VWidth: 0
Flags: HMW
LayerCount: 2
Fore
SplineSet
130 265 m 1
 164 460 l 1
 710 460 l 1
 676 265 l 1
 130 265 l 1
615 700 m 1
 832 700 l 1
 712 0 l 1
 495 0 l 1
 615 700 l 1
159 700 m 1
 376 700 l 1
 256 0 l 1
 39 0 l 1
 159 700 l 1
EndSplineSet
EndChar

StartChar: O
Encoding: 79 79 1
Width: 815
VWidth: 0
Flags: HMW
LayerCount: 2
Fore
SplineSet
289 350 m 0
 275 262 307 180 405 178 c 0
 503 176 575 256 592 350 c 0
 606 438 576 521 476 522 c 0
 378 523 305 444 289 350 c 0
60 350 m 0
 92 564 279 720 497 720 c 0
 714 720 850 558 820 350 c 0
 788 134 608 -30 382 -30 c 0
 160 -30 30 142 60 350 c 0
EndSplineSet
EndChar

StartChar: I
Encoding: 73 73 2
Width: 354
VWidth: 0
Flags: HMW
LayerCount: 2
Fore
SplineSet
159 700 m 1
 380 700 l 1
 260 0 l 1
 39 0 l 1
 159 700 l 1
EndSplineSet
EndChar

StartChar: C
Encoding: 67 67 3
Width: 689
VWidth: 0
Flags: HMW
LayerCount: 2
Fore
SplineSet
298 350 m 0
 282 254 341 190 437 188 c 0
 527 187 592 230 648 272 c 1
 615 47 l 1
 553 9 488 -20 398 -20 c 0
 170 -20 28 137 60 350 c 0
 93 568 278 720 512 720 c 0
 600 720 658 692 714 652 c 1
 680 427 l 1
 639 475 588 512 504 512 c 0
 405 512 316 450 298 350 c 0
EndSplineSet
EndChar

StartChar: E
Encoding: 69 69 4
Width: 616
VWidth: 0
Flags: HMW
LayerCount: 2
Fore
SplineSet
186 0 m 1
 217 175 l 1
 563 175 l 1
 532 0 l 1
 186 0 l 1
276 525 m 1
 306 700 l 1
 652 700 l 1
 622 525 l 1
 276 525 l 1
233 275 m 1
 263 445 l 1
 590 445 l 1
 560 275 l 1
 233 275 l 1
159 700 m 1
 366 700 l 1
 246 0 l 1
 39 0 l 1
 159 700 l 1
EndSplineSet
EndChar

StartChar: F
Encoding: 70 70 6
Width: 567
VWidth: 0
Flags: HMW
LayerCount: 2
Fore
SplineSet
274 515 m 1
 306 700 l 1
 614 700 l 1
 581 515 l 1
 274 515 l 1
228 245 m 1
 258 415 l 1
 556 415 l 1
 526 245 l 1
 228 245 l 1
159 700 m 1
 366 700 l 1
 246 0 l 1
 39 0 l 1
 159 700 l 1
EndSplineSet
EndChar

StartChar: G
Encoding: 71 71 7
Width: 813
VWidth: 0
Flags: HMW
LayerCount: 2
Fore
SplineSet
428 240 m 1
 457 400 l 1
 818 400 l 1
 800 169 655 -30 396 -30 c 0
 171 -30 29 136 60 350 c 0
 94 571 287 720 516 720 c 0
 658 720 754 645 816 542 c 1
 604 452 l 1
 585 497 557 534 497 534 c 0
 394 534 304 458 286 350 c 0
 270 246 311 156 420 156 c 0
 497 156 543 186 575 240 c 1
 428 240 l 1
EndSplineSet
EndChar

StartChar: T
Encoding: 84 84 8
Width: 601
VWidth: 0
Flags: HMW
LayerCount: 2
Fore
SplineSet
57 505 m 1
 91 700 l 1
 696 700 l 1
 662 505 l 1
 468 505 l 1
 382 0 l 1
 165 0 l 1
 252 505 l 1
 57 505 l 1
EndSplineSet
EndChar

StartChar: L
Encoding: 76 76 9
Width: 558
VWidth: 0
Flags: HMW
LayerCount: 2
Fore
SplineSet
159 700 m 1
 376 700 l 1
 288 185 l 1
 564 185 l 1
 532 0 l 1
 39 0 l 1
 159 700 l 1
EndSplineSet
EndChar

StartChar: D
Encoding: 68 68 10
Width: 742
VWidth: 0
Flags: HMW
LayerCount: 2
Fore
SplineSet
159 700 m 1
 384 700 l 1
 264 0 l 1
 39 0 l 1
 159 700 l 1
314 0 m 2
 186 0 l 1
 220 190 l 1
 324 190 l 2
 415 190 503 230 522 350 c 0
 540 466 478 510 390 510 c 2
 273 510 l 1
 306 700 l 1
 421 700 l 2
 645 700 780 560 748 350 c 0
 716 135 545 0 314 0 c 2
EndSplineSet
EndChar

StartChar: Q
Encoding: 81 81 11
Width: 881
VWidth: 0
Flags: HMW
LayerCount: 2
Fore
SplineSet
289 350 m 0
 273 247 324 159 426 158 c 0
 524 157 598 226 616 320 c 0
 632 413 597 520 480 522 c 0
 382 523 306 445 289 350 c 0
60 350 m 0
 92 565 284 720 502 720 c 0
 719 720 850 558 820 350 c 0
 788 135 612 -30 386 -30 c 0
 164 -30 30 141 60 350 c 0
360 300 m 1
 562 300 l 1
 857 -20 l 1
 646 -20 l 1
 360 300 l 1
EndSplineSet
EndChar

StartChar: A
Encoding: 65 65 12
Width: 756
VWidth: 0
Flags: HMW
LayerCount: 2
Fore
SplineSet
187 90 m 1
 215 248 l 1
 578 248 l 1
 550 90 l 1
 187 90 l 1
416 382 m 1
 302 188 l 1
 311 138 l 1
 214 0 l 1
 -36 0 l 1
 478 752 l 1
 734 0 l 1
 494 0 l 1
 448 132 l 1
 468 189 l 1
 416 382 l 1
EndSplineSet
EndChar

StartChar: R
Encoding: 82 82 13
Width: 679
VWidth: 0
Flags: HMW
LayerCount: 2
Fore
SplineSet
292 300 m 1
 508 300 l 1
 650 0 l 1
 406 0 l 1
 292 300 l 1
159 700 m 1
 376 700 l 1
 256 0 l 1
 39 0 l 1
 159 700 l 1
266 514 m 1
 297 700 l 1
 440 700 l 2
 614 700 710 606 692 460 c 0
 674 312 550 220 370 220 c 2
 214 220 l 1
 244 385 l 1
 368 385 l 2
 416 385 456 408 464 450 c 0
 471 490 446 514 400 514 c 2
 266 514 l 1
EndSplineSet
EndChar

StartChar: V
Encoding: 86 86 14
Width: 756
VWidth: 0
Flags: HMW
LayerCount: 2
Fore
SplineSet
415 362 m 1
 597 700 l 1
 856 700 l 1
 355 -52 l 1
 87 700 l 1
 338 700 l 1
 415 362 l 1
EndSplineSet
EndChar

StartChar: M
Encoding: 77 77 15
Width: 912
VWidth: 0
Flags: HMW
LayerCount: 2
Fore
SplineSet
317 285 m 1
 232 0 l 1
 -1 0 l 1
 252 735 l 1
 486 358 l 1
 858 740 l 1
 856 0 l 1
 626 0 l 1
 640 278 l 1
 443 64 l 1
 317 285 l 1
EndSplineSet
EndChar

StartChar: W
Encoding: 87 87 16
Width: 1077
VWidth: 0
Flags: HMW
LayerCount: 2
Fore
SplineSet
755 364 m 1
 908 700 l 1
 1172 700 l 1
 744 -46 l 1
 571 301 l 1
 287 -48 l 1
 92 700 l 1
 348 700 l 1
 394 366 l 1
 634 738 l 1
 755 364 l 1
EndSplineSet
EndChar

StartChar: N
Encoding: 78 78 17
Width: 781
VWidth: 0
Flags: HMW
LayerCount: 2
Fore
SplineSet
600 700 m 1
 808 700 l 1
 682 -33 l 1
 301 318 l 1
 246 0 l 1
 39 0 l 1
 164 733 l 1
 545 382 l 1
 600 700 l 1
EndSplineSet
EndChar

StartChar: a
Encoding: 97 97 18
Width: 625
VWidth: 0
Flags: HMW
LayerCount: 2
Fore
SplineSet
438 460 m 1
 631 460 l 1
 552 0 l 1
 359 0 l 1
 438 460 l 1
40 230 m 0
 58 368 165 470 283 470 c 0
 407 470 461 356 445 230 c 0
 427 98 335 -10 213 -10 c 0
 95 -10 24 97 40 230 c 0
242 230 m 0
 236 188 256 142 301 140 c 0
 345 138 390 182 398 230 c 0
 404 275 382 318 340 320 c 0
 294 322 250 276 242 230 c 0
EndSplineSet
Substitution2: "alt a" a.alt
EndChar

StartChar: X
Encoding: 88 88 19
Width: 742
VWidth: 0
Flags: HMW
LayerCount: 2
Fore
SplineSet
548 700 m 1
 823 700 l 1
 544 350 l 1
 724 0 l 1
 460 0 l 1
 388 193 l 1
 254 0 l 1
 -22 0 l 1
 278 358 l 1
 116 700 l 1
 381 700 l 1
 437 534 l 1
 548 700 l 1
EndSplineSet
EndChar

StartChar: K
Encoding: 75 75 20
Width: 757
VWidth: 0
Flags: HMW
LayerCount: 2
Fore
SplineSet
159 700 m 1
 386 700 l 1
 266 0 l 1
 39 0 l 1
 159 700 l 1
588 700 m 1
 846 700 l 1
 519 368 l 1
 734 0 l 1
 480 0 l 1
 266 370 l 1
 588 700 l 1
EndSplineSet
EndChar

StartChar: Y
Encoding: 89 89 21
Width: 698
VWidth: 0
Flags: HMW
LayerCount: 2
Fore
SplineSet
545 700 m 1
 800 700 l 1
 479 270 l 1
 434 0 l 1
 212 0 l 1
 261 279 l 1
 89 700 l 1
 334 700 l 1
 401 478 l 1
 545 700 l 1
EndSplineSet
EndChar

StartChar: B
Encoding: 66 66 22
Width: 706
VWidth: 0
Flags: HMW
LayerCount: 2
Fore
SplineSet
253 335 m 1
 270 425 l 1
 375 425 l 2
 419 425 453 446 460 484 c 0
 466 520 443 535 403 535 c 2
 349 535 l 1
 282 164 l 1
 350 164 l 2
 396 165 448 176 456 228 c 0
 462 272 422 279 380 280 c 2
 244 280 l 1
 265 400 l 1
 418 400 l 2
 546 400 694 338 674 192 c 0
 654 49 522 0 362 0 c 2
 39 0 l 1
 159 700 l 1
 450 700 l 2
 580 700 711 646 692 520 c 0
 674 394 539 335 400 335 c 2
 253 335 l 1
EndSplineSet
EndChar

StartChar: Z
Encoding: 90 90 23
Width: 645
VWidth: 0
Flags: HMW
LayerCount: 2
Fore
SplineSet
125 505 m 1
 159 700 l 1
 732 700 l 1
 346 186 l 1
 598 185 l 1
 566 0 l 1
 -27 0 l 1
 352 504 l 1
 125 505 l 1
EndSplineSet
EndChar

StartChar: o
Encoding: 111 111 24
Width: 597
VWidth: 0
Flags: HMW
LayerCount: 2
Fore
SplineSet
46 230 m 0
 65 376 196 471 348 471 c 0
 497 471 606 374 588 230 c 0
 569 84 438 -10 286 -10 c 0
 138 -10 28 86 46 230 c 0
243 230 m 0
 237 185 258 148 300 146 c 0
 343 144 385 182 392 230 c 0
 398 275 376 314 334 316 c 0
 291 318 250 278 243 230 c 0
EndSplineSet
EndChar

StartChar: J
Encoding: 74 74 25
Width: 373
VWidth: 0
Flags: HMW
LayerCount: 2
Fore
SplineSet
-112 -40 m 1
 -90 -54 -64 -70 -38 -70 c 0
 -2 -70 33 -40 39 6 c 2
 159 700 l 1
 400 700 l 1
 272 -50 l 2
 248 -193 114 -250 -28 -250 c 0
 -113 -250 -190 -222 -250 -188 c 1
 -112 -40 l 1
EndSplineSet
EndChar

StartChar: t
Encoding: 116 116 26
Width: 354
VWidth: 0
Flags: HMW
LayerCount: 2
Fore
SplineSet
55 460 m 1
 403 460 l 1
 376 305 l 1
 28 305 l 1
 55 460 l 1
164 620 m 1
 348 620 l 1
 241 0 l 1
 58 0 l 1
 164 620 l 1
EndSplineSet
EndChar

StartChar: d
Encoding: 100 100 27
Width: 625
VWidth: 0
Flags: HMW
LayerCount: 2
Fore
SplineSet
493 780 m 1
 686 780 l 1
 552 0 l 1
 359 0 l 1
 493 780 l 1
40 230 m 0
 58 368 165 470 283 470 c 0
 407 470 461 356 445 230 c 0
 427 98 335 -10 213 -10 c 0
 95 -10 24 97 40 230 c 0
242 230 m 0
 236 188 256 142 301 140 c 0
 345 138 390 182 398 230 c 0
 404 275 382 318 340 320 c 0
 294 322 250 276 242 230 c 0
EndSplineSet
EndChar

StartChar: l
Encoding: 108 108 28
Width: 286
VWidth: 0
Flags: HMW
LayerCount: 2
Fore
SplineSet
153 780 m 1
 346 780 l 1
 212 0 l 1
 20 0 l 1
 153 780 l 1
EndSplineSet
EndChar

StartChar: i
Encoding: 105 105 29
Width: 277
VWidth: 0
Flags: HMW
LayerCount: 2
Fore
SplineSet
110 622 m 0
 110 681 158 720 218 720 c 0
 278 720 326 681 326 622 c 0
 326 563 278 524 218 524 c 0
 158 524 110 563 110 622 c 0
98 460 m 1
 282 460 l 1
 204 0 l 1
 18 0 l 1
 98 460 l 1
EndSplineSet
EndChar

StartChar: r
Encoding: 114 114 30
Width: 444
VWidth: 0
Flags: HMW
LayerCount: 2
Fore
SplineSet
286 460 m 1
 207 0 l 1
 20 0 l 1
 98 460 l 1
 286 460 l 1
386 262 m 1
 374 276 359 290 336 290 c 0
 292 291 246 246 240 194 c 1
 227 281 l 1
 244 377 330 472 410 472 c 0
 444 472 471 452 487 428 c 1
 386 262 l 1
EndSplineSet
EndChar

StartChar: c
Encoding: 99 99 31
Width: 480
VWidth: 0
Flags: HMW
LayerCount: 2
Fore
SplineSet
236 230 m 0
 228 176 264 141 316 139 c 0
 364 137 409 161 444 196 c 1
 422 21 l 1
 384 3 343 -10 283 -10 c 0
 131 -10 20 84 39 230 c 0
 59 378 191 470 347 470 c 0
 407 470 445 456 483 440 c 1
 459 264 l 1
 432 302 391 322 353 322 c 0
 294 322 245 281 236 230 c 0
EndSplineSet
EndChar

StartChar: b
Encoding: 98 98 32
Width: 625
VWidth: 0
Flags: HMW
LayerCount: 2
Fore
SplineSet
346 780 m 1
 212 0 l 1
 20 0 l 1
 153 780 l 1
 346 780 l 1
610 230 m 0
 592 92 486 -10 368 -10 c 0
 244 -10 189 104 205 230 c 0
 223 362 316 470 438 470 c 0
 556 470 626 363 610 230 c 0
409 230 m 0
 415 272 394 318 349 320 c 0
 305 322 260 278 252 230 c 0
 246 185 268 142 310 140 c 0
 356 138 401 184 409 230 c 0
EndSplineSet
EndChar

StartChar: p
Encoding: 112 112 33
Width: 625
VWidth: 0
Flags: HMW
LayerCount: 2
Fore
SplineSet
174 -220 m 1
 -18 -220 l 1
 98 460 l 1
 291 460 l 1
 174 -220 l 1
610 230 m 0
 592 86 486 -20 366 -20 c 0
 234 -20 199 105 215 230 c 0
 233 362 309 480 439 480 c 0
 560 480 626 368 610 230 c 0
409 231 m 0
 415 275 392 308 348 310 c 0
 306 312 259 277 252 229 c 0
 246 183 271 152 312 150 c 0
 357 148 402 185 409 231 c 0
EndSplineSet
EndChar

StartChar: q
Encoding: 113 113 34
Width: 625
VWidth: 0
Flags: HMW
LayerCount: 2
Fore
SplineSet
322 -220 m 1
 438 460 l 1
 631 460 l 1
 514 -220 l 1
 322 -220 l 1
40 230 m 0
 58 374 164 480 284 480 c 0
 416 480 452 355 436 230 c 0
 418 98 342 -20 212 -20 c 0
 91 -20 24 92 40 230 c 0
242 229 m 0
 236 185 259 152 303 150 c 0
 345 148 391 183 398 231 c 0
 404 277 379 308 338 310 c 0
 293 312 249 275 242 229 c 0
EndSplineSet
EndChar

StartChar: h
Encoding: 104 104 35
Width: 577
VWidth: 0
Flags: HMW
LayerCount: 2
Fore
SplineSet
346 780 m 1
 212 0 l 1
 20 0 l 1
 153 780 l 1
 346 780 l 1
361 280 m 2
 365 311 366 341 330 345 c 0
 294 349 268 314 260 280 c 1
 232 281 l 1
 250 385 305 480 425 481 c 0
 542 482 571 410 556 310 c 2
 503 0 l 1
 310 0 l 1
 361 280 l 2
EndSplineSet
EndChar

StartChar: n
Encoding: 110 110 36
Width: 587
VWidth: 0
Flags: HMW
LayerCount: 2
Fore
SplineSet
361 280 m 2
 365 311 365 345 324 345 c 0
 289 345 266 322 260 281 c 2
 212 0 l 1
 20 0 l 1
 98 460 l 1
 291 460 l 1
 282 398 l 1
 312 441 357 471 423 471 c 0
 539 472 580 400 564 300 c 2
 513 0 l 1
 310 0 l 1
 361 280 l 2
EndSplineSet
EndChar

StartChar: m
Encoding: 109 109 37
Width: 820
VWidth: 0
Flags: HMW
LayerCount: 2
Fore
SplineSet
796 300 m 2
 746 0 l 1
 553 0 l 1
 604 280 l 2
 606 309 607 345 578 345 c 0
 550 345 528 322 521 280 c 2
 474 0 l 1
 281 0 l 1
 332 280 l 2
 334 309 334 345 306 345 c 0
 280 345 258 323 252 284 c 2
 202 0 l 1
 20 0 l 1
 98 460 l 1
 282 460 l 1
 272 398 l 1
 302 442 347 471 409 471 c 0
 481 471 514 444 525 398 c 1
 563 442 616 471 680 471 c 0
 791 471 808 396 796 300 c 2
EndSplineSet
EndChar

StartChar: k
Encoding: 107 107 38
Width: 640
VWidth: 0
Flags: HMW
LayerCount: 2
Fore
SplineSet
153 780 m 1
 336 780 l 1
 202 0 l 1
 20 0 l 1
 153 780 l 1
436 460 m 1
 668 460 l 1
 440 266 l 1
 601 0 l 1
 388 0 l 1
 219 275 l 1
 436 460 l 1
EndSplineSet
EndChar

StartChar: u
Encoding: 117 117 39
Width: 587
VWidth: 0
Flags: HMW
LayerCount: 2
Fore
SplineSet
250 180 m 2
 246 149 246 115 282 115 c 0
 316 115 342 133 350 178 c 2
 400 460 l 1
 592 460 l 1
 513 0 l 1
 320 0 l 1
 330 62 l 1
 300 19 254 -11 188 -11 c 0
 71 -11 35 58 48 160 c 1
 98 460 l 1
 301 460 l 1
 250 180 l 2
EndSplineSet
EndChar

StartChar: e
Encoding: 101 101 40
Width: 591
VWidth: 0
Flags: HMW
LayerCount: 2
Fore
SplineSet
298 -10 m 0
 142 -10 42 70 42 200 c 0
 42 357 167 470 353 470 c 0
 507 470 584 389 584 264 c 0
 584 241 580 214 573 190 c 1
 136 190 l 1
 136 284 l 1
 412 284 l 1
 374 238 l 1
 382 250 388 264 388 274 c 0
 388 322 373 350 333 350 c 0
 279 350 257 314 237 230 c 0
 221 163 249 120 303 120 c 0
 346 120 373 135 394 165 c 1
 567 137 l 1
 517 38 426 -10 298 -10 c 0
EndSplineSet
EndChar

StartChar: g
Encoding: 103 103 41
Width: 616
VWidth: 0
Flags: HMW
LayerCount: 2
Fore
SplineSet
3 -34 m 1
 184 -36 l 1
 190 -79 208 -94 248 -94 c 0
 309 -95 350 -50 360 10 c 2
 438 460 l 1
 621 460 l 1
 544 10 l 2
 518 -158 402 -244 244 -244 c 0
 78 -244 7 -166 3 -34 c 1
42 240 m 0
 60 378 166 470 283 470 c 0
 405 470 463 367 447 240 c 0
 430 108 338 10 216 10 c 0
 99 10 26 106 42 240 c 0
243 239 m 0
 237 195 260 162 304 160 c 0
 346 158 393 193 400 241 c 0
 406 287 381 320 340 320 c 0
 290 320 250 285 243 239 c 0
EndSplineSet
EndChar

StartChar: f
Encoding: 102 102 42
Width: 367
VWidth: 0
Flags: HMW
LayerCount: 2
Fore
SplineSet
55 460 m 1
 412 460 l 1
 386 305 l 1
 28 305 l 1
 55 460 l 1
418 606 m 1
 408 619 398 630 380 630 c 0
 350 630 326 604 322 574 c 2
 222 0 l 1
 39 0 l 1
 146 630 l 2
 165 730 242 800 364 800 c 0
 433 800 475 770 507 742 c 1
 418 606 l 1
EndSplineSet
EndChar

StartChar: s
Encoding: 115 115 43
Width: 473
VWidth: 0
Flags: HMW
LayerCount: 2
Fore
SplineSet
82 182 m 1
 148 132 200 106 236 110 c 0
 252 111 268 121 270 134 c 0
 274 160 243 168 190 186 c 0
 124 210 74 253 84 334 c 0
 96 423 180 470 281 470 c 0
 358 470 423 445 488 414 c 1
 424 283 l 1
 386 317 336 346 294 346 c 0
 276 346 258 338 256 326 c 0
 250 296 302 288 352 270 c 0
 415 246 466 208 458 130 c 0
 446 26 369 -23 261 -24 c 0
 165 -25 84 4 4 48 c 1
 82 182 l 1
EndSplineSet
EndChar

StartChar: y
Encoding: 121 121 44
Width: 553
VWidth: 0
Flags: HMW
LayerCount: 2
Fore
SplineSet
624 460 m 1
 216 -220 l 1
 24 -220 l 1
 170 26 l 1
 38 460 l 1
 240 460 l 1
 321 85 l 1
 216 86 l 1
 426 460 l 1
 624 460 l 1
EndSplineSet
EndChar

StartChar: w
Encoding: 119 119 45
Width: 786
VWidth: 0
Flags: HMW
LayerCount: 2
Fore
SplineSet
38 460 m 1
 230 460 l 1
 277 267 l 1
 449 498 l 1
 540 265 l 1
 654 460 l 1
 856 460 l 1
 519 -27 l 1
 405 208 l 1
 208 -28 l 1
 38 460 l 1
EndSplineSet
EndChar

StartChar: v
Encoding: 118 118 46
Width: 562
VWidth: 0
Flags: HMW
LayerCount: 2
Fore
SplineSet
50 460 m 1
 250 460 l 1
 302 251 l 1
 422 460 l 1
 626 460 l 1
 256 -68 l 1
 50 460 l 1
EndSplineSet
EndChar

StartChar: x
Encoding: 120 120 47
Width: 582
VWidth: 0
Flags: HMW
LayerCount: 2
Fore
SplineSet
414 460 m 1
 631 460 l 1
 408 232 l 1
 563 0 l 1
 358 0 l 1
 292 112 l 1
 205 0 l 1
 -22 0 l 1
 211 245 l 1
 66 460 l 1
 280 460 l 1
 331 365 l 1
 414 460 l 1
EndSplineSet
EndChar

StartChar: z
Encoding: 122 122 48
Width: 543
VWidth: 0
Flags: HMW
LayerCount: 2
Fore
SplineSet
240 286 m 1
 82 286 l 1
 113 460 l 1
 585 460 l 1
 346 174 l 1
 495 174 l 1
 464 0 l 1
 -18 0 l 1
 240 286 l 1
EndSplineSet
EndChar

StartChar: j
Encoding: 106 106 49
Width: 276
VWidth: 0
Flags: HMW
LayerCount: 2
Fore
SplineSet
110 622 m 0
 110 681 158 720 218 720 c 0
 278 720 326 681 326 622 c 0
 326 563 278 524 218 524 c 0
 158 524 110 563 110 622 c 0
-83 -56 m 1
 -73 -69 -59 -80 -39 -80 c 0
 -9 -80 10 -54 14 -24 c 2
 98 460 l 1
 282 460 l 1
 190 -80 l 2
 171 -180 94 -250 -28 -250 c 0
 -97 -250 -140 -220 -172 -192 c 1
 -83 -56 l 1
EndSplineSet
EndChar

StartChar: P
Encoding: 80 80 50
Width: 648
VWidth: 0
Flags: HMW
LayerCount: 2
Fore
SplineSet
159 700 m 1
 376 700 l 1
 256 0 l 1
 39 0 l 1
 159 700 l 1
268 526 m 1
 297 700 l 1
 421 700 l 1
 597 698 686 613 672 460 c 0
 658 305 533 222 352 220 c 1
 214 220 l 1
 245 395 l 1
 370 395 l 2
 418 395 458 418 466 460 c 0
 473 500 448 526 402 526 c 2
 268 526 l 1
EndSplineSet
EndChar

StartChar: U
Encoding: 85 85 51
Width: 723
VWidth: 0
Flags: HMW
LayerCount: 2
Fore
SplineSet
154 700 m 1
 371 700 l 1
 292 250 l 2
 286 202 299 158 356 156 c 0
 414 154 450 198 460 250 c 1
 538 700 l 1
 755 700 l 1
 676 230 l 2
 647 50 504 -40 334 -40 c 0
 170 -40 50 50 74 230 c 1
 154 700 l 1
EndSplineSet
EndChar

StartChar: S
Encoding: 83 83 52
Width: 652
VWidth: 0
Flags: HMW
LayerCount: 2
Fore
SplineSet
186 266 m 1
 216 204 262 156 326 156 c 0
 358 156 392 170 398 200 c 0
 408 237 361 251 289 280 c 0
 209 315 120 388 135 510 c 0
 155 647 294 720 434 720 c 0
 567 720 648 648 684 562 c 1
 514 474 l 1
 489 516 458 540 418 540 c 0
 390 540 360 530 354 506 c 0
 343 462 431 443 485 423 c 0
 587 383 640 304 626 202 c 0
 604 51 458 -30 312 -30 c 0
 176 -30 66 48 28 160 c 1
 186 266 l 1
EndSplineSet
EndChar

StartChar: at
Encoding: 64 64 53
Width: 747
VWidth: 0
Flags: HMW
LayerCount: 2
Fore
SplineSet
363 320 m 0
 361 298 360 270 374 266 c 0
 401 258 435 328 439 360 c 0
 441 385 445 410 429 414 c 0
 399 422 367 353 363 320 c 0
218 310 m 0
 230 423 306 532 396 530 c 0
 470 529 502 446 494 370 c 0
 482 256 412 150 322 150 c 0
 234 150 208 226 218 310 c 0
36 320 m 0
 70 542 260 730 494 730 c 0
 699 730 804 558 778 390 c 0
 760 243 667 138 547 140 c 0
 472 142 434 194 440 260 c 1
 432 310 l 1
 482 520 l 1
 618 520 l 1
 569 319 l 2
 567 311 564 301 562 292 c 0
 560 276 560 259 572 256 c 0
 602 246 641 320 645 390 c 0
 663 502 623 610 486 610 c 0
 318 610 197 480 170 320 c 0
 148 188 200 88 356 86 c 0
 422 86 479 105 535 125 c 1
 558 14 l 1
 492 -18 413 -35 327 -35 c 0
 109 -33 8 130 36 320 c 0
EndSplineSet
EndChar

StartChar: period
Encoding: 46 46 54
Width: 326
VWidth: 0
Flags: HMW
LayerCount: 2
Fore
SplineSet
38 85 m 0
 38 148 86 200 156 200 c 0
 226 200 274 148 274 85 c 0
 274 22 226 -30 156 -30 c 0
 86 -30 38 22 38 85 c 0
EndSplineSet
EndChar

StartChar: comma
Encoding: 44 44 55
Width: 323
VWidth: 0
Flags: HMW
LayerCount: 2
Fore
SplineSet
88 109 m 1
 278 74 l 1
 106 -173 l 1
 -41 -147 l 1
 88 109 l 1
EndSplineSet
EndChar

StartChar: colon
Encoding: 58 58 56
Width: 326
VWidth: 0
Flags: HMW
LayerCount: 2
Fore
SplineSet
32 85 m 0
 32 148 80 200 150 200 c 0
 220 200 268 148 268 85 c 0
 268 22 220 -30 150 -30 c 0
 80 -30 32 22 32 85 c 0
96 454 m 0
 96 517 144 570 214 570 c 0
 284 570 332 517 332 454 c 0
 332 391 284 340 214 340 c 0
 144 340 96 391 96 454 c 0
EndSplineSet
EndChar

StartChar: semicolon
Encoding: 59 59 57
Width: 418
VWidth: 0
Flags: HMW
LayerCount: 2
Fore
SplineSet
157 444 m 0
 157 507 205 560 275 560 c 0
 345 560 393 507 393 444 c 0
 393 381 345 330 275 330 c 0
 205 330 157 381 157 444 c 0
122 109 m 1
 312 74 l 1
 140 -173 l 1
 -7 -147 l 1
 122 109 l 1
EndSplineSet
EndChar

StartChar: quotedbl
Encoding: 34 34 58
Width: 533
VWidth: 0
Flags: HMW
LayerCount: 2
Fore
SplineSet
176 700 m 1
 376 700 l 1
 212 370 l 1
 86 370 l 1
 176 700 l 1
400 700 m 1
 599 700 l 1
 436 370 l 1
 309 370 l 1
 400 700 l 1
EndSplineSet
EndChar

StartChar: exclam
Encoding: 33 33 59
Width: 359
VWidth: 0
Flags: HMW
LayerCount: 2
Fore
SplineSet
155 700 m 1
 390 700 l 1
 275 250 l 1
 115 250 l 1
 155 700 l 1
48 75 m 0
 48 138 96 180 166 180 c 0
 236 180 284 138 284 75 c 0
 284 12 236 -30 166 -30 c 0
 96 -30 48 12 48 75 c 0
EndSplineSet
EndChar

StartChar: quotesingle
Encoding: 39 39 60
Width: 310
VWidth: 0
Flags: HMW
LayerCount: 2
Fore
SplineSet
176 700 m 1
 376 700 l 1
 212 370 l 1
 86 370 l 1
 176 700 l 1
EndSplineSet
EndChar

StartChar: numbersign
Encoding: 35 35 61
Width: 684
VWidth: 0
Flags: HMW
LayerCount: 2
Fore
SplineSet
114 396 m 1
 138 550 l 1
 719 550 l 1
 692 395 l 1
 537 395 l 1
 502 405 l 1
 296 405 l 1
 262 395 l 1
 114 396 l 1
31 155 m 1
 58 310 l 1
 196 310 l 1
 236 300 l 1
 476 300 l 1
 512 310 l 1
 640 310 l 1
 612 155 l 1
 31 155 l 1
558 700 m 1
 727 700 l 1
 442 0 l 1
 275 0 l 1
 366 222 l 1
 388 252 l 1
 470 452 l 1
 475 492 l 1
 558 700 l 1
308 700 m 1
 474 700 l 1
 389 492 l 1
 362 450 l 1
 283 256 l 1
 281 226 l 1
 189 0 l 1
 23 0 l 1
 308 700 l 1
EndSplineSet
EndChar

StartChar: hyphen
Encoding: 45 45 62
Width: 223
VWidth: 0
Flags: HMW
LayerCount: 2
Fore
SplineSet
2 155 m 1
 31 320 l 1
 248 320 l 1
 219 155 l 1
 2 155 l 1
EndSplineSet
EndChar

StartChar: dollar
Encoding: 36 36 63
Width: 627
VWidth: 0
Flags: HMW
LayerCount: 2
Fore
SplineSet
364 818 m 1
 517 818 l 1
 475 618 l 1
 342 618 l 1
 364 818 l 1
258 70 m 1
 390 70 l 1
 371 -112 l 1
 220 -112 l 1
 258 70 l 1
500 474 m 1
 478 522 451 558 409 558 c 0
 375 558 349 536 343 513 c 0
 331 460 420 446 479 424 c 0
 579 384 638 307 624 200 c 0
 604 57 462 -11 302 -10 c 0
 177 -9 69 64 26 160 c 1
 182 266 l 1
 220 201 256 158 323 158 c 0
 361 158 390 171 396 202 c 0
 404 242 340 258 284 281 c 0
 204 316 108 388 122 510 c 0
 140 628 270 710 414 710 c 0
 550 710 622 650 670 562 c 1
 500 474 l 1
EndSplineSet
EndChar

StartChar: bar
Encoding: 124 124 64
Width: 388
VWidth: 0
Flags: HMW
LayerCount: 2
Fore
SplineSet
200 785 m 1
 396 785 l 1
 242 -215 l 1
 45 -215 l 1
 200 785 l 1
EndSplineSet
EndChar

StartChar: zero
Encoding: 48 48 65
Width: 679
VWidth: 0
Flags: HMW
LayerCount: 2
Fore
SplineSet
276 350 m 0
 268 272 267 172 336 170 c 0
 407 168 456 262 468 350 c 0
 476 428 477 528 408 530 c 0
 337 532 288 438 276 350 c 0
70 350 m 0
 98 560 234 715 428 715 c 0
 630 715 701 550 675 350 c 0
 647 140 516 -15 316 -15 c 0
 120 -15 44 150 70 350 c 0
EndSplineSet
Substitution2: "Tabular Numbers lookup" uniFF10
EndChar

StartChar: one
Encoding: 49 49 66
Width: 528
VWidth: 0
Flags: HMW
LayerCount: 2
Fore
SplineSet
106 458 m 1
 140 643 l 1
 539 716 l 1
 416 0 l 1
 208 0 l 1
 294 498 l 1
 106 458 l 1
EndSplineSet
Substitution2: "Tabular Numbers lookup" uniFF11
EndChar

StartChar: two
Encoding: 50 50 67
Width: 688
VWidth: 0
Flags: HMW
LayerCount: 2
Fore
SplineSet
-2 0 m 1
 336 305 l 2
 393 359 454 404 463 466 c 0
 467 500 452 529 408 530 c 0
 355 532 320 479 310 430 c 1
 98 430 l 1
 124 584 244 716 434 716 c 0
 592 716 707 610 688 480 c 0
 678 402 624 344 560 297 c 2
 424 200 l 1
 670 200 l 1
 638 0 l 1
 -2 0 l 1
EndSplineSet
Substitution2: "Tabular Numbers lookup" uniFF12
EndChar

StartChar: four
Encoding: 52 52 68
Width: 745
VWidth: 0
Flags: HMW
LayerCount: 2
Fore
SplineSet
-2 116 m 1
 503 700 l 1
 684 700 l 1
 564 0 l 1
 338 0 l 1
 367 176 l 1
 398 186 l 1
 436 412 l 1
 300 266 l 1
 554 266 l 1
 576 300 l 1
 723 300 l 1
 690 115 l 1
 -2 116 l 1
EndSplineSet
Substitution2: "Tabular Numbers lookup" uniFF14
EndChar

StartChar: slash
Encoding: 47 47 69
Width: 645
VWidth: 0
Flags: HMW
LayerCount: 2
Fore
SplineSet
540 700 m 1
 728 700 l 1
 155 -150 l 1
 -42 -150 l 1
 540 700 l 1
EndSplineSet
EndChar

StartChar: backslash
Encoding: 92 92 70
Width: 548
VWidth: 0
Flags: HMW
LayerCount: 2
Fore
SplineSet
108 700 m 1
 286 700 l 1
 506 0 l 1
 328 0 l 1
 108 700 l 1
EndSplineSet
EndChar

StartChar: eight
Encoding: 56 56 71
Width: 656
VWidth: 0
Flags: HMW
LayerCount: 2
Fore
SplineSet
135 532 m 0
 153 660 286 720 418 720 c 0
 544 720 666 660 648 530 c 0
 630 397 483 335 364 335 c 0
 251 335 117 399 135 532 c 0
333 510 m 0
 329 480 342 450 374 450 c 0
 412 450 440 480 444 512 c 0
 448 542 434 570 402 570 c 0
 364 570 337 542 333 510 c 0
52 190 m 0
 72 339 238 400 363 400 c 0
 481 400 634 340 614 190 c 0
 594 52 444 -20 304 -20 c 0
 172 -20 32 51 52 190 c 0
274 224 m 0
 268 186 286 156 324 156 c 0
 368 156 398 186 404 226 c 0
 408 258 390 290 354 290 c 0
 311 290 280 258 274 224 c 0
EndSplineSet
Substitution2: "Tabular Numbers lookup" uniFF18
EndChar

StartChar: nine
Encoding: 57 57 72
Width: 704
VWidth: 0
Flags: HMW
LayerCount: 2
Fore
SplineSet
494 446 m 0
 502 496 473 533 422 534 c 0
 370 535 321 496 313 444 c 0
 305 395 335 355 386 354 c 0
 438 353 486 394 494 446 c 0
368 6 m 1
 88 6 l 1
 348 234 l 1
 406 262 l 1
 366 232 334 218 286 218 c 0
 175 218 84 316 98 445 c 0
 119 622 272 720 440 720 c 0
 604 720 731 620 709 445 c 0
 697 356 638 285 576 220 c 2
 368 6 l 1
EndSplineSet
Substitution2: "Tabular Numbers lookup" uniFF19
EndChar

StartChar: three
Encoding: 51 51 73
Width: 646
VWidth: 0
Flags: HMW
LayerCount: 2
Fore
SplineSet
314 336 m 1
 326 424 l 1
 383 428 454 454 458 502 c 0
 460 528 442 544 408 544 c 0
 364 546 333 513 323 476 c 1
 124 477 l 1
 148 614 265 715 425 715 c 0
 573 715 690 642 672 516 c 0
 651 369 474 337 314 336 c 1
314 -20 m 0
 141 -19 45 103 57 245 c 1
 266 244 l 1
 264 186 289 152 339 150 c 0
 383 148 425 170 432 216 c 0
 444 271 386 293 308 295 c 1
 322 398 l 1
 492 396 663 352 641 194 c 0
 622 58 484 -21 314 -20 c 0
EndSplineSet
Substitution2: "Tabular Numbers lookup" uniFF13
EndChar

StartChar: five
Encoding: 53 53 74
Width: 673
VWidth: 0
Flags: HMW
LayerCount: 2
Fore
SplineSet
653 220 m 0
 633 60 467 -14 325 -15 c 0
 213 -15 120 10 38 43 c 1
 124 236 l 1
 183 202 241 185 287 185 c 0
 349 185 412 196 420 250 c 0
 428 302 362 310 316 310 c 0
 256 311 175 300 105 278 c 1
 264 700 l 1
 706 700 l 1
 676 510 l 1
 396 510 l 1
 342 421 l 1
 382 438 426 444 472 444 c 0
 586 442 668 350 653 220 c 0
EndSplineSet
Substitution2: "Tabular Numbers lookup" uniFF15
EndChar

StartChar: six
Encoding: 54 54 75
Width: 704
VWidth: 0
Flags: HMW
LayerCount: 2
Fore
SplineSet
284 254 m 0
 276 204 305 167 356 166 c 0
 408 165 458 204 466 256 c 0
 474 305 443 345 392 346 c 0
 340 347 292 306 284 254 c 0
410 694 m 1
 691 694 l 1
 430 466 l 1
 372 438 l 1
 412 468 444 482 492 482 c 0
 603 482 694 384 680 255 c 0
 659 78 506 -20 338 -20 c 0
 174 -20 47 80 69 255 c 0
 81 344 140 415 202 480 c 2
 410 694 l 1
EndSplineSet
Substitution2: "Tabular Numbers lookup" uniFF16
EndChar

StartChar: seven
Encoding: 55 55 76
Width: 630
VWidth: 0
Flags: HMW
LayerCount: 2
Fore
SplineSet
86 495 m 1
 118 700 l 1
 726 700 l 1
 287 0 l 1
 48 0 l 1
 374 495 l 1
 86 495 l 1
EndSplineSet
Substitution2: "Tabular Numbers lookup" uniFF17
EndChar

StartChar: plus
Encoding: 43 43 77
Width: 689
VWidth: 0
Flags: HMW
LayerCount: 2
Fore
SplineSet
66 185 m 1
 98 370 l 1
 664 370 l 1
 632 185 l 1
 66 185 l 1
316 565 m 1
 513 565 l 1
 414 -10 l 1
 216 -10 l 1
 316 565 l 1
EndSplineSet
EndChar

StartChar: equal
Encoding: 61 61 78
Width: 614
VWidth: 0
Flags: HMW
LayerCount: 2
Fore
SplineSet
28 50 m 1
 57 215 l 1
 578 215 l 1
 548 50 l 1
 28 50 l 1
68 290 m 1
 98 455 l 1
 618 455 l 1
 590 290 l 1
 68 290 l 1
EndSplineSet
EndChar

StartChar: percent
Encoding: 37 37 79
Width: 990
VWidth: 0
Flags: HMW
LayerCount: 2
Fore
SplineSet
76 526 m 0
 91 634 193 724 307 724 c 0
 419 724 496 630 482 524 c 0
 467 416 364 326 250 326 c 0
 138 326 62 420 76 526 c 0
229 524 m 0
 227 502 242 476 272 476 c 0
 298 476 325 502 328 526 c 0
 330 548 316 574 286 574 c 0
 260 574 232 548 229 524 c 0
574 176 m 0
 589 284 692 376 806 376 c 0
 918 376 994 282 980 176 c 0
 965 68 863 -24 749 -24 c 0
 637 -24 560 70 574 176 c 0
728 174 m 0
 725 152 744 128 768 128 c 0
 794 128 821 148 827 178 c 0
 830 200 810 224 786 224 c 0
 760 224 734 204 728 174 c 0
770 700 m 1
 978 700 l 1
 286 0 l 1
 78 0 l 1
 770 700 l 1
EndSplineSet
EndChar

StartChar: ampersand
Encoding: 38 38 80
Width: 775
VWidth: 0
Flags: HMW
LayerCount: 2
Fore
SplineSet
258 364 m 2
 215 420 184 471 192 536 c 0
 207 636 318 720 452 720 c 0
 575 720 659 640 646 544 c 0
 633 436 543 394 436 328 c 0
 371 289 264 280 252 208 c 0
 246 174 268 148 316 146 c 0
 434 139 551 254 626 356 c 1
 738 254 l 1
 638 126 472 -16 272 -15 c 0
 140 -15 32 61 50 190 c 0
 70 347 250 382 348 422 c 0
 407 446 472 481 476 523 c 0
 478 543 462 570 430 570 c 0
 396 570 375 546 370 520 c 0
 362 478 400 437 442 385 c 2
 741 0 l 1
 533 0 l 1
 258 364 l 2
EndSplineSet
EndChar

StartChar: question
Encoding: 63 63 81
Width: 649
VWidth: 0
Flags: HMW
LayerCount: 2
Fore
SplineSet
468 500 m 0
 474 542 445 563 396 564 c 0
 332 566 265 527 219 476 c 1
 110 589 l 1
 199 670 302 725 422 725 c 0
 553 725 680 642 660 500 c 0
 642 375 527 311 418 282 c 1
 403 220 l 1
 242 220 l 1
 252 400 l 1
 285 400 l 2
 377 402 456 446 468 500 c 0
174 71 m 0
 174 125 224 170 290 170 c 0
 356 170 406 127 406 71 c 0
 406 15 356 -30 290 -30 c 0
 224 -30 174 15 174 71 c 0
EndSplineSet
EndChar

StartChar: parenleft
Encoding: 40 40 82
Width: 349
VWidth: 0
Flags: HMW
LayerCount: 2
Fore
SplineSet
273 780 m 1
 448 779 l 1
 362 627 290 464 262 290 c 0
 236 126 251 -42 299 -200 c 1
 130 -200 l 1
 74 -43 56 125 80 290 c 0
 106 464 175 632 273 780 c 1
EndSplineSet
EndChar

StartChar: parenright
Encoding: 41 41 83
Width: 349
VWidth: 0
Flags: HMW
LayerCount: 2
Fore
SplineSet
131 -200 m 1
 -43 -199 l 1
 43 -47 114 116 142 290 c 0
 168 454 154 622 106 780 c 1
 275 780 l 1
 331 623 349 455 325 290 c 0
 299 116 229 -52 131 -200 c 1
EndSplineSet
EndChar

StartChar: asterisk
Encoding: 42 42 84
Width: 574
VWidth: 0
Flags: HMW
LayerCount: 2
Fore
SplineSet
573 606 m 1
 600 434 l 1
 340 396 l 1
 327 484 l 1
 573 606 l 1
529 281 m 1
 369 174 l 1
 296 418 l 1
 370 466 l 1
 529 281 l 1
218 178 m 1
 88 288 l 1
 301 466 l 1
 366 412 l 1
 218 178 l 1
68 436 m 1
 148 605 l 1
 358 479 l 1
 319 398 l 1
 68 436 l 1
289 700 m 1
 470 700 l 1
 380 440 l 1
 293 440 l 1
 289 700 l 1
EndSplineSet
EndChar

StartChar: less
Encoding: 60 60 85
Width: 621
VWidth: 0
Flags: HMW
LayerCount: 2
Fore
SplineSet
340 266 m 1
 563 175 l 1
 531 -8 l 1
 69 203 l 1
 92 337 l 1
 628 548 l 1
 592 351 l 1
 340 266 l 1
EndSplineSet
EndChar

StartChar: greater
Encoding: 62 62 86
Width: 621
VWidth: 0
Flags: HMW
LayerCount: 2
Fore
SplineSet
318 268 m 1
 96 360 l 1
 127 544 l 1
 589 332 l 1
 566 198 l 1
 31 -13 l 1
 66 184 l 1
 318 268 l 1
EndSplineSet
EndChar

StartChar: bracketleft
Encoding: 91 91 87
Width: 388
VWidth: 0
Flags: HMW
LayerCount: 2
Fore
SplineSet
350 615 m 1
 247 -55 l 1
 345 -55 l 1
 319 -220 l 1
 30 -220 l 1
 184 780 l 1
 474 780 l 1
 448 615 l 1
 350 615 l 1
EndSplineSet
EndChar

StartChar: bracketright
Encoding: 93 93 88
Width: 388
VWidth: 0
Flags: HMW
LayerCount: 2
Fore
SplineSet
90 -55 m 1
 194 615 l 1
 95 615 l 1
 121 780 l 1
 410 780 l 1
 256 -220 l 1
 -34 -220 l 1
 -8 -55 l 1
 90 -55 l 1
EndSplineSet
EndChar

StartChar: asciicircum
Encoding: 94 94 89
Width: 494
VWidth: 0
Flags: HMW
LayerCount: 2
Fore
SplineSet
318 552 m 1
 241 440 l 1
 68 440 l 1
 279 710 l 1
 398 710 l 1
 517 440 l 1
 355 440 l 1
 318 552 l 1
EndSplineSet
EndChar

StartChar: underscore
Encoding: 95 95 90
Width: 533
VWidth: 0
Flags: HMW
LayerCount: 2
Fore
SplineSet
-58 -166 m 1
 -36 -45 l 1
 501 -45 l 1
 480 -166 l 1
 -58 -166 l 1
EndSplineSet
EndChar

StartChar: grave
Encoding: 96 96 91
Width: 363
VWidth: 0
Flags: HMW
LayerCount: 2
Fore
SplineSet
122 653 m 1
 264 710 l 1
 387 547 l 1
 278 500 l 1
 122 653 l 1
EndSplineSet
EndChar

StartChar: braceleft
Encoding: 123 123 92
Width: 437
VWidth: 0
Flags: HMW
LayerCount: 2
Fore
SplineSet
384 580 m 2
 370 490 l 2
 351 386 319 288 176 280 c 1
 178 300 l 1
 318 290 322 186 306 90 c 2
 291 0 l 2
 287 -27 298 -50 328 -50 c 2
 364 -50 l 1
 342 -200 l 1
 240 -200 l 2
 146 -198 53 -158 68 -60 c 2
 94 110 l 2
 102 174 95 201 45 220 c 1
 65 360 l 1
 117 376 138 404 148 470 c 2
 174 640 l 2
 189 738 280 778 380 780 c 1
 494 780 l 1
 472 630 l 1
 439 630 l 2
 409 630 388 608 384 580 c 2
EndSplineSet
EndChar

StartChar: braceright
Encoding: 125 125 93
Width: 437
VWidth: 0
Flags: HMW
LayerCount: 2
Fore
SplineSet
110 0 m 2
 124 90 l 2
 143 194 173 292 316 300 c 1
 314 280 l 1
 174 290 171 394 187 490 c 2
 202 580 l 2
 206 606 193 630 164 630 c 2
 128 630 l 1
 150 780 l 1
 253 780 l 2
 347 778 439 738 424 640 c 2
 398 470 l 2
 390 406 398 379 448 360 c 1
 428 220 l 1
 376 204 354 176 344 110 c 2
 319 -60 l 2
 305 -158 212 -198 112 -200 c 1
 -2 -200 l 1
 20 -50 l 1
 54 -50 l 2
 84 -50 106 -28 110 0 c 2
EndSplineSet
EndChar

StartChar: asciitilde
Encoding: 126 126 94
Width: 558
VWidth: 0
Flags: HMW
LayerCount: 2
Fore
SplineSet
170 155 m 1
 26 161 l 1
 25 169 25 178 26 186 c 0
 30 227 46 263 74 295 c 0
 108 331 151 358 220 357 c 0
 265 357 296 337 337 308 c 0
 359 292 379 272 398 272 c 0
 415 272 429 292 432 306 c 0
 434 318 432 333 430 344 c 1
 574 338 l 1
 575 329 575 320 574 310 c 0
 570 270 556 230 528 198 c 0
 498 164 459 142 402 142 c 0
 359 142 324 165 282 194 c 0
 258 211 235 229 211 228 c 0
 185 227 172 204 168 188 c 0
 166 174 168 165 170 155 c 1
EndSplineSet
EndChar

StartChar: exclamdown
Encoding: 161 161 95
Width: 359
VWidth: 0
Flags: HMW
LayerCount: 2
Fore
SplineSet
232 -220 m 1
 -4 -220 l 1
 112 230 l 1
 271 230 l 1
 232 -220 l 1
337 404 m 0
 329 343 273 300 208 300 c 0
 143 300 98 344 106 406 c 0
 114 467 170 510 235 510 c 0
 300 510 345 466 337 404 c 0
EndSplineSet
EndChar

StartChar: cent
Encoding: 162 162 96
Width: 562
VWidth: 0
Flags: HMW
LayerCount: 2
Fore
SplineSet
182 38 m 1
 320 38 l 1
 308 -112 l 1
 140 -112 l 1
 182 38 l 1
237 230 m 0
 228 174 266 141 316 139 c 0
 368 137 410 168 446 198 c 1
 420 19 l 1
 382 1 338 -10 282 -10 c 0
 130 -10 19 84 40 230 c 0
 62 378 196 470 352 470 c 0
 407 470 450 458 488 440 c 1
 462 261 l 1
 436 295 406 322 357 322 c 0
 305 322 247 284 237 230 c 0
260 578 m 1
 428 578 l 1
 386 428 l 1
 248 428 l 1
 260 578 l 1
EndSplineSet
EndChar

StartChar: sterling
Encoding: 163 163 97
Width: 611
VWidth: 0
Flags: HMW
LayerCount: 2
Fore
SplineSet
100 370 m 1
 482 370 l 1
 461 255 l 1
 79 255 l 1
 100 370 l 1
466 460 m 1
 466 502 460 545 402 546 c 0
 362 547 324 521 316 480 c 0
 301 414 379 365 369 274 c 0
 352 160 202 77 110 52 c 1
 206 174 l 1
 540 175 l 1
 510 0 l 1
 16 0 l 1
 108 97 174 192 192 309 c 0
 203 395 114 432 124 524 c 0
 140 646 281 710 409 710 c 0
 549 710 650 628 648 522 c 1
 466 460 l 1
EndSplineSet
EndChar

StartChar: currency
Encoding: 164 164 98
Width: 558
VWidth: 0
Flags: HMW
LayerCount: 2
Fore
SplineSet
72 505 m 1
 150 574 l 1
 235 464 l 1
 162 400 l 1
 72 505 l 1
64 27 m 1
 4 102 l 1
 120 200 l 1
 179 128 l 1
 64 27 l 1
489 400 m 1
 428 474 l 1
 544 574 l 1
 604 500 l 1
 489 400 l 1
370 133 m 1
 448 200 l 1
 532 92 l 1
 459 28 l 1
 370 133 l 1
71 300 m 0
 89 432 202 540 338 540 c 0
 472 540 554 428 536 300 c 0
 518 168 404 60 268 60 c 0
 134 60 53 172 71 300 c 0
238 299 m 0
 232 264 251 237 288 236 c 0
 326 234 362 264 368 301 c 0
 374 336 355 363 318 364 c 0
 280 366 244 336 238 299 c 0
EndSplineSet
EndChar

StartChar: yen
Encoding: 165 165 99
Width: 701
VWidth: 0
Flags: HMW
LayerCount: 2
Fore
SplineSet
57 250 m 1
 78 365 l 1
 692 365 l 1
 672 250 l 1
 57 250 l 1
32 100 m 1
 52 215 l 1
 667 215 l 1
 646 100 l 1
 32 100 l 1
546 700 m 1
 800 700 l 1
 480 271 l 1
 434 0 l 1
 212 0 l 1
 261 279 l 1
 89 700 l 1
 334 700 l 1
 401 478 l 1
 546 700 l 1
EndSplineSet
EndChar

StartChar: brokenbar
Encoding: 166 166 100
Width: 388
VWidth: 0
Flags: HMW
LayerCount: 2
Fore
SplineSet
188 695 m 1
 385 695 l 1
 336 415 l 1
 138 415 l 1
 188 695 l 1
315 285 m 1
 266 5 l 1
 68 5 l 1
 118 285 l 1
 315 285 l 1
EndSplineSet
EndChar

StartChar: section
Encoding: 167 167 101
Width: 658
VWidth: 0
Flags: HMW
LayerCount: 2
Fore
SplineSet
510 532 m 1
 482 556 443 577 412 577 c 0
 391 577 366 567 365 555 c 0
 364 535 413 536 447 528 c 0
 523 510 576 456 566 382 c 0
 549 270 415 226 305 223 c 1
 312 268 l 1
 344 280 386 295 392 334 c 0
 402 390 326 405 282 424 c 0
 225 449 179 496 188 572 c 0
 202 678 314 732 413 732 c 0
 490 732 560 705 602 663 c 1
 510 532 l 1
142 180 m 1
 199 142 256 123 296 125 c 0
 318 125 341 133 343 146 c 0
 346 168 297 174 262 182 c 0
 188 200 114 243 124 320 c 0
 140 434 283 476 393 479 c 1
 386 434 l 1
 355 422 312 407 306 368 c 0
 296 312 384 304 427 286 c 0
 491 258 540 207 530 130 c 0
 515 24 395 -29 295 -30 c 0
 189 -31 115 0 49 49 c 1
 142 180 l 1
EndSplineSet
EndChar

StartChar: dieresis
Encoding: 168 168 102
Width: 520
VWidth: 0
Flags: HMW
LayerCount: 2
Fore
SplineSet
362 616 m 0
 368 672 423 712 480 712 c 0
 538 712 581 671 574 614 c 0
 568 558 515 518 458 518 c 0
 400 518 355 559 362 616 c 0
100 616 m 0
 106 672 161 712 218 712 c 0
 276 712 319 671 312 614 c 0
 306 558 253 518 196 518 c 0
 138 518 93 559 100 616 c 0
EndSplineSet
EndChar

StartChar: copyright
Encoding: 169 169 103
Width: 776
VWidth: 0
Flags: HMW
LayerCount: 2
Fore
SplineSet
347 350 m 0
 338 292 376 255 432 253 c 0
 486 252 525 280 558 304 c 1
 541 168 l 1
 505 146 466 128 412 128 c 0
 276 128 188 222 204 350 c 0
 221 481 331 572 470 572 c 0
 523 572 559 556 594 532 c 1
 577 396 l 1
 551 424 521 448 471 448 c 0
 412 448 357 410 347 350 c 0
130 350 m 0
 106 190 200 41 372 40 c 0
 546 39 693 181 720 350 c 0
 744 510 650 659 478 660 c 0
 304 661 157 519 130 350 c 0
74 350 m 0
 100 550 270 710 474 710 c 0
 675 710 800 544 776 350 c 0
 750 150 579 -10 375 -10 c 0
 174 -10 50 156 74 350 c 0
EndSplineSet
EndChar

StartChar: registered
Encoding: 174 174 104
Width: 776
VWidth: 0
Flags: HMW
LayerCount: 2
Fore
SplineSet
414 310 m 1
 523 310 l 1
 596 150 l 1
 449 150 l 1
 414 310 l 1
304 570 m 1
 434 570 l 1
 369 150 l 1
 238 150 l 1
 304 570 l 1
370 460 m 1
 386 570 l 1
 472 570 l 1
 573 568 639 518 628 436 c 0
 617 348 544 294 438 292 c 2
 342 292 l 1
 358 390 l 1
 434 391 l 1
 461 392 486 403 490 427 c 0
 493 450 474 459 450 460 c 1
 370 460 l 1
130 350 m 0
 106 190 200 41 372 40 c 0
 546 39 693 181 720 350 c 0
 744 510 650 659 478 660 c 0
 304 661 157 519 130 350 c 0
74 350 m 0
 100 550 270 710 474 710 c 0
 675 710 800 544 776 350 c 0
 750 150 579 -10 375 -10 c 0
 174 -10 50 156 74 350 c 0
EndSplineSet
EndChar

StartChar: ordfeminine
Encoding: 170 170 105
Width: 281
VWidth: 0
Flags: HMW
LayerCount: 2
Fore
SplineSet
174 528 m 0
 173 518 181 513 191 513 c 0
 214 513 232 529 240 554 c 1
 243 524 l 1
 231 484 200 456 153 456 c 0
 107 456 71 482 77 526 c 0
 83 571 132 597 184 597 c 0
 213 597 243 588 261 576 c 1
 254 534 l 1
 241 544 228 550 208 550 c 0
 194 550 176 540 174 528 c 0
143 612 m 1
 124 681 l 1
 158 693 196 705 236 705 c 0
 294 705 346 682 342 628 c 1
 314 460 l 1
 222 460 l 1
 248 596 l 1
 248 613 244 627 222 629 c 0
 193 632 160 619 143 612 c 1
EndSplineSet
EndChar

StartChar: ordmasculine
Encoding: 186 186 106
Width: 269
VWidth: 0
Flags: HMW
LayerCount: 2
Fore
SplineSet
88 581 m 0
 98 653 163 700 238 700 c 0
 312 700 370 651 360 579 c 0
 350 507 283 460 208 460 c 0
 134 460 78 509 88 581 c 0
186 579 m 0
 184 559 194 539 213 538 c 0
 233 537 258 559 261 581 c 0
 263 601 253 621 234 622 c 0
 214 623 189 601 186 579 c 0
EndSplineSet
EndChar

StartChar: guillemotleft
Encoding: 171 171 107
Width: 543
VWidth: 0
Flags: HMW
LayerCount: 2
Fore
SplineSet
394 255 m 1
 507 61 l 1
 381 -12 l 1
 259 260 l 1
 465 520 l 1
 574 440 l 1
 394 255 l 1
171 255 m 1
 284 61 l 1
 158 -12 l 1
 36 260 l 1
 242 520 l 1
 350 440 l 1
 171 255 l 1
EndSplineSet
EndChar

StartChar: guillemotright
Encoding: 187 187 108
Width: 543
VWidth: 0
Flags: HMW
LayerCount: 2
Fore
SplineSet
182 255 m 1
 69 449 l 1
 196 522 l 1
 317 250 l 1
 112 -10 l 1
 2 70 l 1
 182 255 l 1
405 255 m 1
 292 449 l 1
 418 522 l 1
 540 250 l 1
 334 -10 l 1
 226 70 l 1
 405 255 l 1
EndSplineSet
EndChar

StartChar: uni00AD
Encoding: 173 173 109
Width: 203
VWidth: 0
Flags: HMW
LayerCount: 2
Fore
SplineSet
13 200 m 1
 24 275 l 1
 222 275 l 1
 210 200 l 1
 13 200 l 1
EndSplineSet
EndChar

StartChar: logicalnot
Encoding: 172 172 110
Width: 649
VWidth: 0
Flags: HMW
LayerCount: 2
Fore
SplineSet
80 256 m 1
 106 420 l 1
 633 420 l 1
 590 175 l 1
 466 175 l 1
 484 256 l 1
 80 256 l 1
EndSplineSet
EndChar

StartChar: macron
Encoding: 175 175 111
Width: 528
VWidth: 0
Flags: HMW
LayerCount: 2
Fore
SplineSet
144 555 m 1
 170 720 l 1
 547 720 l 1
 521 555 l 1
 144 555 l 1
EndSplineSet
EndChar

StartChar: degree
Encoding: 176 176 112
Width: 298
VWidth: 0
Flags: HMW
LayerCount: 2
Fore
SplineSet
88 596 m 0
 98 668 163 720 239 720 c 0
 315 720 370 666 360 594 c 0
 350 522 282 470 206 470 c 0
 130 470 78 524 88 596 c 0
181 594 m 0
 179 572 190 553 212 552 c 0
 236 551 262 572 266 596 c 0
 268 618 256 639 234 640 c 0
 210 641 185 618 181 594 c 0
EndSplineSet
EndChar

StartChar: plusminus
Encoding: 177 177 113
Width: 625
VWidth: 0
Flags: HMW
LayerCount: 2
Fore
SplineSet
46 10 m 1
 71 170 l 1
 574 170 l 1
 548 10 l 1
 46 10 l 1
94 325 m 1
 121 495 l 1
 624 495 l 1
 597 325 l 1
 94 325 l 1
296 620 m 1
 488 620 l 1
 422 200 l 1
 230 200 l 1
 296 620 l 1
EndSplineSet
EndChar

StartChar: uni00B2
Encoding: 178 178 114
Width: 432
VWidth: 0
Flags: HMW
LayerCount: 2
Fore
SplineSet
40 282 m 1
 248 465 l 2
 282 497 321 524 327 562 c 0
 329 580 321 599 296 600 c 0
 264 602 243 568 236 540 c 1
 107 541 l 1
 125 632 195 712 309 712 c 0
 404 712 474 648 462 570 c 0
 456 524 424 488 386 460 c 2
 302 402 l 1
 448 402 l 1
 427 282 l 1
 40 282 l 1
EndSplineSet
EndChar

StartChar: uni00B3
Encoding: 179 179 115
Width: 385
VWidth: 0
Flags: HMW
LayerCount: 2
Fore
SplineSet
212 482 m 1
 220 534 l 1
 255 537 298 552 302 582 c 0
 304 596 291 606 272 606 c 0
 246 606 229 587 221 566 c 1
 100 568 l 1
 118 648 183 707 280 708 c 0
 368 708 441 665 429 589 c 0
 415 501 308 484 212 482 c 1
210 268 m 0
 104 269 51 341 56 427 c 1
 182 426 l 1
 182 392 194 372 224 370 c 0
 248 368 277 384 281 410 c 0
 288 442 252 456 206 458 c 1
 216 518 l 1
 318 516 422 491 408 396 c 0
 396 316 311 267 210 268 c 0
EndSplineSet
EndChar

StartChar: acute
Encoding: 180 180 116
Width: 363
VWidth: 0
Flags: HMW
LayerCount: 2
Fore
SplineSet
404 647 m 1
 210 500 l 1
 104 554 l 1
 272 710 l 1
 404 647 l 1
EndSplineSet
EndChar

StartChar: mu
Encoding: 181 181 117
Width: 605
VWidth: 0
Flags: HMW
LayerCount: 2
Fore
SplineSet
300 460 m 1
 255 220 l 2
 248 182 258 154 298 154 c 0
 333 154 352 177 360 220 c 2
 405 460 l 1
 590 460 l 1
 515 0 l 1
 320 0 l 1
 328 47 l 1
 310 17 285 0 260 0 c 0
 242 0 227 2 206 20 c 1
 150 -320 l 1
 -35 -320 l 1
 100 460 l 1
 300 460 l 1
EndSplineSet
EndChar

StartChar: paragraph
Encoding: 182 182 118
Width: 706
VWidth: 0
Flags: HMW
LayerCount: 2
Fore
SplineSet
297 271 m 1
 178 279 94 358 112 486 c 0
 132 622 242 700 370 700 c 2
 742 700 l 1
 585 -220 l 1
 416 -220 l 1
 556 590 l 1
 520 590 l 1
 381 -220 l 1
 213 -220 l 1
 297 271 l 1
EndSplineSet
EndChar

StartChar: periodcentered
Encoding: 183 183 119
Width: 326
VWidth: 0
Flags: HMW
LayerCount: 2
Fore
SplineSet
68 286 m 0
 76 348 134 400 200 400 c 0
 267 400 308 345 300 284 c 0
 292 222 236 170 170 170 c 0
 103 170 60 225 68 286 c 0
EndSplineSet
EndChar

StartChar: uni00B9
Encoding: 185 185 120
Width: 475
VWidth: 0
Flags: HMW
LayerCount: 2
Fore
SplineSet
182 548 m 1
 202 660 l 1
 444 704 l 1
 370 274 l 1
 244 274 l 1
 295 572 l 1
 182 548 l 1
EndSplineSet
EndChar

StartChar: cedilla
Encoding: 184 184 121
Width: 407
VWidth: 0
Flags: HMW
LayerCount: 2
Fore
SplineSet
152 78 m 1
 297 72 l 1
 172 -56 l 1
 187 -52 203 -50 220 -50 c 0
 272 -52 316 -98 308 -163 c 0
 298 -239 219 -278 150 -280 c 0
 87 -282 34 -267 -21 -238 c 1
 41 -155 l 1
 67 -171 104 -180 126 -180 c 0
 152 -180 189 -170 191 -146 c 0
 193 -122 155 -118 135 -118 c 0
 113 -117 73 -122 35 -132 c 1
 152 78 l 1
EndSplineSet
EndChar

StartChar: questiondown
Encoding: 191 191 122
Width: 649
VWidth: 0
Flags: HMW
LayerCount: 2
Fore
SplineSet
246 200 m 0
 240 158 270 137 319 136 c 0
 383 134 450 173 496 224 c 1
 604 111 l 1
 515 30 413 -25 293 -25 c 0
 162 -25 34 58 54 200 c 0
 72 325 188 389 297 418 c 1
 312 480 l 1
 473 480 l 1
 463 300 l 1
 430 300 l 2
 338 298 258 254 246 200 c 0
535 629 m 0
 527 575 469 530 406 530 c 0
 343 530 296 575 304 631 c 0
 312 685 369 730 432 730 c 0
 495 730 543 685 535 629 c 0
EndSplineSet
EndChar

StartChar: multiply
Encoding: 215 215 123
Width: 578
VWidth: 0
Flags: HMW
LayerCount: 2
Fore
SplineSet
122 -8 m 1
 26 113 l 1
 198 259 l 1
 76 406 l 1
 204 519 l 1
 321 368 l 1
 490 518 l 1
 586 397 l 1
 414 251 l 1
 536 104 l 1
 407 -9 l 1
 290 142 l 1
 122 -8 l 1
EndSplineSet
EndChar

StartChar: Oslash
Encoding: 216 216 124
Width: 766
VWidth: 0
Flags: HMW
LayerCount: 2
Fore
SplineSet
289 350 m 0
 275 259 307 179 405 178 c 0
 504 176 575 252 592 350 c 0
 606 441 574 521 476 522 c 0
 377 524 306 448 289 350 c 0
60 350 m 0
 92 565 275 720 497 720 c 0
 713 720 850 558 820 350 c 0
 788 135 604 -30 382 -30 c 0
 164 -30 30 142 60 350 c 0
780 760 m 1
 852 695 l 1
 95 -60 l 1
 25 0 l 1
 780 760 l 1
EndSplineSet
EndChar

StartChar: Thorn
Encoding: 222 222 125
Width: 630
VWidth: 0
Flags: HMW
LayerCount: 2
Fore
SplineSet
168 700 m 1
 352 700 l 1
 232 0 l 1
 48 0 l 1
 168 700 l 1
239 425 m 1
 268 590 l 1
 392 590 l 1
 566 588 668 507 644 354 c 0
 620 201 504 122 324 120 c 1
 187 120 l 1
 216 285 l 1
 341 285 l 2
 401 286 448 301 458 356 c 0
 468 410 432 422 376 424 c 2
 239 425 l 1
EndSplineSet
EndChar

StartChar: divide
Encoding: 247 247 126
Width: 630
VWidth: 0
Flags: HMW
LayerCount: 2
Fore
SplineSet
278 616 m 0
 286 678 342 730 408 730 c 0
 475 730 517 675 509 614 c 0
 501 552 444 500 378 500 c 0
 311 500 270 555 278 616 c 0
192 116 m 0
 200 178 257 230 323 230 c 0
 390 230 432 175 424 114 c 0
 416 52 359 0 293 0 c 0
 226 0 184 55 192 116 c 0
24 280 m 1
 54 450 l 1
 678 450 l 1
 648 280 l 1
 24 280 l 1
EndSplineSet
EndChar

StartChar: oslash
Encoding: 248 248 127
Width: 529
VWidth: 0
Flags: HMW
LayerCount: 2
Fore
SplineSet
40 230 m 0
 62 382 194 470 346 470 c 0
 494 470 603 380 582 230 c 0
 560 78 428 -10 276 -10 c 0
 128 -10 19 80 40 230 c 0
218 230 m 0
 210 175 239 137 290 136 c 0
 342 134 396 172 405 230 c 0
 413 278 382 322 332 324 c 0
 280 326 228 282 218 230 c 0
506 510 m 1
 568 466 l 1
 104 -54 l 1
 42 -12 l 1
 506 510 l 1
EndSplineSet
EndChar

StartChar: circumflex
Encoding: 710 710 128
Width: 465
VWidth: 0
Flags: HMW
LayerCount: 2
Fore
SplineSet
316 618 m 1
 225 540 l 1
 100 634 l 1
 332 770 l 1
 526 626 l 1
 380 539 l 1
 316 618 l 1
EndSplineSet
EndChar

StartChar: ogonek
Encoding: 731 731 129
Width: 252
VWidth: 0
Flags: HMW
LayerCount: 2
Fore
SplineSet
154 -100 m 1
 176 -182 l 1
 152 -203 120 -220 68 -220 c 0
 12 -219 -37 -183 -31 -119 c 0
 -23 -46 60 -8 126 25 c 1
 167 0 l 1
 125 -28 88 -56 82 -90 c 0
 80 -104 85 -117 102 -119 c 0
 118 -121 140 -110 154 -100 c 1
EndSplineSet
EndChar

StartChar: tilde
Encoding: 732 732 130
Width: 514
VWidth: 0
Flags: HMW
LayerCount: 2
Fore
SplineSet
139 646 m 1
 160 695 206 748 276 746 c 0
 332 745 356 691 408 693 c 0
 440 694 464 721 486 748 c 1
 560 654 l 1
 532 614 470 560 404 562 c 0
 354 564 316 622 266 618 c 0
 234 616 221 586 213 568 c 1
 139 646 l 1
EndSplineSet
EndChar

StartChar: ring
Encoding: 730 730 131
Width: 347
VWidth: 0
Flags: HMW
LayerCount: 2
Fore
SplineSet
140 761 m 0
 150 833 216 884 292 884 c 0
 368 884 422 831 412 759 c 0
 402 687 335 636 259 636 c 0
 183 636 130 689 140 761 c 0
234 759 m 0
 232 737 242 717 264 716 c 0
 288 715 314 737 318 761 c 0
 320 783 308 803 286 804 c 0
 262 805 238 783 234 759 c 0
EndSplineSet
EndChar

StartChar: dotaccent
Encoding: 729 729 132
Width: 291
VWidth: 0
Flags: HMW
LayerCount: 2
Fore
SplineSet
154 828 m 0
 162 884 215 924 272 924 c 0
 330 924 374 883 366 826 c 0
 358 770 304 730 247 730 c 0
 189 730 146 771 154 828 c 0
EndSplineSet
EndChar

StartChar: uni2010
Encoding: 8208 8208 133
Width: 223
VWidth: 0
Flags: HMW
LayerCount: 2
Fore
SplineSet
2 155 m 1
 31 320 l 1
 248 320 l 1
 219 155 l 1
 2 155 l 1
EndSplineSet
EndChar

StartChar: endash
Encoding: 8211 8211 134
Width: 786
VWidth: 0
Flags: HMW
LayerCount: 2
Fore
SplineSet
65 155 m 1
 94 320 l 1
 738 320 l 1
 709 155 l 1
 65 155 l 1
EndSplineSet
EndChar

StartChar: figuredash
Encoding: 8210 8210 135
Width: 630
VWidth: 0
Flags: HMW
LayerCount: 2
Fore
SplineSet
65 155 m 1
 94 320 l 1
 578 320 l 1
 549 155 l 1
 65 155 l 1
EndSplineSet
EndChar

StartChar: emdash
Encoding: 8212 8212 136
Width: 941
VWidth: 0
Flags: HMW
LayerCount: 2
Fore
SplineSet
65 155 m 1
 94 320 l 1
 898 320 l 1
 869 155 l 1
 65 155 l 1
EndSplineSet
EndChar

StartChar: minus
Encoding: 8722 8722 137
Width: 577
VWidth: 0
Flags: HMW
LayerCount: 2
Fore
SplineSet
46 155 m 1
 74 320 l 1
 558 320 l 1
 530 155 l 1
 46 155 l 1
EndSplineSet
EndChar

StartChar: quoteright
Encoding: 8217 8217 138
Width: 354
VWidth: 0
Flags: HMW
LayerCount: 2
Fore
SplineSet
187 700 m 1
 383 700 l 1
 234 430 l 1
 92 430 l 1
 187 700 l 1
EndSplineSet
EndChar

StartChar: quoteleft
Encoding: 8216 8216 139
Width: 354
VWidth: 0
Flags: HMW
LayerCount: 2
Fore
SplineSet
306 430 m 1
 110 430 l 1
 259 700 l 1
 402 700 l 1
 306 430 l 1
EndSplineSet
EndChar

StartChar: quotesinglbase
Encoding: 8218 8218 140
Width: 354
VWidth: 0
Flags: HMW
LayerCount: 2
Fore
SplineSet
91 80 m 1
 286 80 l 1
 138 -190 l 1
 -4 -190 l 1
 91 80 l 1
EndSplineSet
EndChar

StartChar: quotedblleft
Encoding: 8220 8220 141
Width: 596
VWidth: 0
Flags: HMW
LayerCount: 2
Fore
SplineSet
306 430 m 1
 110 430 l 1
 259 700 l 1
 402 700 l 1
 306 430 l 1
548 430 m 1
 352 430 l 1
 502 700 l 1
 644 700 l 1
 548 430 l 1
EndSplineSet
EndChar

StartChar: quotedblright
Encoding: 8221 8221 142
Width: 596
VWidth: 0
Flags: HMW
LayerCount: 2
Fore
SplineSet
187 700 m 1
 383 700 l 1
 234 430 l 1
 92 430 l 1
 187 700 l 1
430 700 m 1
 626 700 l 1
 476 430 l 1
 334 430 l 1
 430 700 l 1
EndSplineSet
EndChar

StartChar: perthousand
Encoding: 8240 8240 143
Width: 1476
VWidth: 0
Flags: HMW
LayerCount: 2
Fore
SplineSet
1059 176 m 0
 1074 284 1177 376 1291 376 c 0
 1403 376 1480 282 1466 176 c 0
 1451 68 1348 -24 1234 -24 c 0
 1122 -24 1045 70 1059 176 c 0
1213 174 m 0
 1211 152 1227 130 1251 128 c 0
 1277 126 1309 154 1312 178 c 0
 1314 200 1298 222 1274 224 c 0
 1248 226 1216 198 1213 174 c 0
76 526 m 0
 91 634 193 724 307 724 c 0
 419 724 496 630 482 524 c 0
 467 416 364 326 250 326 c 0
 138 326 62 420 76 526 c 0
229 524 m 0
 227 502 244 478 268 476 c 0
 294 474 325 502 328 526 c 0
 330 548 314 572 290 574 c 0
 264 576 232 548 229 524 c 0
574 176 m 0
 589 284 692 376 806 376 c 0
 918 376 994 282 980 176 c 0
 965 68 863 -24 749 -24 c 0
 637 -24 560 70 574 176 c 0
728 174 m 0
 726 152 742 130 766 128 c 0
 792 126 824 154 827 178 c 0
 829 200 813 222 789 224 c 0
 763 226 731 198 728 174 c 0
770 700 m 1
 978 700 l 1
 286 0 l 1
 78 0 l 1
 770 700 l 1
EndSplineSet
EndChar

StartChar: guilsinglleft
Encoding: 8249 8249 144
Width: 339
VWidth: 0
Flags: HMW
LayerCount: 2
Fore
SplineSet
171 255 m 1
 284 61 l 1
 158 -12 l 1
 36 260 l 1
 242 520 l 1
 350 440 l 1
 171 255 l 1
EndSplineSet
EndChar

StartChar: guilsinglright
Encoding: 8250 8250 145
Width: 339
VWidth: 0
Flags: HMW
LayerCount: 2
Fore
SplineSet
201 255 m 1
 88 449 l 1
 214 522 l 1
 336 250 l 1
 130 -10 l 1
 22 70 l 1
 201 255 l 1
EndSplineSet
EndChar

StartChar: uni2031
Encoding: 8241 8241 146
Width: 1961
VWidth: 0
Flags: HMW
LayerCount: 2
Fore
SplineSet
1544 176 m 0
 1559 284 1662 376 1776 376 c 0
 1888 376 1965 282 1951 176 c 0
 1936 68 1834 -24 1720 -24 c 0
 1608 -24 1530 70 1544 176 c 0
1698 174 m 0
 1696 152 1712 130 1736 128 c 0
 1762 126 1795 154 1798 178 c 0
 1800 200 1784 222 1760 224 c 0
 1734 226 1701 198 1698 174 c 0
1059 176 m 0
 1074 284 1177 376 1291 376 c 0
 1403 376 1480 282 1466 176 c 0
 1451 68 1348 -24 1234 -24 c 0
 1122 -24 1045 70 1059 176 c 0
1213 174 m 0
 1211 152 1227 130 1251 128 c 0
 1277 126 1309 154 1312 178 c 0
 1314 200 1298 222 1274 224 c 0
 1248 226 1216 198 1213 174 c 0
76 526 m 0
 91 634 193 724 307 724 c 0
 419 724 496 630 482 524 c 0
 467 416 364 326 250 326 c 0
 138 326 62 420 76 526 c 0
229 524 m 0
 227 502 244 478 268 476 c 0
 294 474 325 502 328 526 c 0
 330 548 314 572 290 574 c 0
 264 576 232 548 229 524 c 0
574 176 m 0
 589 284 692 376 806 376 c 0
 918 376 994 282 980 176 c 0
 965 68 863 -24 749 -24 c 0
 637 -24 560 70 574 176 c 0
728 174 m 0
 726 152 742 130 766 128 c 0
 792 126 824 154 827 178 c 0
 829 200 813 222 789 224 c 0
 763 226 731 198 728 174 c 0
770 700 m 1
 978 700 l 1
 286 0 l 1
 78 0 l 1
 770 700 l 1
EndSplineSet
EndChar

StartChar: uni203D
Encoding: 8253 8253 147
Width: 649
VWidth: 0
Flags: HMW
LayerCount: 2
Fore
SplineSet
484 470 m 0
 496 533 450 564 384 564 c 0
 320 565 259 535 219 476 c 1
 110 589 l 1
 175 664 295 723 419 723 c 0
 549 723 680 642 660 500 c 0
 636 336 448 274 316 270 c 1
 328 350 l 1
 393 356 470 396 484 470 c 0
276 500 m 1
 446 500 l 1
 366 220 l 1
 258 220 l 1
 276 500 l 1
178 76 m 0
 186 136 246 180 310 180 c 0
 374 180 422 134 414 74 c 0
 406 14 347 -30 283 -30 c 0
 219 -30 170 16 178 76 c 0
EndSplineSet
EndChar

StartChar: Euro
Encoding: 8364 8364 148
Width: 679
VWidth: 0
Flags: HMW
LayerCount: 2
Fore
SplineSet
108 366 m 1
 127 472 l 1
 602 472 l 1
 583 366 l 1
 108 366 l 1
63 228 m 1
 82 334 l 1
 563 334 l 1
 544 228 l 1
 63 228 l 1
330 350 m 0
 318 246 329 154 420 151 c 0
 478 149 534 177 580 211 c 1
 552 16 l 1
 506 -8 456 -25 402 -25 c 0
 196 -25 123 166 148 350 c 0
 176 546 312 726 518 726 c 0
 570 726 618 709 662 684 c 1
 632 488 l 1
 596 526 554 550 500 550 c 0
 408 549 346 465 330 350 c 0
EndSplineSet
EndChar

StartChar: fraction
Encoding: 8260 8260 149
Width: 722
VWidth: 0
Flags: HMW
LayerCount: 2
Fore
SplineSet
650 700 m 1
 810 700 l 1
 186 0 l 1
 26 0 l 1
 650 700 l 1
EndSplineSet
EndChar

StartChar: onequarter
Encoding: 188 188 150
Width: 838
VWidth: 0
Flags: HMW
LayerCount: 2
Fore
SplineSet
707 700 m 1
 828 700 l 1
 204 0 l 1
 82 0 l 1
 707 700 l 1
84 548 m 1
 104 660 l 1
 345 704 l 1
 270 274 l 1
 144 274 l 1
 196 572 l 1
 84 548 l 1
378 70 m 1
 500 158 l 1
 681 159 l 1
 695 180 l 1
 818 180 l 1
 798 69 l 1
 378 70 l 1
524 116 m 1
 374 64 l 1
 684 420 l 1
 795 420 l 1
 722 0 l 1
 584 0 l 1
 600 90 l 1
 618 96 l 1
 644 244 l 1
 524 116 l 1
EndSplineSet
EndChar

StartChar: onehalf
Encoding: 189 189 151
Width: 911
VWidth: 0
Flags: HMW
LayerCount: 2
Fore
SplineSet
707 700 m 1
 828 700 l 1
 204 0 l 1
 82 0 l 1
 707 700 l 1
84 548 m 1
 104 660 l 1
 345 704 l 1
 270 274 l 1
 144 274 l 1
 196 572 l 1
 84 548 l 1
466 2 m 1
 674 185 l 2
 708 217 747 244 753 282 c 0
 755 300 746 319 721 320 c 0
 689 322 669 288 662 260 c 1
 532 261 l 1
 550 352 621 432 735 432 c 0
 830 432 900 368 888 290 c 0
 882 244 849 208 811 180 c 2
 728 122 l 1
 874 122 l 1
 853 2 l 1
 466 2 l 1
EndSplineSet
EndChar

StartChar: threequarters
Encoding: 190 190 152
Width: 887
VWidth: 0
Flags: HMW
LayerCount: 2
Fore
SplineSet
767 700 m 1
 888 700 l 1
 264 0 l 1
 142 0 l 1
 767 700 l 1
222 482 m 1
 230 534 l 1
 265 537 307 552 311 582 c 0
 313 596 301 606 282 606 c 0
 256 606 238 587 230 566 c 1
 109 568 l 1
 127 648 193 707 290 708 c 0
 378 708 450 665 438 589 c 0
 424 501 318 484 222 482 c 1
220 268 m 0
 114 269 61 341 66 427 c 1
 192 426 l 1
 192 392 203 372 233 370 c 0
 257 368 286 384 290 410 c 0
 297 442 262 456 216 458 c 1
 226 518 l 1
 328 516 432 491 418 396 c 0
 406 316 321 267 220 268 c 0
429 70 m 1
 550 158 l 1
 732 159 l 1
 746 180 l 1
 868 180 l 1
 848 69 l 1
 429 70 l 1
575 116 m 1
 424 64 l 1
 734 420 l 1
 846 420 l 1
 772 0 l 1
 635 0 l 1
 650 90 l 1
 669 96 l 1
 694 244 l 1
 575 116 l 1
EndSplineSet
EndChar

StartChar: uni2150
Encoding: 8528 8528 153
Width: 972
VWidth: 0
Flags: HMW
LayerCount: 2
Fore
SplineSet
698 700 m 1
 858 700 l 1
 232 0 l 1
 72 0 l 1
 698 700 l 1
84 548 m 1
 104 660 l 1
 345 704 l 1
 270 274 l 1
 144 274 l 1
 196 572 l 1
 84 548 l 1
616 297 m 1
 638 420 l 1
 1004 420 l 1
 734 0 l 1
 588 0 l 1
 788 296 l 1
 616 297 l 1
EndSplineSet
EndChar

StartChar: uni2151
Encoding: 8529 8529 154
Width: 916
VWidth: 0
Flags: HMW
LayerCount: 2
Fore
SplineSet
688 700 m 1
 848 700 l 1
 223 0 l 1
 63 0 l 1
 688 700 l 1
84 548 m 1
 104 660 l 1
 345 704 l 1
 270 274 l 1
 144 274 l 1
 196 572 l 1
 84 548 l 1
782 270 m 0
 786 298 770 320 741 322 c 0
 711 324 677 298 673 268 c 0
 669 240 687 216 716 214 c 0
 746 212 778 240 782 270 c 0
704 6 m 1
 531 6 l 1
 691 142 l 1
 727 158 l 1
 703 140 684 133 656 133 c 0
 589 133 536 192 544 270 c 0
 557 376 650 434 750 434 c 0
 849 434 926 373 912 268 c 0
 904 215 868 173 831 134 c 2
 704 6 l 1
EndSplineSet
EndChar

StartChar: uni2152
Encoding: 8530 8530 155
Width: 1251
VWidth: 0
Flags: HMW
LayerCount: 2
Fore
SplineSet
688 700 m 1
 848 700 l 1
 223 0 l 1
 63 0 l 1
 688 700 l 1
84 548 m 1
 104 660 l 1
 345 704 l 1
 270 274 l 1
 144 274 l 1
 196 572 l 1
 84 548 l 1
588 274 m 1
 608 387 l 1
 850 432 l 1
 775 1 l 1
 649 1 l 1
 700 299 l 1
 588 274 l 1
988 210 m 0
 983 164 984 105 1024 102 c 0
 1066 99 1097 158 1104 210 c 0
 1109 256 1109 315 1069 318 c 0
 1027 321 995 262 988 210 c 0
864 210 m 0
 880 335 962 429 1078 429 c 0
 1199 429 1243 331 1228 210 c 0
 1212 84 1134 -9 1014 -9 c 0
 897 -9 849 90 864 210 c 0
EndSplineSet
EndChar

StartChar: onethird
Encoding: 8531 8531 156
Width: 917
VWidth: 0
Flags: HMW
LayerCount: 2
Fore
SplineSet
686 700 m 1
 846 700 l 1
 222 0 l 1
 62 0 l 1
 686 700 l 1
84 548 m 1
 104 660 l 1
 345 704 l 1
 270 274 l 1
 144 274 l 1
 196 572 l 1
 84 548 l 1
694 202 m 1
 702 254 l 1
 737 257 778 272 782 302 c 0
 784 316 773 326 754 326 c 0
 728 326 710 307 702 286 c 1
 580 288 l 1
 598 368 665 427 762 428 c 0
 850 428 922 385 910 309 c 0
 896 221 790 204 694 202 c 1
692 -12 m 0
 586 -11 533 61 538 147 c 1
 663 146 l 1
 663 112 674 92 704 90 c 0
 728 88 758 104 762 130 c 0
 769 162 734 176 688 178 c 1
 697 238 l 1
 799 236 903 211 889 116 c 0
 877 36 793 -13 692 -12 c 0
EndSplineSet
EndChar

StartChar: twothirds
Encoding: 8532 8532 157
Width: 1050
VWidth: 0
Flags: HMW
LayerCount: 2
Fore
SplineSet
840 700 m 1
 1000 700 l 1
 375 0 l 1
 215 0 l 1
 840 700 l 1
44 282 m 1
 252 465 l 2
 286 497 326 524 332 562 c 0
 334 580 325 599 300 600 c 0
 268 602 247 568 240 540 c 1
 112 541 l 1
 130 632 200 712 314 712 c 0
 409 712 478 648 466 570 c 0
 460 524 428 488 390 460 c 2
 307 402 l 1
 453 402 l 1
 432 282 l 1
 44 282 l 1
826 202 m 1
 834 254 l 1
 869 257 912 272 916 302 c 0
 918 316 905 326 886 326 c 0
 860 326 843 307 835 286 c 1
 714 288 l 1
 732 368 797 427 894 428 c 0
 982 428 1055 385 1043 309 c 0
 1029 221 922 204 826 202 c 1
824 -12 m 0
 718 -11 665 61 670 147 c 1
 796 146 l 1
 796 112 808 92 838 90 c 0
 862 88 891 104 895 130 c 0
 902 162 866 176 820 178 c 1
 830 238 l 1
 932 236 1036 211 1022 116 c 0
 1010 36 925 -13 824 -12 c 0
EndSplineSet
EndChar

StartChar: uni2155
Encoding: 8533 8533 158
Width: 906
VWidth: 0
Flags: HMW
LayerCount: 2
Fore
SplineSet
688 700 m 1
 848 700 l 1
 223 0 l 1
 63 0 l 1
 688 700 l 1
84 548 m 1
 104 660 l 1
 345 704 l 1
 270 274 l 1
 144 274 l 1
 196 572 l 1
 84 548 l 1
884 130 m 0
 871 34 771 -9 687 -10 c 0
 619 -11 563 4 513 24 c 1
 565 139 l 1
 601 119 634 109 662 109 c 0
 697 109 744 118 746 150 c 0
 748 179 710 184 684 184 c 0
 648 186 599 178 556 166 c 1
 652 222 l 1
 688 251 729 266 776 265 c 0
 844 263 894 208 884 130 c 0
736 304 m 1
 682 211 l 1
 550 160 l 1
 655 418 l 1
 922 418 l 1
 902 304 l 1
 736 304 l 1
EndSplineSet
EndChar

StartChar: uni2156
Encoding: 8534 8534 159
Width: 1053
VWidth: 0
Flags: HMW
LayerCount: 2
Fore
SplineSet
840 700 m 1
 1000 700 l 1
 375 0 l 1
 215 0 l 1
 840 700 l 1
44 282 m 1
 252 465 l 2
 286 497 326 524 332 562 c 0
 334 580 325 599 300 600 c 0
 268 602 247 568 240 540 c 1
 112 541 l 1
 130 632 200 712 314 712 c 0
 409 712 478 648 466 570 c 0
 460 524 428 488 390 460 c 2
 307 402 l 1
 453 402 l 1
 432 282 l 1
 44 282 l 1
1018 130 m 0
 1005 34 904 -9 820 -10 c 0
 752 -11 696 4 646 24 c 1
 698 139 l 1
 734 119 768 109 796 109 c 0
 831 109 876 118 878 150 c 0
 880 179 843 184 817 184 c 0
 781 186 732 178 689 166 c 1
 786 222 l 1
 822 251 861 266 908 265 c 0
 976 263 1028 208 1018 130 c 0
868 304 m 1
 815 211 l 1
 683 160 l 1
 788 418 l 1
 1054 418 l 1
 1034 304 l 1
 868 304 l 1
EndSplineSet
EndChar

StartChar: uni2157
Encoding: 8535 8535 160
Width: 961
VWidth: 0
Flags: HMW
LayerCount: 2
Fore
SplineSet
752 700 m 1
 912 700 l 1
 288 0 l 1
 128 0 l 1
 752 700 l 1
218 482 m 1
 226 534 l 1
 261 537 302 552 306 582 c 0
 308 596 296 606 277 606 c 0
 251 606 234 587 226 566 c 1
 104 568 l 1
 122 648 189 707 286 708 c 0
 374 708 446 665 434 589 c 0
 420 501 314 484 218 482 c 1
216 268 m 0
 110 269 56 341 61 427 c 1
 187 426 l 1
 187 392 198 372 228 370 c 0
 252 368 282 384 286 410 c 0
 293 442 257 456 211 458 c 1
 221 518 l 1
 323 516 426 491 412 396 c 0
 400 316 317 267 216 268 c 0
920 130 m 0
 907 34 807 -9 723 -10 c 0
 655 -11 599 4 549 24 c 1
 601 139 l 1
 637 119 670 109 698 109 c 0
 733 109 780 118 782 150 c 0
 784 179 746 184 720 184 c 0
 684 186 635 178 592 166 c 1
 688 222 l 1
 724 251 765 266 812 265 c 0
 880 263 930 208 920 130 c 0
772 304 m 1
 718 211 l 1
 586 160 l 1
 691 418 l 1
 958 418 l 1
 938 304 l 1
 772 304 l 1
EndSplineSet
EndChar

StartChar: uni2158
Encoding: 8536 8536 161
Width: 1073
VWidth: 0
Flags: HMW
LayerCount: 2
Fore
SplineSet
825 698 m 1
 985 698 l 1
 360 -0 l 1
 200 -0 l 1
 825 698 l 1
43 350 m 1
 164 438 l 1
 346 439 l 1
 360 460 l 1
 482 460 l 1
 462 349 l 1
 43 350 l 1
189 396 m 1
 38 344 l 1
 348 700 l 1
 460 700 l 1
 386 280 l 1
 249 280 l 1
 264 370 l 1
 283 376 l 1
 308 524 l 1
 189 396 l 1
1042 128 m 0
 1029 32 928 -11 844 -12 c 0
 776 -13 720 4 670 24 c 1
 722 138 l 1
 758 118 792 108 820 108 c 0
 855 108 900 116 902 148 c 0
 904 177 867 183 841 183 c 0
 805 185 757 176 714 164 c 1
 810 220 l 1
 846 249 885 265 932 264 c 0
 1000 262 1052 206 1042 128 c 0
892 302 m 1
 839 210 l 1
 707 160 l 1
 812 416 l 1
 1079 417 l 1
 1058 303 l 1
 892 302 l 1
EndSplineSet
EndChar

StartChar: uni2159
Encoding: 8537 8537 162
Width: 925
VWidth: 0
Flags: HMW
LayerCount: 2
Fore
SplineSet
716 700 m 1
 876 700 l 1
 252 0 l 1
 92 0 l 1
 716 700 l 1
84 548 m 1
 104 660 l 1
 345 704 l 1
 270 274 l 1
 144 274 l 1
 196 572 l 1
 84 548 l 1
658 150 m 0
 654 122 671 100 700 98 c 0
 730 96 763 122 767 152 c 0
 771 180 755 204 726 206 c 0
 696 208 662 180 658 150 c 0
736 414 m 1
 910 414 l 1
 750 278 l 1
 714 262 l 1
 738 279 756 287 784 287 c 0
 851 289 904 227 896 150 c 0
 884 44 790 -14 690 -14 c 0
 591 -14 515 47 529 152 c 0
 537 205 572 247 609 286 c 2
 736 414 l 1
EndSplineSet
EndChar

StartChar: uni215A
Encoding: 8538 8538 163
Width: 947
VWidth: 0
Flags: HMW
LayerCount: 2
Fore
SplineSet
767 700 m 1
 927 700 l 1
 302 0 l 1
 142 0 l 1
 767 700 l 1
424 410 m 0
 411 314 312 271 228 270 c 0
 160 269 104 284 54 304 c 1
 106 419 l 1
 142 399 175 389 203 389 c 0
 238 389 284 398 286 430 c 0
 288 459 250 464 224 464 c 0
 188 466 139 458 96 446 c 1
 193 502 l 1
 229 531 269 546 316 545 c 0
 384 543 434 488 424 410 c 0
276 584 m 1
 222 491 l 1
 90 440 l 1
 195 698 l 1
 462 698 l 1
 442 584 l 1
 276 584 l 1
679 150 m 0
 675 122 693 100 722 98 c 0
 752 96 784 122 788 152 c 0
 792 180 776 204 747 206 c 0
 717 208 683 180 679 150 c 0
758 414 m 1
 930 414 l 1
 772 278 l 1
 736 262 l 1
 760 279 777 287 805 287 c 0
 872 289 926 227 918 150 c 0
 906 44 812 -14 712 -14 c 0
 613 -14 536 47 550 152 c 0
 558 205 593 247 630 286 c 2
 758 414 l 1
EndSplineSet
EndChar

StartChar: oneeighth
Encoding: 8539 8539 164
Width: 941
VWidth: 0
Flags: HMW
LayerCount: 2
Fore
SplineSet
716 700 m 1
 876 700 l 1
 252 0 l 1
 92 0 l 1
 716 700 l 1
84 548 m 1
 104 660 l 1
 345 704 l 1
 270 274 l 1
 144 274 l 1
 196 572 l 1
 84 548 l 1
616 320 m 0
 626 396 706 432 784 432 c 0
 859 432 937 396 926 318 c 0
 916 240 826 202 756 202 c 0
 688 202 606 240 616 320 c 0
736 306 m 0
 734 290 742 271 760 270 c 0
 780 269 800 290 802 308 c 0
 804 325 796 341 778 342 c 0
 758 343 739 324 736 306 c 0
566 115 m 0
 577 203 678 240 752 240 c 0
 823 240 917 203 905 113 c 0
 894 31 802 -12 720 -12 c 0
 640 -12 554 31 566 115 c 0
700 134 m 0
 697 113 707 94 729 93 c 0
 751 92 775 113 778 136 c 0
 780 154 769 173 749 174 c 0
 727 175 704 154 700 134 c 0
EndSplineSet
EndChar

StartChar: threeeighths
Encoding: 8540 8540 165
Width: 986
VWidth: 0
Flags: HMW
LayerCount: 2
Fore
SplineSet
762 700 m 1
 922 700 l 1
 298 0 l 1
 138 0 l 1
 762 700 l 1
218 482 m 1
 226 534 l 1
 261 537 302 552 306 582 c 0
 308 596 296 606 277 606 c 0
 251 606 234 587 226 566 c 1
 104 568 l 1
 122 648 189 707 286 708 c 0
 374 708 446 665 434 589 c 0
 420 501 314 484 218 482 c 1
216 268 m 0
 110 269 56 341 61 427 c 1
 187 426 l 1
 187 392 198 372 228 370 c 0
 252 368 282 384 286 410 c 0
 293 442 257 456 211 458 c 1
 221 518 l 1
 323 516 426 491 412 396 c 0
 400 316 317 267 216 268 c 0
662 320 m 0
 672 396 752 432 830 432 c 0
 905 432 982 396 971 318 c 0
 961 240 872 202 802 202 c 0
 734 202 652 240 662 320 c 0
782 306 m 0
 780 290 787 271 805 270 c 0
 825 269 845 290 847 308 c 0
 849 325 842 341 824 342 c 0
 804 343 785 324 782 306 c 0
612 115 m 0
 623 203 724 240 798 240 c 0
 869 240 962 203 950 113 c 0
 939 31 847 -12 765 -12 c 0
 685 -12 600 31 612 115 c 0
746 134 m 0
 743 113 752 94 774 93 c 0
 796 92 821 113 824 136 c 0
 826 154 814 173 794 174 c 0
 772 175 750 154 746 134 c 0
EndSplineSet
EndChar

StartChar: fiveeighths
Encoding: 8541 8541 166
Width: 991
VWidth: 0
Flags: HMW
LayerCount: 2
Fore
SplineSet
767 700 m 1
 927 700 l 1
 302 0 l 1
 142 0 l 1
 767 700 l 1
415 410 m 0
 402 314 302 271 218 270 c 0
 150 269 94 284 44 304 c 1
 96 419 l 1
 132 399 165 389 193 389 c 0
 228 389 274 398 276 430 c 0
 278 459 240 464 214 464 c 0
 178 466 130 458 87 446 c 1
 183 502 l 1
 219 531 259 546 306 545 c 0
 374 543 425 488 415 410 c 0
266 584 m 1
 212 491 l 1
 80 440 l 1
 186 698 l 1
 452 698 l 1
 432 584 l 1
 266 584 l 1
666 320 m 0
 676 396 757 432 835 432 c 0
 910 432 987 396 976 318 c 0
 966 240 876 202 806 202 c 0
 738 202 656 240 666 320 c 0
786 306 m 0
 784 290 792 271 810 270 c 0
 830 269 850 290 852 308 c 0
 854 325 846 341 828 342 c 0
 808 343 789 324 786 306 c 0
617 115 m 0
 628 203 728 240 802 240 c 0
 873 240 968 203 956 113 c 0
 945 31 852 -12 770 -12 c 0
 690 -12 605 31 617 115 c 0
751 134 m 0
 748 113 758 94 780 93 c 0
 802 92 825 113 828 136 c 0
 830 154 820 173 800 174 c 0
 778 175 755 154 751 134 c 0
EndSplineSet
EndChar

StartChar: seveneighths
Encoding: 8542 8542 167
Width: 885
VWidth: 0
Flags: HMW
LayerCount: 2
Fore
SplineSet
650 700 m 1
 810 700 l 1
 186 0 l 1
 26 0 l 1
 650 700 l 1
88 577 m 1
 110 700 l 1
 476 700 l 1
 206 280 l 1
 59 280 l 1
 260 576 l 1
 88 577 l 1
560 320 m 0
 570 396 650 432 728 432 c 0
 803 432 880 396 869 318 c 0
 859 240 770 202 700 202 c 0
 632 202 550 240 560 320 c 0
680 306 m 0
 678 290 685 271 703 270 c 0
 723 269 744 290 746 308 c 0
 748 325 740 341 722 342 c 0
 702 343 683 324 680 306 c 0
510 115 m 0
 521 203 622 240 696 240 c 0
 767 240 860 203 848 113 c 0
 837 31 746 -12 664 -12 c 0
 584 -12 498 31 510 115 c 0
644 134 m 0
 641 113 651 94 673 93 c 0
 695 92 719 113 722 136 c 0
 724 154 713 173 693 174 c 0
 671 175 648 154 644 134 c 0
EndSplineSet
EndChar

StartChar: uni2074
Encoding: 8308 8308 168
Width: 437
VWidth: 0
Flags: HMW
LayerCount: 2
Fore
SplineSet
34 350 m 1
 154 438 l 1
 336 439 l 1
 350 460 l 1
 473 460 l 1
 453 349 l 1
 34 350 l 1
180 396 m 1
 28 344 l 1
 338 700 l 1
 450 700 l 1
 377 280 l 1
 240 280 l 1
 255 370 l 1
 273 376 l 1
 298 524 l 1
 180 396 l 1
EndSplineSet
EndChar

StartChar: uni2075
Encoding: 8309 8309 169
Width: 394
VWidth: 0
Flags: HMW
LayerCount: 2
Fore
SplineSet
415 410 m 0
 402 314 302 271 218 270 c 0
 150 269 94 284 44 304 c 1
 96 419 l 1
 132 399 165 389 193 389 c 0
 228 389 274 398 276 430 c 0
 278 459 240 464 214 464 c 0
 178 466 130 458 87 446 c 1
 183 502 l 1
 219 531 259 546 306 545 c 0
 374 543 425 488 415 410 c 0
266 584 m 1
 212 491 l 1
 80 440 l 1
 186 698 l 1
 452 698 l 1
 432 584 l 1
 266 584 l 1
EndSplineSet
EndChar

StartChar: uni2076
Encoding: 8310 8310 170
Width: 394
VWidth: 0
Flags: HMW
LayerCount: 2
Fore
SplineSet
187 430 m 0
 183 402 201 380 230 378 c 0
 260 376 292 402 296 432 c 0
 300 460 285 484 256 486 c 0
 226 488 191 460 187 430 c 0
266 694 m 1
 439 694 l 1
 280 558 l 1
 244 542 l 1
 268 559 285 567 313 567 c 0
 380 569 434 507 426 430 c 0
 414 324 320 266 220 266 c 0
 121 266 44 327 58 432 c 0
 66 485 101 527 138 566 c 2
 266 694 l 1
EndSplineSet
EndChar

StartChar: uni2077
Encoding: 8311 8311 171
Width: 382
VWidth: 0
Flags: HMW
LayerCount: 2
Fore
SplineSet
88 577 m 1
 110 700 l 1
 476 700 l 1
 206 280 l 1
 59 280 l 1
 260 576 l 1
 88 577 l 1
EndSplineSet
EndChar

StartChar: uni2078
Encoding: 8312 8312 172
Width: 374
VWidth: 0
Flags: HMW
LayerCount: 2
Fore
SplineSet
106 600 m 0
 116 676 196 712 274 712 c 0
 349 712 426 676 415 598 c 0
 405 520 316 482 246 482 c 0
 178 482 96 520 106 600 c 0
226 586 m 0
 224 570 231 551 249 550 c 0
 269 549 290 570 292 588 c 0
 294 605 286 621 268 622 c 0
 248 623 229 604 226 586 c 0
56 395 m 0
 67 483 168 520 242 520 c 0
 313 520 406 483 394 393 c 0
 383 311 292 268 210 268 c 0
 130 268 44 311 56 395 c 0
190 414 m 0
 187 393 197 374 219 373 c 0
 241 372 265 393 268 416 c 0
 270 434 259 453 239 454 c 0
 217 455 194 434 190 414 c 0
EndSplineSet
EndChar

StartChar: uni2079
Encoding: 8313 8313 173
Width: 389
VWidth: 0
Flags: HMW
LayerCount: 2
Fore
SplineSet
315 550 m 0
 319 578 303 600 274 602 c 0
 244 604 210 578 206 548 c 0
 202 520 219 496 248 494 c 0
 278 492 311 520 315 550 c 0
237 286 m 1
 64 286 l 1
 223 422 l 1
 260 438 l 1
 236 420 217 413 189 413 c 0
 122 413 69 472 77 550 c 0
 90 656 183 714 283 714 c 0
 382 714 458 653 444 548 c 0
 436 495 401 453 364 414 c 2
 237 286 l 1
EndSplineSet
EndChar

StartChar: uni2070
Encoding: 8304 8304 174
Width: 390
VWidth: 0
Flags: HMW
LayerCount: 2
Fore
SplineSet
194 490 m 0
 189 444 189 385 229 382 c 0
 271 379 303 438 310 490 c 0
 315 536 314 595 274 598 c 0
 232 601 201 542 194 490 c 0
70 490 m 0
 86 615 167 709 283 709 c 0
 404 709 449 611 434 490 c 0
 418 364 340 271 220 271 c 0
 103 271 55 370 70 490 c 0
EndSplineSet
EndChar

StartChar: uni2080
Encoding: 8320 8320 175
Width: 390
VWidth: 0
Flags: HMW
LayerCount: 2
Fore
SplineSet
146 210 m 0
 141 164 141 105 181 102 c 0
 223 99 255 158 262 210 c 0
 267 256 266 315 226 318 c 0
 184 321 153 262 146 210 c 0
22 210 m 0
 38 335 120 429 236 429 c 0
 357 429 401 331 386 210 c 0
 370 84 292 -9 172 -9 c 0
 55 -9 7 90 22 210 c 0
EndSplineSet
EndChar

StartChar: uni2084
Encoding: 8324 8324 176
Width: 445
VWidth: 0
Flags: HMW
LayerCount: 2
Fore
SplineSet
-16 70 m 1
 104 158 l 1
 286 159 l 1
 300 180 l 1
 423 180 l 1
 403 69 l 1
 -16 70 l 1
130 116 m 1
 -22 64 l 1
 288 420 l 1
 400 420 l 1
 328 0 l 1
 190 0 l 1
 205 90 l 1
 224 96 l 1
 249 244 l 1
 130 116 l 1
EndSplineSet
EndChar

StartChar: uni2085
Encoding: 8325 8325 177
Width: 407
VWidth: 0
Flags: HMW
LayerCount: 2
Fore
SplineSet
372 130 m 0
 359 34 258 -9 174 -10 c 0
 106 -11 50 4 0 24 c 1
 53 139 l 1
 89 119 122 109 150 109 c 0
 185 109 231 118 233 150 c 0
 235 179 198 184 172 184 c 0
 136 186 87 178 44 166 c 1
 140 222 l 1
 176 251 216 266 263 265 c 0
 331 263 382 208 372 130 c 0
223 304 m 1
 170 211 l 1
 38 160 l 1
 142 418 l 1
 410 418 l 1
 389 304 l 1
 223 304 l 1
EndSplineSet
EndChar

StartChar: uni2086
Encoding: 8326 8326 178
Width: 411
VWidth: 0
Flags: HMW
LayerCount: 2
Fore
SplineSet
145 150 m 0
 141 122 159 100 188 98 c 0
 218 96 251 122 255 152 c 0
 259 180 243 204 214 206 c 0
 184 208 149 180 145 150 c 0
224 414 m 1
 397 414 l 1
 238 278 l 1
 202 262 l 1
 226 279 243 287 271 287 c 0
 338 289 392 227 384 150 c 0
 372 44 278 -14 178 -14 c 0
 79 -14 2 47 16 152 c 0
 24 205 60 247 97 286 c 2
 224 414 l 1
EndSplineSet
EndChar

StartChar: uni2087
Encoding: 8327 8327 179
Width: 390
VWidth: 0
Flags: HMW
LayerCount: 2
Fore
SplineSet
46 297 m 1
 68 420 l 1
 434 420 l 1
 164 0 l 1
 17 0 l 1
 218 296 l 1
 46 297 l 1
EndSplineSet
EndChar

StartChar: uni2088
Encoding: 8328 8328 180
Width: 384
VWidth: 0
Flags: HMW
LayerCount: 2
Fore
SplineSet
65 320 m 0
 75 396 156 432 234 432 c 0
 309 432 385 396 374 318 c 0
 364 240 274 202 204 202 c 0
 136 202 55 240 65 320 c 0
184 306 m 0
 182 290 190 271 208 270 c 0
 228 269 248 290 250 308 c 0
 252 325 244 341 226 342 c 0
 206 343 187 324 184 306 c 0
16 115 m 0
 27 203 126 240 200 240 c 0
 271 240 366 203 354 113 c 0
 343 31 250 -12 168 -12 c 0
 88 -12 4 31 16 115 c 0
150 134 m 0
 147 113 156 94 178 93 c 0
 200 92 224 113 227 136 c 0
 229 154 218 173 198 174 c 0
 176 175 154 154 150 134 c 0
EndSplineSet
EndChar

StartChar: uni2089
Encoding: 8329 8329 181
Width: 417
VWidth: 0
Flags: HMW
LayerCount: 2
Fore
SplineSet
280 270 m 0
 284 298 267 320 238 322 c 0
 208 324 174 298 170 268 c 0
 166 240 183 216 212 214 c 0
 242 212 276 240 280 270 c 0
202 6 m 1
 28 6 l 1
 188 142 l 1
 224 158 l 1
 200 140 182 133 154 133 c 0
 87 133 34 192 42 270 c 0
 55 376 148 434 248 434 c 0
 347 434 424 373 410 268 c 0
 402 215 365 173 328 134 c 2
 202 6 l 1
EndSplineSet
EndChar

StartChar: uni2081
Encoding: 8321 8321 182
Width: 377
VWidth: 0
Flags: HMW
LayerCount: 2
Fore
SplineSet
104 274 m 1
 125 387 l 1
 366 432 l 1
 292 1 l 1
 166 1 l 1
 217 299 l 1
 104 274 l 1
EndSplineSet
EndChar

StartChar: uni2082
Encoding: 8322 8322 183
Width: 436
VWidth: 0
Flags: HMW
LayerCount: 2
Fore
SplineSet
-3 2 m 1
 205 185 l 2
 239 217 278 244 284 282 c 0
 286 300 277 319 252 320 c 0
 220 322 199 288 192 260 c 1
 64 261 l 1
 82 352 152 432 266 432 c 0
 361 432 431 368 419 290 c 0
 413 244 380 208 342 180 c 2
 259 122 l 1
 405 122 l 1
 384 2 l 1
 -3 2 l 1
EndSplineSet
EndChar

StartChar: uni2083
Encoding: 8323 8323 184
Width: 395
VWidth: 0
Flags: HMW
LayerCount: 2
Fore
SplineSet
172 202 m 1
 180 254 l 1
 215 257 256 272 260 302 c 0
 262 316 251 326 232 326 c 0
 206 326 188 307 180 286 c 1
 58 288 l 1
 76 368 143 427 240 428 c 0
 328 428 400 385 388 309 c 0
 374 221 268 204 172 202 c 1
170 -12 m 0
 64 -11 10 61 15 147 c 1
 141 146 l 1
 141 112 152 92 182 90 c 0
 206 88 236 104 240 130 c 0
 247 162 211 176 165 178 c 1
 175 238 l 1
 277 236 381 211 367 116 c 0
 355 36 271 -13 170 -12 c 0
EndSplineSet
EndChar

StartChar: Agrave
Encoding: 192 192 185
Width: 756
VWidth: 0
Flags: HMW
LayerCount: 2
Fore
SplineSet
187 90 m 1
 215 248 l 1
 578 248 l 1
 550 90 l 1
 187 90 l 1
420 382 m 1
 302 188 l 1
 311 138 l 1
 214 0 l 1
 -36 0 l 1
 478 752 l 1
 734 0 l 1
 494 0 l 1
 442 132 l 1
 468 189 l 1
 420 382 l 1
342 963 m 1
 483 1020 l 1
 604 856 l 1
 494 810 l 1
 342 963 l 1
EndSplineSet
EndChar

StartChar: Aacute
Encoding: 193 193 186
Width: 756
VWidth: 0
Flags: HMW
LayerCount: 2
Fore
SplineSet
187 90 m 1
 215 248 l 1
 578 248 l 1
 550 90 l 1
 187 90 l 1
420 382 m 1
 302 188 l 1
 311 138 l 1
 214 0 l 1
 -36 0 l 1
 478 752 l 1
 734 0 l 1
 494 0 l 1
 442 132 l 1
 468 189 l 1
 420 382 l 1
686 956 m 1
 490 810 l 1
 385 864 l 1
 554 1019 l 1
 686 956 l 1
EndSplineSet
EndChar

StartChar: Acircumflex
Encoding: 194 194 187
Width: 756
VWidth: 0
Flags: HMW
LayerCount: 2
Fore
SplineSet
187 90 m 1
 215 248 l 1
 578 248 l 1
 550 90 l 1
 187 90 l 1
420 382 m 1
 302 188 l 1
 311 138 l 1
 214 0 l 1
 -36 0 l 1
 478 752 l 1
 734 0 l 1
 494 0 l 1
 442 132 l 1
 468 189 l 1
 420 382 l 1
508 888 m 1
 416 810 l 1
 292 904 l 1
 524 1040 l 1
 718 896 l 1
 571 809 l 1
 508 888 l 1
EndSplineSet
EndChar

StartChar: Atilde
Encoding: 195 195 188
Width: 756
VWidth: 0
Flags: HMW
LayerCount: 2
Fore
SplineSet
187 90 m 1
 215 248 l 1
 578 248 l 1
 550 90 l 1
 187 90 l 1
420 382 m 1
 302 188 l 1
 311 138 l 1
 214 0 l 1
 -36 0 l 1
 478 752 l 1
 734 0 l 1
 494 0 l 1
 442 132 l 1
 468 189 l 1
 420 382 l 1
294 895 m 1
 316 944 362 996 432 994 c 0
 488 993 510 939 562 941 c 0
 594 942 620 969 642 996 c 1
 716 901 l 1
 688 861 624 808 558 810 c 0
 508 812 470 870 421 866 c 0
 389 864 374 834 366 816 c 1
 294 895 l 1
EndSplineSet
EndChar

StartChar: Adieresis
Encoding: 196 196 189
Width: 756
VWidth: 0
Flags: HMW
LayerCount: 2
Fore
SplineSet
187 90 m 1
 215 248 l 1
 578 248 l 1
 550 90 l 1
 187 90 l 1
420 382 m 1
 302 188 l 1
 311 138 l 1
 214 0 l 1
 -36 0 l 1
 478 752 l 1
 734 0 l 1
 494 0 l 1
 442 132 l 1
 468 189 l 1
 420 382 l 1
545 820 m 0
 553 876 607 916 664 916 c 0
 722 916 765 873 757 816 c 0
 749 760 695 720 638 720 c 0
 580 720 537 763 545 820 c 0
217 830 m 0
 225 886 279 926 336 926 c 0
 394 926 437 883 429 826 c 0
 421 770 367 730 310 730 c 0
 252 730 209 773 217 830 c 0
EndSplineSet
EndChar

StartChar: Aring
Encoding: 197 197 190
Width: 756
VWidth: 0
Flags: HMW
LayerCount: 2
Fore
SplineSet
187 90 m 1
 215 248 l 1
 578 248 l 1
 550 90 l 1
 187 90 l 1
420 382 m 1
 302 188 l 1
 311 138 l 1
 214 0 l 1
 -36 0 l 1
 478 752 l 1
 734 0 l 1
 494 0 l 1
 442 132 l 1
 468 189 l 1
 420 382 l 1
352 803 m 0
 362 875 428 926 504 926 c 0
 580 926 634 873 624 801 c 0
 614 729 547 678 471 678 c 0
 395 678 342 731 352 803 c 0
446 801 m 0
 444 779 454 759 476 758 c 0
 500 757 526 779 530 803 c 0
 532 825 520 845 498 846 c 0
 474 847 450 825 446 801 c 0
EndSplineSet
EndChar

StartChar: AE
Encoding: 198 198 191
Width: 1125
VWidth: 0
Flags: HMW
LayerCount: 2
Fore
SplineSet
283 115 m 1
 328 315 l 1
 622 315 l 1
 588 115 l 1
 283 115 l 1
524 700 m 1
 728 658 l 1
 273 0 l 1
 -12 0 l 1
 524 700 l 1
638 0 m 1
 668 175 l 1
 1062 175 l 1
 1032 0 l 1
 638 0 l 1
742 525 m 1
 524 700 l 1
 1152 700 l 1
 1122 525 l 1
 742 525 l 1
684 275 m 1
 714 445 l 1
 1090 445 l 1
 1060 275 l 1
 684 275 l 1
658 700 m 1
 895 700 l 1
 775 0 l 1
 538 0 l 1
 658 700 l 1
EndSplineSet
EndChar

StartChar: Ccedilla
Encoding: 199 199 192
Width: 689
VWidth: 0
Flags: HMW
LayerCount: 2
Fore
SplineSet
298 350 m 0
 282 254 341 190 437 188 c 0
 527 187 592 230 648 272 c 1
 615 47 l 1
 553 9 488 -20 398 -20 c 0
 170 -20 28 137 60 350 c 0
 93 568 278 720 512 720 c 0
 600 720 658 692 714 652 c 1
 680 427 l 1
 639 475 588 512 504 512 c 0
 405 512 316 450 298 350 c 0
310 41 m 1
 454 35 l 1
 330 -92 l 1
 345 -88 361 -87 378 -87 c 0
 430 -89 474 -134 466 -199 c 0
 456 -275 377 -314 308 -316 c 0
 245 -318 191 -303 136 -274 c 1
 199 -191 l 1
 225 -207 262 -217 284 -217 c 0
 310 -217 347 -206 349 -182 c 0
 351 -158 313 -154 293 -154 c 0
 271 -153 230 -158 192 -168 c 1
 310 41 l 1
EndSplineSet
EndChar

StartChar: Egrave
Encoding: 200 200 193
Width: 616
VWidth: 0
Flags: HMW
LayerCount: 2
Fore
SplineSet
186 0 m 1
 217 175 l 1
 563 175 l 1
 532 0 l 1
 186 0 l 1
276 525 m 1
 306 700 l 1
 652 700 l 1
 622 525 l 1
 276 525 l 1
233 275 m 1
 263 445 l 1
 590 445 l 1
 560 275 l 1
 233 275 l 1
159 700 m 1
 366 700 l 1
 246 0 l 1
 39 0 l 1
 159 700 l 1
272 943 m 1
 414 1000 l 1
 534 836 l 1
 424 790 l 1
 272 943 l 1
EndSplineSet
EndChar

StartChar: Eacute
Encoding: 201 201 194
Width: 616
VWidth: 0
Flags: HMW
LayerCount: 2
Fore
SplineSet
186 0 m 1
 217 175 l 1
 563 175 l 1
 532 0 l 1
 186 0 l 1
276 525 m 1
 306 700 l 1
 652 700 l 1
 622 525 l 1
 276 525 l 1
233 275 m 1
 263 445 l 1
 590 445 l 1
 560 275 l 1
 233 275 l 1
159 700 m 1
 366 700 l 1
 246 0 l 1
 39 0 l 1
 159 700 l 1
618 936 m 1
 422 790 l 1
 316 844 l 1
 486 999 l 1
 618 936 l 1
EndSplineSet
EndChar

StartChar: Ecircumflex
Encoding: 202 202 195
Width: 616
VWidth: 0
Flags: HMW
LayerCount: 2
Fore
SplineSet
186 0 m 1
 217 175 l 1
 563 175 l 1
 532 0 l 1
 186 0 l 1
276 525 m 1
 306 700 l 1
 652 700 l 1
 622 525 l 1
 276 525 l 1
233 275 m 1
 263 445 l 1
 590 445 l 1
 560 275 l 1
 233 275 l 1
159 700 m 1
 366 700 l 1
 246 0 l 1
 39 0 l 1
 159 700 l 1
444 894 m 1
 319 800 l 1
 272 843 l 1
 448 980 l 1
 585 838 l 1
 534 800 l 1
 444 894 l 1
EndSplineSet
EndChar

StartChar: Edieresis
Encoding: 203 203 196
Width: 616
VWidth: 0
Flags: HMW
LayerCount: 2
Fore
SplineSet
186 0 m 1
 217 175 l 1
 563 175 l 1
 532 0 l 1
 186 0 l 1
276 525 m 1
 306 700 l 1
 652 700 l 1
 622 525 l 1
 276 525 l 1
233 275 m 1
 263 445 l 1
 590 445 l 1
 560 275 l 1
 233 275 l 1
159 700 m 1
 366 700 l 1
 246 0 l 1
 39 0 l 1
 159 700 l 1
461 880 m 0
 469 936 523 976 580 976 c 0
 638 976 681 933 673 876 c 0
 665 820 611 780 554 780 c 0
 496 780 453 823 461 880 c 0
199 880 m 0
 207 936 261 976 318 976 c 0
 376 976 419 933 411 876 c 0
 403 820 349 780 292 780 c 0
 234 780 191 823 199 880 c 0
EndSplineSet
EndChar

StartChar: Igrave
Encoding: 204 204 197
Width: 354
VWidth: 0
Flags: HMW
LayerCount: 2
Fore
SplineSet
159 700 m 1
 380 700 l 1
 260 0 l 1
 39 0 l 1
 159 700 l 1
126 943 m 1
 268 1000 l 1
 389 836 l 1
 279 790 l 1
 126 943 l 1
EndSplineSet
EndChar

StartChar: Iacute
Encoding: 205 205 198
Width: 354
VWidth: 0
Flags: HMW
LayerCount: 2
Fore
SplineSet
159 700 m 1
 380 700 l 1
 260 0 l 1
 39 0 l 1
 159 700 l 1
472 936 m 1
 276 790 l 1
 171 844 l 1
 340 999 l 1
 472 936 l 1
EndSplineSet
EndChar

StartChar: Icircumflex
Encoding: 206 206 199
Width: 354
VWidth: 0
Flags: HMW
LayerCount: 2
Fore
SplineSet
159 700 m 1
 380 700 l 1
 260 0 l 1
 39 0 l 1
 159 700 l 1
303 876 m 1
 194 790 l 1
 102 858 l 1
 308 996 l 1
 475 852 l 1
 378 790 l 1
 303 876 l 1
EndSplineSet
EndChar

StartChar: Idieresis
Encoding: 207 207 200
Width: 354
VWidth: 0
Flags: HMW
LayerCount: 2
Fore
SplineSet
159 700 m 1
 380 700 l 1
 260 0 l 1
 39 0 l 1
 159 700 l 1
326 880 m 0
 334 936 387 976 444 976 c 0
 502 976 546 933 538 876 c 0
 530 820 476 780 419 780 c 0
 361 780 318 823 326 880 c 0
64 880 m 0
 72 936 125 976 182 976 c 0
 240 976 284 933 276 876 c 0
 268 820 214 780 157 780 c 0
 99 780 56 823 64 880 c 0
EndSplineSet
EndChar

StartChar: Ntilde
Encoding: 209 209 201
Width: 781
VWidth: 0
Flags: HMW
LayerCount: 2
Fore
SplineSet
600 700 m 1
 808 700 l 1
 682 -33 l 1
 301 318 l 1
 246 0 l 1
 39 0 l 1
 164 733 l 1
 545 382 l 1
 600 700 l 1
259 860 m 1
 281 909 327 962 397 960 c 0
 453 959 475 904 527 906 c 0
 559 907 585 934 607 961 c 1
 680 866 l 1
 652 826 588 774 522 776 c 0
 472 778 435 835 386 831 c 0
 354 829 340 799 332 781 c 1
 259 860 l 1
EndSplineSet
EndChar

StartChar: Eth
Encoding: 208 208 202
Width: 742
VWidth: 0
Flags: HMW
LayerCount: 2
Fore
SplineSet
28 298 m 1
 48 413 l 1
 420 413 l 1
 400 298 l 1
 28 298 l 1
159 700 m 1
 384 700 l 1
 264 0 l 1
 39 0 l 1
 159 700 l 1
314 0 m 1
 186 0 l 1
 220 190 l 1
 324 190 l 1
 415 192 503 230 522 350 c 0
 540 466 478 508 390 510 c 2
 273 510 l 1
 306 700 l 1
 421 700 l 1
 645 698 780 560 748 350 c 0
 716 135 545 2 314 0 c 1
EndSplineSet
EndChar

StartChar: Ograve
Encoding: 210 210 203
Width: 815
VWidth: 0
Flags: HMW
LayerCount: 2
Fore
SplineSet
289 350 m 0
 275 262 307 180 405 178 c 0
 503 176 575 256 592 350 c 0
 606 438 576 521 476 522 c 0
 378 523 305 444 289 350 c 0
60 350 m 0
 92 564 279 720 497 720 c 0
 714 720 850 558 820 350 c 0
 788 134 608 -30 382 -30 c 0
 160 -30 30 142 60 350 c 0
382 943 m 1
 523 1000 l 1
 644 836 l 1
 534 790 l 1
 382 943 l 1
EndSplineSet
EndChar

StartChar: Oacute
Encoding: 211 211 204
Width: 815
VWidth: 0
Flags: HMW
LayerCount: 2
Fore
SplineSet
289 350 m 0
 275 262 307 180 405 178 c 0
 503 176 575 256 592 350 c 0
 606 438 576 521 476 522 c 0
 378 523 305 444 289 350 c 0
60 350 m 0
 92 564 279 720 497 720 c 0
 714 720 850 558 820 350 c 0
 788 134 608 -30 382 -30 c 0
 160 -30 30 142 60 350 c 0
726 936 m 1
 530 790 l 1
 425 844 l 1
 594 999 l 1
 726 936 l 1
EndSplineSet
EndChar

StartChar: Ocircumflex
Encoding: 212 212 205
Width: 815
VWidth: 0
Flags: HMW
LayerCount: 2
Fore
SplineSet
289 350 m 0
 275 262 307 180 405 178 c 0
 503 176 575 256 592 350 c 0
 606 438 576 521 476 522 c 0
 378 523 305 444 289 350 c 0
60 350 m 0
 92 564 279 720 497 720 c 0
 714 720 850 558 820 350 c 0
 788 134 608 -30 382 -30 c 0
 160 -30 30 142 60 350 c 0
553 894 m 1
 429 800 l 1
 382 843 l 1
 558 980 l 1
 695 838 l 1
 643 800 l 1
 553 894 l 1
EndSplineSet
EndChar

StartChar: Otilde
Encoding: 213 213 206
Width: 815
VWidth: 0
Flags: HMW
LayerCount: 2
Fore
SplineSet
289 350 m 0
 275 262 307 180 405 178 c 0
 503 176 575 256 592 350 c 0
 606 438 576 521 476 522 c 0
 378 523 305 444 289 350 c 0
60 350 m 0
 92 564 279 720 497 720 c 0
 714 720 850 558 820 350 c 0
 788 134 608 -30 382 -30 c 0
 160 -30 30 142 60 350 c 0
372 865 m 1
 372 909 446 944 482 944 c 0
 534 944 548 897 594 899 c 0
 618 900 638 922 658 946 c 1
 700 900 l 1
 678 866 638 828 590 830 c 0
 544 832 522 877 480 876 c 0
 444 875 429 844 421 826 c 1
 372 865 l 1
EndSplineSet
EndChar

StartChar: Odieresis
Encoding: 214 214 207
Width: 815
VWidth: 0
Flags: HMW
LayerCount: 2
Fore
SplineSet
289 350 m 0
 275 262 307 180 405 178 c 0
 503 176 575 256 592 350 c 0
 606 438 576 521 476 522 c 0
 378 523 305 444 289 350 c 0
60 350 m 0
 92 564 279 720 497 720 c 0
 714 720 850 558 820 350 c 0
 788 134 608 -30 382 -30 c 0
 160 -30 30 142 60 350 c 0
556 880 m 0
 564 936 617 976 674 976 c 0
 732 976 776 933 768 876 c 0
 760 820 706 780 649 780 c 0
 591 780 548 823 556 880 c 0
294 880 m 0
 302 936 355 976 412 976 c 0
 470 976 514 933 506 876 c 0
 498 820 444 780 387 780 c 0
 329 780 286 823 294 880 c 0
EndSplineSet
EndChar

StartChar: Ugrave
Encoding: 217 217 208
Width: 723
VWidth: 0
Flags: HMW
LayerCount: 2
Fore
SplineSet
154 700 m 1
 371 700 l 1
 292 250 l 2
 286 202 299 158 356 156 c 0
 414 154 450 198 460 250 c 1
 538 700 l 1
 755 700 l 1
 676 230 l 2
 647 50 504 -40 334 -40 c 0
 170 -40 50 50 74 230 c 1
 154 700 l 1
320 933 m 1
 462 990 l 1
 582 826 l 1
 472 780 l 1
 320 933 l 1
EndSplineSet
EndChar

StartChar: Uacute
Encoding: 218 218 209
Width: 723
VWidth: 0
Flags: HMW
LayerCount: 2
Fore
SplineSet
154 700 m 1
 371 700 l 1
 292 250 l 2
 286 202 299 158 356 156 c 0
 414 154 450 198 460 250 c 1
 538 700 l 1
 755 700 l 1
 676 230 l 2
 647 50 504 -40 334 -40 c 0
 170 -40 50 50 74 230 c 1
 154 700 l 1
670 926 m 1
 473 780 l 1
 368 834 l 1
 538 989 l 1
 670 926 l 1
EndSplineSet
EndChar

StartChar: Ucircumflex
Encoding: 219 219 210
Width: 723
VWidth: 0
Flags: HMW
LayerCount: 2
Fore
SplineSet
154 700 m 1
 371 700 l 1
 292 250 l 2
 286 202 299 158 356 156 c 0
 414 154 450 198 460 250 c 1
 538 700 l 1
 755 700 l 1
 676 230 l 2
 647 50 504 -40 334 -40 c 0
 170 -40 50 50 74 230 c 1
 154 700 l 1
486 858 m 1
 395 780 l 1
 270 874 l 1
 502 1010 l 1
 696 866 l 1
 550 779 l 1
 486 858 l 1
EndSplineSet
EndChar

StartChar: Udieresis
Encoding: 220 220 211
Width: 723
VWidth: 0
Flags: HMW
LayerCount: 2
Fore
SplineSet
154 700 m 1
 371 700 l 1
 292 250 l 2
 286 202 299 158 356 156 c 0
 414 154 450 198 460 250 c 1
 538 700 l 1
 755 700 l 1
 676 230 l 2
 647 50 504 -40 334 -40 c 0
 170 -40 50 50 74 230 c 1
 154 700 l 1
539 880 m 0
 547 936 601 976 658 976 c 0
 716 976 759 933 751 876 c 0
 743 820 689 780 632 780 c 0
 574 780 531 823 539 880 c 0
218 880 m 0
 226 936 280 976 337 976 c 0
 395 976 438 933 430 876 c 0
 422 820 369 780 312 780 c 0
 254 780 210 823 218 880 c 0
EndSplineSet
EndChar

StartChar: Yacute
Encoding: 221 221 212
Width: 698
VWidth: 0
Flags: HMW
LayerCount: 2
Fore
SplineSet
657 926 m 1
 460 780 l 1
 356 834 l 1
 525 989 l 1
 657 926 l 1
545 700 m 1
 800 700 l 1
 479 270 l 1
 434 0 l 1
 212 0 l 1
 261 279 l 1
 89 700 l 1
 334 700 l 1
 401 478 l 1
 545 700 l 1
EndSplineSet
EndChar

StartChar: agrave
Encoding: 224 224 213
Width: 625
VWidth: 0
Flags: HMW
LayerCount: 2
Fore
SplineSet
438 460 m 1
 631 460 l 1
 552 0 l 1
 359 0 l 1
 438 460 l 1
40 230 m 0
 58 368 165 470 283 470 c 0
 407 470 461 356 445 230 c 0
 427 98 335 -10 213 -10 c 0
 95 -10 24 97 40 230 c 0
242 230 m 0
 236 188 256 142 301 140 c 0
 345 138 390 182 398 230 c 0
 404 275 382 318 340 320 c 0
 294 322 250 276 242 230 c 0
229 684 m 1
 370 742 l 1
 491 578 l 1
 382 531 l 1
 229 684 l 1
EndSplineSet
Substitution2: "alt a" agrave.alt
EndChar

StartChar: aacute
Encoding: 225 225 214
Width: 625
VWidth: 0
Flags: HMW
LayerCount: 2
Fore
SplineSet
438 460 m 1
 631 460 l 1
 552 0 l 1
 359 0 l 1
 438 460 l 1
40 230 m 0
 58 368 165 470 283 470 c 0
 407 470 461 356 445 230 c 0
 427 98 335 -10 213 -10 c 0
 95 -10 24 97 40 230 c 0
242 230 m 0
 236 188 256 142 301 140 c 0
 345 138 390 182 398 230 c 0
 404 275 382 318 340 320 c 0
 294 322 250 276 242 230 c 0
559 678 m 1
 362 532 l 1
 258 584 l 1
 428 740 l 1
 559 678 l 1
EndSplineSet
Substitution2: "alt a" aacute.alt
EndChar

StartChar: acircumflex
Encoding: 226 226 215
Width: 625
VWidth: 0
Flags: HMW
LayerCount: 2
Fore
SplineSet
438 460 m 1
 631 460 l 1
 552 0 l 1
 359 0 l 1
 438 460 l 1
40 230 m 0
 58 368 165 470 283 470 c 0
 407 470 461 356 445 230 c 0
 427 98 335 -10 213 -10 c 0
 95 -10 24 97 40 230 c 0
242 230 m 0
 236 188 256 142 301 140 c 0
 345 138 390 182 398 230 c 0
 404 275 382 318 340 320 c 0
 294 322 250 276 242 230 c 0
404 610 m 1
 314 531 l 1
 188 624 l 1
 421 761 l 1
 616 618 l 1
 468 530 l 1
 404 610 l 1
EndSplineSet
Substitution2: "alt a" acircumflex.alt
EndChar

StartChar: atilde
Encoding: 227 227 216
Width: 625
VWidth: 0
Flags: HMW
LayerCount: 2
Fore
SplineSet
438 460 m 1
 631 460 l 1
 552 0 l 1
 359 0 l 1
 438 460 l 1
40 230 m 0
 58 368 165 470 283 470 c 0
 407 470 461 356 445 230 c 0
 427 98 335 -10 213 -10 c 0
 95 -10 24 97 40 230 c 0
242 230 m 0
 236 188 256 142 301 140 c 0
 345 138 390 182 398 230 c 0
 404 275 382 318 340 320 c 0
 294 322 250 276 242 230 c 0
201 616 m 1
 221 667 267 716 339 716 c 0
 395 716 417 660 469 662 c 0
 501 663 527 690 549 717 c 1
 622 622 l 1
 594 582 530 530 464 532 c 0
 414 534 377 591 328 587 c 0
 296 585 282 555 274 537 c 1
 201 616 l 1
EndSplineSet
Substitution2: "alt a" atilde.alt
EndChar

StartChar: adieresis
Encoding: 228 228 217
Width: 625
VWidth: 0
Flags: HMW
LayerCount: 2
Fore
SplineSet
438 460 m 1
 631 460 l 1
 552 0 l 1
 359 0 l 1
 438 460 l 1
40 230 m 0
 58 368 165 470 283 470 c 0
 407 470 461 356 445 230 c 0
 427 98 335 -10 213 -10 c 0
 95 -10 24 97 40 230 c 0
242 230 m 0
 236 188 256 142 301 140 c 0
 345 138 390 182 398 230 c 0
 404 275 382 318 340 320 c 0
 294 322 250 276 242 230 c 0
418 630 m 0
 426 686 480 726 537 726 c 0
 595 726 638 685 630 628 c 0
 622 572 569 532 512 532 c 0
 454 532 410 573 418 630 c 0
156 630 m 0
 164 686 218 726 275 726 c 0
 333 726 376 685 368 628 c 0
 360 572 307 532 250 532 c 0
 192 532 148 573 156 630 c 0
EndSplineSet
Substitution2: "alt a" adieresis.alt
EndChar

StartChar: aring
Encoding: 229 229 218
Width: 625
VWidth: 0
Flags: HMW
LayerCount: 2
Fore
SplineSet
438 460 m 1
 631 460 l 1
 552 0 l 1
 359 0 l 1
 438 460 l 1
40 230 m 0
 58 368 165 470 283 470 c 0
 407 470 461 356 445 230 c 0
 427 98 335 -10 213 -10 c 0
 95 -10 24 97 40 230 c 0
242 230 m 0
 236 188 256 142 301 140 c 0
 345 138 390 182 398 230 c 0
 404 275 382 318 340 320 c 0
 294 322 250 276 242 230 c 0
262 657 m 0
 272 729 338 780 414 780 c 0
 490 780 544 727 534 655 c 0
 524 583 457 532 381 532 c 0
 305 532 252 585 262 657 c 0
356 655 m 0
 354 633 364 613 386 612 c 0
 410 611 436 633 440 657 c 0
 442 679 430 699 408 700 c 0
 384 701 360 679 356 655 c 0
EndSplineSet
Substitution2: "alt a" aring.alt
EndChar

StartChar: germandbls
Encoding: 223 223 219
Width: 626
VWidth: 0
Flags: HMW
LayerCount: 2
Fore
SplineSet
412 -12 m 0
 364 -12 282 -2 250 11 c 1
 269 160 l 1
 295 147 335 138 363 138 c 0
 409 138 437 165 437 205 c 0
 437 293 322 300 322 372 c 0
 322 447 441 470 441 560 c 0
 441 604 420 626 382 626 c 0
 329 626 299 592 289 528 c 2
 201 -2 l 1
 6 -2 l 1
 95 519 l 2
 123 694 201 799 402 799 c 0
 537 799 643 717 643 602 c 0
 643 486 524 434 524 390 c 0
 524 330 639 343 639 200 c 0
 639 82 535 -12 412 -12 c 0
EndSplineSet
EndChar

StartChar: ae
Encoding: 230 230 220
Width: 939
VWidth: 0
Flags: HMW
LayerCount: 2
Fore
SplineSet
192 -10 m 0
 62 -10 -3 40 12 130 c 0
 26 217 116 275 237 275 c 0
 297 275 350 261 439 220 c 1
 352 220 l 1
 360 272 l 2
 366 312 346 333 298 333 c 0
 254 333 181 316 141 298 c 1
 103 424 l 1
 199 459 273 475 342 475 c 0
 444 475 491 440 488 362 c 1
 474 362 l 1
 532 434 613 470 716 470 c 0
 870 470 940 389 915 239 c 0
 912 220 907 198 905 190 c 1
 540 190 l 1
 562 208 l 1
 558 146 578 120 628 120 c 0
 670 120 714 138 732 165 c 1
 905 137 l 1
 837 37 746 -10 616 -10 c 0
 502 -10 438 26 418 99 c 1
 430 98 l 1
 392 28 308 -10 192 -10 c 0
250 106 m 0
 302 106 338 134 346 182 c 1
 342 144 l 1
 344 179 l 1
 370 152 l 1
 343 170 309 180 275 180 c 0
 235 180 214 167 210 139 c 0
 206 117 218 106 250 106 c 0
565 234 m 1
 556 284 l 1
 738 284 l 1
 709 250 l 1
 713 261 713 260 714 266 c 0
 724 322 706 350 662 350 c 0
 610 350 578 312 565 234 c 1
EndSplineSet
EndChar

StartChar: ccedilla
Encoding: 231 231 221
Width: 488
VWidth: 0
Flags: HMW
LayerCount: 2
Fore
SplineSet
237 230 m 0
 228 176 262 141 315 139 c 0
 363 137 408 161 444 196 c 1
 420 21 l 1
 382 3 341 -10 281 -10 c 0
 129 -10 19 84 40 230 c 0
 62 378 195 470 351 470 c 0
 411 470 449 456 487 440 c 1
 461 264 l 1
 435 302 394 322 356 322 c 0
 302 322 247 281 237 230 c 0
198 61 m 1
 342 55 l 1
 217 -72 l 1
 232 -68 249 -67 266 -67 c 0
 318 -69 360 -114 352 -179 c 0
 342 -254 263 -294 194 -296 c 0
 131 -298 79 -283 24 -254 c 1
 86 -171 l 1
 112 -187 149 -197 171 -197 c 0
 197 -197 234 -186 236 -162 c 0
 238 -138 200 -134 180 -134 c 0
 158 -133 118 -138 80 -148 c 1
 198 61 l 1
EndSplineSet
EndChar

StartChar: egrave
Encoding: 232 232 222
Width: 591
VWidth: 0
Flags: HMW
LayerCount: 2
Fore
SplineSet
138 190 m 1
 153 284 l 1
 376 284 l 1
 374 320 368 348 330 350 c 0
 277 353 248 303 238 250 c 1
 232 230 l 1
 224 168 239 125 287 121 c 0
 330 119 366 138 388 164 c 1
 562 135 l 1
 502 47 414 -10 286 -10 c 0
 116 -10 19 86 40 230 c 0
 42 247 46 263 51 279 c 0
 89 397 196 470 346 470 c 0
 507 470 592 383 574 239 c 0
 572 227 569 208 565 190 c 1
 138 190 l 1
214 684 m 1
 356 742 l 1
 476 578 l 1
 367 531 l 1
 214 684 l 1
EndSplineSet
EndChar

StartChar: eacute
Encoding: 233 233 223
Width: 591
VWidth: 0
Flags: HMW
LayerCount: 2
Fore
SplineSet
138 190 m 1
 153 284 l 1
 376 284 l 1
 374 320 368 348 330 350 c 0
 277 353 248 303 238 250 c 1
 232 230 l 1
 224 168 239 125 287 121 c 0
 330 119 366 138 388 164 c 1
 562 135 l 1
 502 47 414 -10 286 -10 c 0
 116 -10 19 86 40 230 c 0
 42 247 46 263 51 279 c 0
 89 397 196 470 346 470 c 0
 507 470 592 383 574 239 c 0
 572 227 569 208 565 190 c 1
 138 190 l 1
564 678 m 1
 368 532 l 1
 262 584 l 1
 432 740 l 1
 564 678 l 1
EndSplineSet
EndChar

StartChar: ecircumflex
Encoding: 234 234 224
Width: 591
VWidth: 0
Flags: HMW
LayerCount: 2
Fore
SplineSet
138 190 m 1
 153 284 l 1
 376 284 l 1
 374 320 368 348 330 350 c 0
 277 353 248 303 238 250 c 1
 232 230 l 1
 224 168 239 125 287 121 c 0
 330 119 366 138 388 164 c 1
 562 135 l 1
 502 47 414 -10 286 -10 c 0
 116 -10 19 86 40 230 c 0
 42 247 46 263 51 279 c 0
 89 397 196 470 346 470 c 0
 507 470 592 383 574 239 c 0
 572 227 569 208 565 190 c 1
 138 190 l 1
380 610 m 1
 290 531 l 1
 164 624 l 1
 396 761 l 1
 591 618 l 1
 444 530 l 1
 380 610 l 1
EndSplineSet
EndChar

StartChar: edieresis
Encoding: 235 235 225
Width: 591
VWidth: 0
Flags: HMW
LayerCount: 2
Fore
SplineSet
138 190 m 1
 153 284 l 1
 376 284 l 1
 374 320 368 348 330 350 c 0
 277 353 248 303 238 250 c 1
 232 230 l 1
 224 168 239 125 287 121 c 0
 330 119 366 138 388 164 c 1
 562 135 l 1
 502 47 414 -10 286 -10 c 0
 116 -10 19 86 40 230 c 0
 42 247 46 263 51 279 c 0
 89 397 196 470 346 470 c 0
 507 470 592 383 574 239 c 0
 572 227 569 208 565 190 c 1
 138 190 l 1
404 630 m 0
 412 686 465 726 522 726 c 0
 580 726 624 685 616 628 c 0
 608 572 555 532 498 532 c 0
 440 532 396 573 404 630 c 0
142 630 m 0
 150 686 203 726 260 726 c 0
 318 726 362 685 354 628 c 0
 346 572 293 532 236 532 c 0
 178 532 134 573 142 630 c 0
EndSplineSet
EndChar

StartChar: igrave
Encoding: 236 236 226
Width: 277
VWidth: 0
Flags: HMW
LayerCount: 2
Fore
SplineSet
98 460 m 1
 282 460 l 1
 204 0 l 1
 18 0 l 1
 98 460 l 1
42 684 m 1
 183 742 l 1
 304 578 l 1
 194 531 l 1
 42 684 l 1
EndSplineSet
EndChar

StartChar: dotlessi
Encoding: 305 305 227
Width: 277
VWidth: 0
Flags: HMW
LayerCount: 2
Fore
SplineSet
98 460 m 1
 282 460 l 1
 204 0 l 1
 18 0 l 1
 98 460 l 1
EndSplineSet
EndChar

StartChar: kgreenlandic
Encoding: 312 312 228
Width: 640
VWidth: 0
Flags: HMW
LayerCount: 2
Fore
SplineSet
98 460 m 1
 282 460 l 1
 202 0 l 1
 20 0 l 1
 98 460 l 1
436 460 m 1
 668 460 l 1
 440 266 l 1
 601 0 l 1
 388 0 l 1
 219 275 l 1
 436 460 l 1
EndSplineSet
EndChar

StartChar: iacute
Encoding: 237 237 229
Width: 277
VWidth: 0
Flags: HMW
LayerCount: 2
Fore
SplineSet
98 460 m 1
 282 460 l 1
 204 0 l 1
 18 0 l 1
 98 460 l 1
403 678 m 1
 206 532 l 1
 102 584 l 1
 271 740 l 1
 403 678 l 1
EndSplineSet
EndChar

StartChar: icircumflex
Encoding: 238 238 230
Width: 277
VWidth: 0
Flags: HMW
LayerCount: 2
Fore
SplineSet
98 460 m 1
 282 460 l 1
 204 0 l 1
 18 0 l 1
 98 460 l 1
219 610 m 1
 128 531 l 1
 4 624 l 1
 236 761 l 1
 430 618 l 1
 283 530 l 1
 219 610 l 1
EndSplineSet
EndChar

StartChar: idieresis
Encoding: 239 239 231
Width: 277
VWidth: 0
Flags: HMW
LayerCount: 2
Fore
SplineSet
98 460 m 1
 282 460 l 1
 204 0 l 1
 18 0 l 1
 98 460 l 1
244 630 m 0
 252 686 305 726 362 726 c 0
 420 726 464 685 456 628 c 0
 448 572 395 532 338 532 c 0
 280 532 236 573 244 630 c 0
-18 630 m 0
 -10 686 43 726 100 726 c 0
 158 726 202 685 194 628 c 0
 186 572 133 532 76 532 c 0
 18 532 -26 573 -18 630 c 0
EndSplineSet
EndChar

StartChar: ntilde
Encoding: 241 241 232
Width: 587
VWidth: 0
Flags: HMW
LayerCount: 2
Fore
SplineSet
291 460 m 1
 212 0 l 1
 20 0 l 1
 98 460 l 1
 291 460 l 1
361 280 m 1
 364 312 365 341 329 345 c 0
 293 349 268 314 260 280 c 1
 232 271 l 1
 250 375 303 470 423 471 c 0
 539 472 577 402 564 300 c 1
 513 0 l 1
 310 0 l 1
 361 280 l 1
162 616 m 1
 184 665 229 718 299 716 c 0
 355 715 378 660 430 662 c 0
 462 663 488 690 510 717 c 1
 583 622 l 1
 555 582 490 530 424 532 c 0
 374 534 337 591 288 587 c 0
 256 585 242 555 234 537 c 1
 162 616 l 1
EndSplineSet
EndChar

StartChar: ograve
Encoding: 242 242 233
Width: 597
VWidth: 0
Flags: HMW
LayerCount: 2
Fore
SplineSet
40 230 m 0
 61 376 192 471 346 471 c 0
 495 471 602 374 582 230 c 0
 561 84 429 -10 276 -10 c 0
 127 -10 20 86 40 230 c 0
236 230 m 0
 230 186 250 148 292 146 c 0
 336 144 378 182 386 230 c 0
 392 274 372 314 330 316 c 0
 286 318 244 278 236 230 c 0
234 684 m 1
 375 742 l 1
 496 578 l 1
 386 531 l 1
 234 684 l 1
EndSplineSet
EndChar

StartChar: oacute
Encoding: 243 243 234
Width: 597
VWidth: 0
Flags: HMW
LayerCount: 2
Fore
SplineSet
40 230 m 0
 61 376 192 471 346 471 c 0
 495 471 602 374 582 230 c 0
 561 84 429 -10 276 -10 c 0
 127 -10 20 86 40 230 c 0
236 230 m 0
 230 186 250 148 292 146 c 0
 336 144 378 182 386 230 c 0
 392 274 372 314 330 316 c 0
 286 318 244 278 236 230 c 0
544 678 m 1
 348 532 l 1
 243 584 l 1
 412 740 l 1
 544 678 l 1
EndSplineSet
EndChar

StartChar: ocircumflex
Encoding: 244 244 235
Width: 597
VWidth: 0
Flags: HMW
LayerCount: 2
Fore
SplineSet
40 230 m 0
 61 376 192 471 346 471 c 0
 495 471 602 374 582 230 c 0
 561 84 429 -10 276 -10 c 0
 127 -10 20 86 40 230 c 0
236 230 m 0
 230 186 250 148 292 146 c 0
 336 144 378 182 386 230 c 0
 392 274 372 314 330 316 c 0
 286 318 244 278 236 230 c 0
380 610 m 1
 290 531 l 1
 164 624 l 1
 396 761 l 1
 591 618 l 1
 444 530 l 1
 380 610 l 1
EndSplineSet
EndChar

StartChar: otilde
Encoding: 245 245 236
Width: 597
VWidth: 0
Flags: HMW
LayerCount: 2
Fore
SplineSet
40 230 m 0
 61 376 192 471 346 471 c 0
 495 471 602 374 582 230 c 0
 561 84 429 -10 276 -10 c 0
 127 -10 20 86 40 230 c 0
236 230 m 0
 230 186 250 148 292 146 c 0
 336 144 378 182 386 230 c 0
 392 274 372 314 330 316 c 0
 286 318 244 278 236 230 c 0
167 616 m 1
 167 667 248 716 305 716 c 0
 361 716 383 660 435 662 c 0
 467 663 493 690 515 717 c 1
 588 622 l 1
 560 582 496 530 430 532 c 0
 380 534 343 591 294 587 c 0
 262 585 248 555 240 537 c 1
 167 616 l 1
EndSplineSet
EndChar

StartChar: odieresis
Encoding: 246 246 237
Width: 597
VWidth: 0
Flags: HMW
LayerCount: 2
Fore
SplineSet
40 230 m 0
 61 376 192 471 346 471 c 0
 495 471 602 374 582 230 c 0
 561 84 429 -10 276 -10 c 0
 127 -10 20 86 40 230 c 0
236 230 m 0
 230 186 250 148 292 146 c 0
 336 144 378 182 386 230 c 0
 392 274 372 314 330 316 c 0
 286 318 244 278 236 230 c 0
404 630 m 0
 412 686 465 726 522 726 c 0
 580 726 624 685 616 628 c 0
 608 572 555 532 498 532 c 0
 440 532 396 573 404 630 c 0
142 630 m 0
 150 686 203 726 260 726 c 0
 318 726 362 685 354 628 c 0
 346 572 293 532 236 532 c 0
 178 532 134 573 142 630 c 0
EndSplineSet
EndChar

StartChar: ugrave
Encoding: 249 249 238
Width: 587
VWidth: 0
Flags: HMW
LayerCount: 2
Fore
SplineSet
320 0 m 1
 400 460 l 1
 592 460 l 1
 513 0 l 1
 320 0 l 1
250 180 m 1
 247 148 246 119 282 115 c 0
 318 111 344 146 352 180 c 1
 380 189 l 1
 362 85 308 -10 188 -11 c 0
 72 -12 35 58 48 160 c 1
 98 460 l 1
 301 460 l 1
 250 180 l 1
228 684 m 1
 370 742 l 1
 490 578 l 1
 380 531 l 1
 228 684 l 1
EndSplineSet
EndChar

StartChar: uacute
Encoding: 250 250 239
Width: 587
VWidth: 0
Flags: HMW
LayerCount: 2
Fore
SplineSet
320 0 m 1
 400 460 l 1
 592 460 l 1
 513 0 l 1
 320 0 l 1
250 180 m 1
 247 148 246 119 282 115 c 0
 318 111 344 146 352 180 c 1
 380 189 l 1
 362 85 308 -10 188 -11 c 0
 72 -12 35 58 48 160 c 1
 98 460 l 1
 301 460 l 1
 250 180 l 1
538 678 m 1
 342 532 l 1
 238 584 l 1
 407 740 l 1
 538 678 l 1
EndSplineSet
EndChar

StartChar: ucircumflex
Encoding: 251 251 240
Width: 587
VWidth: 0
Flags: HMW
LayerCount: 2
Fore
SplineSet
320 0 m 1
 400 460 l 1
 592 460 l 1
 513 0 l 1
 320 0 l 1
250 180 m 1
 247 148 246 119 282 115 c 0
 318 111 344 146 352 180 c 1
 380 189 l 1
 362 85 308 -10 188 -11 c 0
 72 -12 35 58 48 160 c 1
 98 460 l 1
 301 460 l 1
 250 180 l 1
374 610 m 1
 284 531 l 1
 158 624 l 1
 391 761 l 1
 586 618 l 1
 438 530 l 1
 374 610 l 1
EndSplineSet
EndChar

StartChar: udieresis
Encoding: 252 252 241
Width: 587
VWidth: 0
Flags: HMW
LayerCount: 2
Fore
SplineSet
320 0 m 1
 400 460 l 1
 592 460 l 1
 513 0 l 1
 320 0 l 1
250 180 m 1
 247 148 246 119 282 115 c 0
 318 111 344 146 352 180 c 1
 380 189 l 1
 362 85 308 -10 188 -11 c 0
 72 -12 35 58 48 160 c 1
 98 460 l 1
 301 460 l 1
 250 180 l 1
400 630 m 0
 408 686 461 726 518 726 c 0
 576 726 620 685 612 628 c 0
 604 572 550 532 493 532 c 0
 435 532 392 573 400 630 c 0
138 630 m 0
 146 686 199 726 256 726 c 0
 314 726 357 685 349 628 c 0
 341 572 288 532 231 532 c 0
 173 532 130 573 138 630 c 0
EndSplineSet
EndChar

StartChar: yacute
Encoding: 253 253 242
Width: 553
VWidth: 0
Flags: HMW
LayerCount: 2
Fore
SplineSet
624 460 m 1
 216 -220 l 1
 24 -220 l 1
 170 26 l 1
 38 460 l 1
 240 460 l 1
 321 85 l 1
 216 86 l 1
 426 460 l 1
 624 460 l 1
542 678 m 1
 345 532 l 1
 240 584 l 1
 410 740 l 1
 542 678 l 1
EndSplineSet
EndChar

StartChar: thorn
Encoding: 254 254 243
Width: 625
VWidth: 0
Flags: HMW
LayerCount: 2
Fore
SplineSet
174 -220 m 1
 -18 -220 l 1
 153 780 l 1
 346 780 l 1
 174 -220 l 1
610 230 m 0
 592 92 486 -10 368 -10 c 0
 244 -10 188 104 204 230 c 0
 222 362 316 470 438 470 c 0
 556 470 626 363 610 230 c 0
409 230 m 0
 415 272 394 318 349 320 c 0
 305 322 258 278 250 230 c 0
 244 185 268 142 310 140 c 0
 356 138 401 184 409 230 c 0
EndSplineSet
EndChar

StartChar: ydieresis
Encoding: 255 255 244
Width: 553
VWidth: 0
Flags: HMW
LayerCount: 2
Fore
SplineSet
624 460 m 1
 216 -220 l 1
 24 -220 l 1
 170 26 l 1
 38 460 l 1
 240 460 l 1
 321 85 l 1
 216 86 l 1
 426 460 l 1
 624 460 l 1
382 630 m 0
 390 686 443 726 500 726 c 0
 558 726 602 685 594 628 c 0
 586 572 533 532 476 532 c 0
 418 532 374 573 382 630 c 0
120 630 m 0
 128 686 181 726 238 726 c 0
 296 726 340 685 332 628 c 0
 324 572 271 532 214 532 c 0
 156 532 112 573 120 630 c 0
EndSplineSet
EndChar

StartChar: Amacron
Encoding: 256 256 245
Width: 756
VWidth: 0
Flags: HMW
LayerCount: 2
Fore
SplineSet
187 90 m 1
 215 248 l 1
 578 248 l 1
 550 90 l 1
 187 90 l 1
420 382 m 1
 302 188 l 1
 311 138 l 1
 214 0 l 1
 -36 0 l 1
 478 752 l 1
 734 0 l 1
 494 0 l 1
 442 132 l 1
 468 189 l 1
 420 382 l 1
301 810 m 1
 330 975 l 1
 706 975 l 1
 677 810 l 1
 301 810 l 1
EndSplineSet
EndChar

StartChar: amacron
Encoding: 257 257 246
Width: 625
VWidth: 0
Flags: HMW
LayerCount: 2
Fore
SplineSet
438 460 m 1
 631 460 l 1
 552 0 l 1
 359 0 l 1
 438 460 l 1
40 230 m 0
 58 368 165 470 283 470 c 0
 407 470 461 356 445 230 c 0
 427 98 335 -10 213 -10 c 0
 95 -10 24 97 40 230 c 0
242 230 m 0
 236 188 256 142 301 140 c 0
 345 138 390 182 398 230 c 0
 404 275 382 318 340 320 c 0
 294 322 250 276 242 230 c 0
198 531 m 1
 227 696 l 1
 604 696 l 1
 575 531 l 1
 198 531 l 1
EndSplineSet
Substitution2: "alt a" amacron.alt
EndChar

StartChar: breve
Encoding: 728 728 247
Width: 529
VWidth: 0
Flags: HMW
LayerCount: 2
Fore
SplineSet
214 850 m 1
 325 850 l 1
 327 819 342 802 366 800 c 0
 390 798 417 820 425 850 c 1
 542 849 l 1
 526 763 460 700 360 700 c 0
 260 700 210 762 214 850 c 1
EndSplineSet
EndChar

StartChar: Abreve
Encoding: 258 258 248
Width: 756
VWidth: 0
Flags: HMW
LayerCount: 2
Fore
SplineSet
187 90 m 1
 215 248 l 1
 578 248 l 1
 550 90 l 1
 187 90 l 1
420 382 m 1
 302 188 l 1
 311 138 l 1
 214 0 l 1
 -36 0 l 1
 478 752 l 1
 734 0 l 1
 494 0 l 1
 442 132 l 1
 468 189 l 1
 420 382 l 1
350 960 m 1
 462 960 l 1
 463 929 477 912 501 910 c 0
 525 908 553 930 561 960 c 1
 678 958 l 1
 660 872 595 810 495 810 c 0
 395 810 344 872 350 960 c 1
EndSplineSet
EndChar

StartChar: abreve
Encoding: 259 259 249
Width: 625
VWidth: 0
Flags: HMW
LayerCount: 2
Fore
SplineSet
438 460 m 1
 631 460 l 1
 552 0 l 1
 359 0 l 1
 438 460 l 1
40 230 m 0
 58 368 165 470 283 470 c 0
 407 470 461 356 445 230 c 0
 427 98 335 -10 213 -10 c 0
 95 -10 24 97 40 230 c 0
242 230 m 0
 236 188 256 142 301 140 c 0
 345 138 390 182 398 230 c 0
 404 275 382 318 340 320 c 0
 294 322 250 276 242 230 c 0
237 681 m 1
 349 681 l 1
 350 650 364 634 388 632 c 0
 412 630 440 650 448 680 c 1
 566 680 l 1
 548 594 482 532 382 532 c 0
 282 532 231 593 237 681 c 1
EndSplineSet
Substitution2: "alt a" abreve.alt
EndChar

StartChar: Aogonek
Encoding: 260 260 250
Width: 756
VWidth: 0
Flags: HMW
LayerCount: 2
Fore
SplineSet
187 90 m 1
 215 248 l 1
 578 248 l 1
 550 90 l 1
 187 90 l 1
420 382 m 1
 302 188 l 1
 311 138 l 1
 214 0 l 1
 -36 0 l 1
 478 752 l 1
 734 0 l 1
 494 0 l 1
 442 132 l 1
 468 189 l 1
 420 382 l 1
644 -100 m 1
 664 -182 l 1
 640 -203 608 -220 556 -220 c 0
 500 -219 450 -183 458 -119 c 0
 468 -46 550 -8 617 25 c 1
 658 0 l 1
 616 -28 578 -55 571 -90 c 0
 569 -104 573 -118 590 -120 c 0
 606 -122 630 -110 644 -100 c 1
EndSplineSet
EndChar

StartChar: aogonek
Encoding: 261 261 251
Width: 625
VWidth: 0
Flags: HMW
LayerCount: 2
Fore
SplineSet
438 460 m 1
 631 460 l 1
 552 0 l 1
 359 0 l 1
 438 460 l 1
40 230 m 0
 58 368 165 470 283 470 c 0
 407 470 461 356 445 230 c 0
 427 98 335 -10 213 -10 c 0
 95 -10 24 97 40 230 c 0
242 230 m 0
 236 188 256 142 301 140 c 0
 345 138 390 182 398 230 c 0
 404 275 382 318 340 320 c 0
 294 322 250 276 242 230 c 0
488 -100 m 1
 509 -182 l 1
 485 -203 452 -220 400 -220 c 0
 344 -219 294 -183 302 -119 c 0
 312 -46 395 -8 462 25 c 1
 502 0 l 1
 460 -28 423 -55 416 -90 c 0
 414 -104 418 -118 435 -120 c 0
 451 -122 474 -110 488 -100 c 1
EndSplineSet
Substitution2: "alt a" aogonek.alt
EndChar

StartChar: Cacute
Encoding: 262 262 252
Width: 689
VWidth: 0
Flags: HMW
LayerCount: 2
Fore
SplineSet
298 350 m 0
 282 254 341 190 437 188 c 0
 527 187 592 230 648 272 c 1
 615 47 l 1
 553 9 488 -20 398 -20 c 0
 170 -20 28 137 60 350 c 0
 93 568 278 720 512 720 c 0
 600 720 658 692 714 652 c 1
 680 427 l 1
 639 475 588 512 504 512 c 0
 405 512 316 450 298 350 c 0
681 926 m 1
 484 780 l 1
 380 834 l 1
 550 989 l 1
 681 926 l 1
EndSplineSet
EndChar

StartChar: cacute
Encoding: 263 263 253
Width: 488
VWidth: 0
Flags: HMW
LayerCount: 2
Fore
SplineSet
237 230 m 0
 228 176 262 141 315 139 c 0
 363 137 408 161 444 196 c 1
 420 21 l 1
 382 3 341 -10 281 -10 c 0
 129 -10 19 84 40 230 c 0
 62 378 195 470 351 470 c 0
 411 470 449 456 487 440 c 1
 461 264 l 1
 435 302 394 322 356 322 c 0
 302 322 247 281 237 230 c 0
520 678 m 1
 324 532 l 1
 219 584 l 1
 388 740 l 1
 520 678 l 1
EndSplineSet
EndChar

StartChar: Ccircumflex
Encoding: 264 264 254
Width: 689
VWidth: 0
Flags: HMW
LayerCount: 2
Fore
SplineSet
298 350 m 0
 282 254 341 190 437 188 c 0
 527 187 592 230 648 272 c 1
 615 47 l 1
 553 9 488 -20 398 -20 c 0
 170 -20 28 137 60 350 c 0
 93 568 278 720 512 720 c 0
 600 720 658 692 714 652 c 1
 680 427 l 1
 639 475 588 512 504 512 c 0
 405 512 316 450 298 350 c 0
546 858 m 1
 455 780 l 1
 330 874 l 1
 562 1010 l 1
 757 866 l 1
 610 779 l 1
 546 858 l 1
EndSplineSet
EndChar

StartChar: ccircumflex
Encoding: 265 265 255
Width: 488
VWidth: 0
Flags: HMW
LayerCount: 2
Fore
SplineSet
237 230 m 0
 228 176 262 141 315 139 c 0
 363 137 408 161 444 196 c 1
 420 21 l 1
 382 3 341 -10 281 -10 c 0
 129 -10 19 84 40 230 c 0
 62 378 195 470 351 470 c 0
 411 470 449 456 487 440 c 1
 461 264 l 1
 435 302 394 322 356 322 c 0
 302 322 247 281 237 230 c 0
336 610 m 1
 246 531 l 1
 120 624 l 1
 353 761 l 1
 548 618 l 1
 400 530 l 1
 336 610 l 1
EndSplineSet
EndChar

StartChar: Cdotaccent
Encoding: 266 266 256
Width: 689
VWidth: 0
Flags: HMW
LayerCount: 2
Fore
SplineSet
298 350 m 0
 282 254 341 190 437 188 c 0
 527 187 592 230 648 272 c 1
 615 47 l 1
 553 9 488 -20 398 -20 c 0
 170 -20 28 137 60 350 c 0
 93 568 278 720 512 720 c 0
 600 720 658 692 714 652 c 1
 680 427 l 1
 639 475 588 512 504 512 c 0
 405 512 316 450 298 350 c 0
400 880 m 0
 408 936 461 976 518 976 c 0
 576 976 620 933 612 876 c 0
 604 820 551 780 494 780 c 0
 436 780 392 823 400 880 c 0
EndSplineSet
EndChar

StartChar: cdotaccent
Encoding: 267 267 257
Width: 488
VWidth: 0
Flags: HMW
LayerCount: 2
Fore
SplineSet
237 230 m 0
 228 176 262 141 315 139 c 0
 363 137 408 161 444 196 c 1
 420 21 l 1
 382 3 341 -10 281 -10 c 0
 129 -10 19 84 40 230 c 0
 62 378 195 470 351 470 c 0
 411 470 449 456 487 440 c 1
 461 264 l 1
 435 302 394 322 356 322 c 0
 302 322 247 281 237 230 c 0
241 640 m 0
 249 696 303 736 360 736 c 0
 418 736 461 695 453 638 c 0
 445 582 391 542 334 542 c 0
 276 542 233 583 241 640 c 0
EndSplineSet
EndChar

StartChar: Ccaron
Encoding: 268 268 258
Width: 689
VWidth: 0
Flags: HMW
LayerCount: 2
Fore
SplineSet
298 350 m 0
 282 254 341 190 437 188 c 0
 527 187 592 230 648 272 c 1
 615 47 l 1
 553 9 488 -20 398 -20 c 0
 170 -20 28 137 60 350 c 0
 93 568 278 720 512 720 c 0
 600 720 658 692 714 652 c 1
 680 427 l 1
 639 475 588 512 504 512 c 0
 405 512 316 450 298 350 c 0
550 932 m 1
 640 1010 l 1
 766 916 l 1
 533 780 l 1
 338 924 l 1
 486 1011 l 1
 550 932 l 1
EndSplineSet
EndChar

StartChar: ccaron
Encoding: 269 269 259
Width: 488
VWidth: 0
Flags: HMW
LayerCount: 2
Fore
SplineSet
237 230 m 0
 228 176 262 141 315 139 c 0
 363 137 408 161 444 196 c 1
 420 21 l 1
 382 3 341 -10 281 -10 c 0
 129 -10 19 84 40 230 c 0
 62 378 195 470 351 470 c 0
 411 470 449 456 487 440 c 1
 461 264 l 1
 435 302 394 322 356 322 c 0
 302 322 247 281 237 230 c 0
340 682 m 1
 431 761 l 1
 556 668 l 1
 324 531 l 1
 129 674 l 1
 276 762 l 1
 340 682 l 1
EndSplineSet
EndChar

StartChar: Dcaron
Encoding: 270 270 260
Width: 742
VWidth: 0
Flags: HMW
LayerCount: 2
Fore
SplineSet
159 700 m 1
 384 700 l 1
 264 0 l 1
 39 0 l 1
 159 700 l 1
314 0 m 1
 186 0 l 1
 220 190 l 1
 324 190 l 1
 415 192 503 230 522 350 c 0
 540 466 478 508 390 510 c 2
 273 510 l 1
 306 700 l 1
 421 700 l 1
 645 698 780 560 748 350 c 0
 716 135 545 2 314 0 c 1
518 932 m 1
 609 1010 l 1
 734 916 l 1
 502 780 l 1
 307 924 l 1
 454 1011 l 1
 518 932 l 1
EndSplineSet
EndChar

StartChar: dcaron
Encoding: 271 271 261
Width: 625
VWidth: 0
Flags: HMW
LayerCount: 2
Fore
SplineSet
493 780 m 1
 686 780 l 1
 552 0 l 1
 359 0 l 1
 493 780 l 1
40 230 m 0
 58 368 165 470 283 470 c 0
 407 470 462 356 446 230 c 0
 428 98 335 -10 213 -10 c 0
 95 -10 24 97 40 230 c 0
242 230 m 0
 236 188 256 142 301 140 c 0
 345 138 392 182 400 230 c 0
 406 275 382 318 340 320 c 0
 294 322 250 276 242 230 c 0
794 779 m 1
 984 744 l 1
 812 497 l 1
 666 523 l 1
 794 779 l 1
EndSplineSet
EndChar

StartChar: Dcroat
Encoding: 272 272 262
Width: 742
VWidth: 0
Flags: HMW
LayerCount: 2
Fore
SplineSet
25 290 m 1
 46 405 l 1
 408 405 l 1
 388 290 l 1
 25 290 l 1
159 700 m 1
 384 700 l 1
 264 0 l 1
 39 0 l 1
 159 700 l 1
314 0 m 1
 186 0 l 1
 220 190 l 1
 324 190 l 1
 415 192 503 230 522 350 c 0
 540 466 478 508 390 510 c 2
 273 510 l 1
 306 700 l 1
 421 700 l 1
 645 698 780 560 748 350 c 0
 716 135 545 2 314 0 c 1
EndSplineSet
EndChar

StartChar: dcroat
Encoding: 273 273 263
Width: 625
VWidth: 0
Flags: HMW
LayerCount: 2
Fore
SplineSet
351 550 m 1
 372 665 l 1
 754 665 l 1
 733 550 l 1
 351 550 l 1
493 780 m 1
 686 780 l 1
 552 0 l 1
 359 0 l 1
 493 780 l 1
40 230 m 0
 58 368 165 470 283 470 c 0
 407 470 462 356 446 230 c 0
 428 98 335 -10 213 -10 c 0
 95 -10 24 97 40 230 c 0
242 230 m 0
 236 188 256 142 301 140 c 0
 345 138 392 182 400 230 c 0
 406 275 382 318 340 320 c 0
 294 322 250 276 242 230 c 0
EndSplineSet
EndChar

StartChar: Emacron
Encoding: 274 274 264
Width: 616
VWidth: 0
Flags: HMW
LayerCount: 2
Fore
SplineSet
186 0 m 1
 217 175 l 1
 563 175 l 1
 532 0 l 1
 186 0 l 1
276 525 m 1
 306 700 l 1
 652 700 l 1
 622 525 l 1
 276 525 l 1
233 275 m 1
 263 445 l 1
 590 445 l 1
 560 275 l 1
 233 275 l 1
159 700 m 1
 366 700 l 1
 246 0 l 1
 39 0 l 1
 159 700 l 1
230 780 m 1
 259 945 l 1
 636 945 l 1
 607 780 l 1
 230 780 l 1
EndSplineSet
EndChar

StartChar: emacron
Encoding: 275 275 265
Width: 591
VWidth: 0
Flags: HMW
LayerCount: 2
Fore
SplineSet
138 190 m 1
 153 284 l 1
 376 284 l 1
 374 320 368 348 330 350 c 0
 277 353 248 303 238 250 c 1
 232 230 l 1
 224 168 239 125 287 121 c 0
 330 119 366 138 388 164 c 1
 562 135 l 1
 502 47 414 -10 286 -10 c 0
 116 -10 19 86 40 230 c 0
 42 247 46 263 51 279 c 0
 89 397 196 470 346 470 c 0
 507 470 592 383 574 239 c 0
 572 227 569 208 565 190 c 1
 138 190 l 1
173 531 m 1
 202 696 l 1
 580 696 l 1
 550 531 l 1
 173 531 l 1
EndSplineSet
EndChar

StartChar: Ebreve
Encoding: 276 276 266
Width: 616
VWidth: 0
Flags: HMW
LayerCount: 2
Fore
SplineSet
186 0 m 1
 217 175 l 1
 563 175 l 1
 532 0 l 1
 186 0 l 1
276 525 m 1
 306 700 l 1
 652 700 l 1
 622 525 l 1
 276 525 l 1
233 275 m 1
 263 445 l 1
 590 445 l 1
 560 275 l 1
 233 275 l 1
159 700 m 1
 366 700 l 1
 246 0 l 1
 39 0 l 1
 159 700 l 1
278 930 m 1
 390 930 l 1
 391 899 406 882 430 880 c 0
 454 878 482 900 490 930 c 1
 607 928 l 1
 589 842 524 780 424 780 c 0
 324 780 272 842 278 930 c 1
EndSplineSet
EndChar

StartChar: ebreve
Encoding: 277 277 267
Width: 591
VWidth: 0
Flags: HMW
LayerCount: 2
Fore
SplineSet
138 190 m 1
 153 284 l 1
 376 284 l 1
 374 320 368 348 330 350 c 0
 277 353 248 303 238 250 c 1
 232 230 l 1
 224 168 239 125 287 121 c 0
 330 119 366 138 388 164 c 1
 562 135 l 1
 502 47 414 -10 286 -10 c 0
 116 -10 19 86 40 230 c 0
 42 247 46 263 51 279 c 0
 89 397 196 470 346 470 c 0
 507 470 592 383 574 239 c 0
 572 227 569 208 565 190 c 1
 138 190 l 1
222 681 m 1
 334 681 l 1
 335 650 350 634 374 632 c 0
 398 630 426 650 434 680 c 1
 551 680 l 1
 533 594 468 532 368 532 c 0
 268 532 216 593 222 681 c 1
EndSplineSet
EndChar

StartChar: Edotaccent
Encoding: 278 278 268
Width: 616
VWidth: 0
Flags: HMW
LayerCount: 2
Fore
SplineSet
186 0 m 1
 217 175 l 1
 563 175 l 1
 532 0 l 1
 186 0 l 1
276 525 m 1
 306 700 l 1
 652 700 l 1
 622 525 l 1
 276 525 l 1
233 275 m 1
 263 445 l 1
 590 445 l 1
 560 275 l 1
 233 275 l 1
159 700 m 1
 366 700 l 1
 246 0 l 1
 39 0 l 1
 159 700 l 1
329 880 m 0
 337 936 391 976 448 976 c 0
 506 976 549 933 541 876 c 0
 533 820 480 780 423 780 c 0
 365 780 321 823 329 880 c 0
EndSplineSet
EndChar

StartChar: edotaccent
Encoding: 279 279 269
Width: 591
VWidth: 0
Flags: HMW
LayerCount: 2
Fore
SplineSet
138 190 m 1
 153 284 l 1
 376 284 l 1
 374 320 368 348 330 350 c 0
 277 353 248 303 238 250 c 1
 232 230 l 1
 224 168 239 125 287 121 c 0
 330 119 366 138 388 164 c 1
 562 135 l 1
 502 47 414 -10 286 -10 c 0
 116 -10 19 86 40 230 c 0
 42 247 46 263 51 279 c 0
 89 397 196 470 346 470 c 0
 507 470 592 383 574 239 c 0
 572 227 569 208 565 190 c 1
 138 190 l 1
273 630 m 0
 281 686 335 726 392 726 c 0
 450 726 493 685 485 628 c 0
 477 572 423 532 366 532 c 0
 308 532 265 573 273 630 c 0
EndSplineSet
EndChar

StartChar: Eogonek
Encoding: 280 280 270
Width: 616
VWidth: 0
Flags: HMW
LayerCount: 2
Fore
SplineSet
186 0 m 1
 217 175 l 1
 563 175 l 1
 532 0 l 1
 186 0 l 1
276 525 m 1
 306 700 l 1
 652 700 l 1
 622 525 l 1
 276 525 l 1
233 275 m 1
 263 445 l 1
 590 445 l 1
 560 275 l 1
 233 275 l 1
159 700 m 1
 366 700 l 1
 246 0 l 1
 39 0 l 1
 159 700 l 1
362 -100 m 1
 382 -182 l 1
 358 -203 326 -220 274 -220 c 0
 218 -219 168 -183 176 -119 c 0
 186 -46 269 -8 336 25 c 1
 376 0 l 1
 334 -28 297 -55 290 -90 c 0
 288 -104 291 -118 308 -120 c 0
 324 -122 348 -110 362 -100 c 1
EndSplineSet
EndChar

StartChar: eogonek
Encoding: 281 281 271
Width: 591
VWidth: 0
Flags: HMW
LayerCount: 2
Fore
SplineSet
138 190 m 1
 153 284 l 1
 376 284 l 1
 374 320 368 348 330 350 c 0
 277 353 248 303 238 250 c 1
 232 230 l 1
 224 168 239 125 287 121 c 0
 330 119 366 138 388 164 c 1
 562 135 l 1
 502 47 414 -10 286 -10 c 0
 116 -10 19 86 40 230 c 0
 42 247 46 263 51 279 c 0
 89 397 196 470 346 470 c 0
 507 470 592 383 574 239 c 0
 572 227 569 208 565 190 c 1
 138 190 l 1
290 -86 m 1
 311 -168 l 1
 287 -189 255 -206 203 -206 c 0
 147 -205 97 -170 105 -106 c 0
 115 -33 197 6 264 39 c 1
 304 11 l 1
 260 -15 225 -43 218 -77 c 0
 216 -91 220 -104 237 -106 c 0
 253 -108 276 -96 290 -86 c 1
EndSplineSet
EndChar

StartChar: Ecaron
Encoding: 282 282 272
Width: 616
VWidth: 0
Flags: HMW
LayerCount: 2
Fore
SplineSet
186 0 m 1
 217 175 l 1
 563 175 l 1
 532 0 l 1
 186 0 l 1
276 525 m 1
 306 700 l 1
 652 700 l 1
 622 525 l 1
 276 525 l 1
233 275 m 1
 263 445 l 1
 590 445 l 1
 560 275 l 1
 233 275 l 1
159 700 m 1
 366 700 l 1
 246 0 l 1
 39 0 l 1
 159 700 l 1
440 932 m 1
 531 1010 l 1
 656 916 l 1
 424 780 l 1
 229 924 l 1
 376 1011 l 1
 440 932 l 1
EndSplineSet
EndChar

StartChar: ecaron
Encoding: 283 283 273
Width: 591
VWidth: 0
Flags: HMW
LayerCount: 2
Fore
SplineSet
138 190 m 1
 153 284 l 1
 376 284 l 1
 374 320 368 348 330 350 c 0
 277 353 248 303 238 250 c 1
 232 230 l 1
 224 168 239 125 287 121 c 0
 330 119 366 138 388 164 c 1
 562 135 l 1
 502 47 414 -10 286 -10 c 0
 116 -10 19 86 40 230 c 0
 42 247 46 263 51 279 c 0
 89 397 196 470 346 470 c 0
 507 470 592 383 574 239 c 0
 572 227 569 208 565 190 c 1
 138 190 l 1
384 682 m 1
 474 761 l 1
 600 668 l 1
 368 531 l 1
 173 674 l 1
 320 762 l 1
 384 682 l 1
EndSplineSet
EndChar

StartChar: Gcircumflex
Encoding: 284 284 274
Width: 813
VWidth: 0
Flags: HMW
LayerCount: 2
Fore
SplineSet
428 240 m 1
 457 400 l 1
 818 400 l 1
 800 169 641 -30 392 -30 c 0
 167 -30 29 136 60 350 c 0
 94 571 287 721 516 720 c 0
 658 720 754 645 816 542 c 1
 604 452 l 1
 585 497 557 533 497 534 c 0
 394 536 304 458 286 350 c 0
 270 246 311 158 420 156 c 0
 497 155 548 192 585 241 c 1
 428 240 l 1
550 858 m 1
 460 780 l 1
 335 874 l 1
 568 1010 l 1
 762 866 l 1
 614 779 l 1
 550 858 l 1
EndSplineSet
EndChar

StartChar: gcircumflex
Encoding: 285 285 275
Width: 616
VWidth: 0
Flags: HMW
LayerCount: 2
Fore
SplineSet
3 -34 m 1
 184 -36 l 1
 190 -79 208 -94 248 -94 c 0
 309 -95 349 -49 360 10 c 1
 438 460 l 1
 621 460 l 1
 544 10 l 2
 518 -158 402 -244 244 -244 c 0
 78 -244 7 -166 3 -34 c 1
42 240 m 0
 60 378 166 470 283 470 c 0
 405 470 464 367 448 240 c 0
 431 108 338 10 216 10 c 0
 99 10 26 106 42 240 c 0
243 239 m 0
 237 195 260 162 304 160 c 0
 346 158 395 193 402 241 c 0
 408 287 381 318 340 320 c 0
 295 322 250 285 243 239 c 0
424 610 m 1
 333 531 l 1
 208 624 l 1
 440 761 l 1
 635 618 l 1
 488 530 l 1
 424 610 l 1
EndSplineSet
EndChar

StartChar: Gbreve
Encoding: 286 286 276
Width: 813
VWidth: 0
Flags: HMW
LayerCount: 2
Fore
SplineSet
428 240 m 1
 457 400 l 1
 818 400 l 1
 800 169 641 -30 392 -30 c 0
 167 -30 29 136 60 350 c 0
 94 571 287 721 516 720 c 0
 658 720 754 645 816 542 c 1
 604 452 l 1
 585 497 557 533 497 534 c 0
 394 536 304 458 286 350 c 0
 270 246 311 158 420 156 c 0
 497 155 548 192 585 241 c 1
 428 240 l 1
393 930 m 1
 505 930 l 1
 506 899 520 882 544 880 c 0
 568 878 596 900 604 930 c 1
 722 928 l 1
 704 842 638 780 538 780 c 0
 438 780 387 842 393 930 c 1
EndSplineSet
EndChar

StartChar: gbreve
Encoding: 287 287 277
Width: 616
VWidth: 0
Flags: HMW
LayerCount: 2
Fore
SplineSet
3 -34 m 1
 184 -36 l 1
 190 -79 208 -94 248 -94 c 0
 309 -95 349 -49 360 10 c 1
 438 460 l 1
 621 460 l 1
 544 10 l 2
 518 -158 402 -244 244 -244 c 0
 78 -244 7 -166 3 -34 c 1
42 240 m 0
 60 378 166 470 283 470 c 0
 405 470 464 367 448 240 c 0
 431 108 338 10 216 10 c 0
 99 10 26 106 42 240 c 0
243 239 m 0
 237 195 260 162 304 160 c 0
 346 158 395 193 402 241 c 0
 408 287 381 318 340 320 c 0
 295 322 250 285 243 239 c 0
266 681 m 1
 378 681 l 1
 379 650 394 634 418 632 c 0
 442 630 470 650 478 680 c 1
 594 680 l 1
 576 594 512 532 412 532 c 0
 312 532 260 593 266 681 c 1
EndSplineSet
EndChar

StartChar: Gdotaccent
Encoding: 288 288 278
Width: 813
VWidth: 0
Flags: HMW
LayerCount: 2
Fore
SplineSet
428 240 m 1
 457 400 l 1
 818 400 l 1
 800 169 641 -30 392 -30 c 0
 167 -30 29 136 60 350 c 0
 94 571 287 721 516 720 c 0
 658 720 754 645 816 542 c 1
 604 452 l 1
 585 497 557 533 497 534 c 0
 394 536 304 458 286 350 c 0
 270 246 311 158 420 156 c 0
 497 155 548 192 585 241 c 1
 428 240 l 1
444 880 m 0
 452 936 505 976 562 976 c 0
 620 976 664 933 656 876 c 0
 648 820 595 780 538 780 c 0
 480 780 436 823 444 880 c 0
EndSplineSet
EndChar

StartChar: gdotaccent
Encoding: 289 289 279
Width: 616
VWidth: 0
Flags: HMW
LayerCount: 2
Fore
SplineSet
3 -34 m 1
 184 -36 l 1
 190 -79 208 -94 248 -94 c 0
 309 -95 349 -49 360 10 c 1
 438 460 l 1
 621 460 l 1
 544 10 l 2
 518 -158 402 -244 244 -244 c 0
 78 -244 7 -166 3 -34 c 1
42 240 m 0
 60 378 166 470 283 470 c 0
 405 470 464 367 448 240 c 0
 431 108 338 10 216 10 c 0
 99 10 26 106 42 240 c 0
243 239 m 0
 237 195 260 162 304 160 c 0
 346 158 395 193 402 241 c 0
 408 287 381 318 340 320 c 0
 295 322 250 285 243 239 c 0
288 630 m 0
 296 686 349 726 406 726 c 0
 464 726 508 685 500 628 c 0
 492 572 438 532 381 532 c 0
 323 532 280 573 288 630 c 0
EndSplineSet
EndChar

StartChar: uni0122
Encoding: 290 290 280
Width: 813
VWidth: 0
Flags: HMW
LayerCount: 2
Fore
SplineSet
428 240 m 1
 457 400 l 1
 818 400 l 1
 800 169 641 -30 392 -30 c 0
 167 -30 29 136 60 350 c 0
 94 571 287 721 516 720 c 0
 658 720 754 645 816 542 c 1
 604 452 l 1
 585 497 557 533 497 534 c 0
 394 536 304 458 286 350 c 0
 270 246 311 158 420 156 c 0
 497 155 548 192 585 241 c 1
 428 240 l 1
271 -91 m 1
 461 -126 l 1
 288 -373 l 1
 142 -347 l 1
 271 -91 l 1
EndSplineSet
EndChar

StartChar: Hcircumflex
Encoding: 292 292 281
Width: 805
VWidth: 0
Flags: HMW
LayerCount: 2
Fore
SplineSet
130 265 m 1
 164 460 l 1
 710 460 l 1
 676 265 l 1
 130 265 l 1
615 700 m 1
 832 700 l 1
 712 0 l 1
 495 0 l 1
 615 700 l 1
159 700 m 1
 376 700 l 1
 256 0 l 1
 39 0 l 1
 159 700 l 1
526 858 m 1
 436 780 l 1
 310 874 l 1
 543 1010 l 1
 738 866 l 1
 590 779 l 1
 526 858 l 1
EndSplineSet
EndChar

StartChar: hcircumflex
Encoding: 293 293 282
Width: 577
VWidth: 0
Flags: HMW
LayerCount: 2
Fore
SplineSet
346 780 m 1
 212 0 l 1
 20 0 l 1
 153 780 l 1
 346 780 l 1
361 280 m 1
 364 312 366 341 330 345 c 0
 294 349 268 314 260 280 c 1
 232 281 l 1
 250 385 305 480 425 481 c 0
 542 482 569 410 556 310 c 1
 503 0 l 1
 310 0 l 1
 361 280 l 1
348 918 m 1
 257 840 l 1
 132 934 l 1
 364 1070 l 1
 559 926 l 1
 412 839 l 1
 348 918 l 1
EndSplineSet
EndChar

StartChar: Itilde
Encoding: 296 296 283
Width: 354
VWidth: 0
Flags: HMW
LayerCount: 2
Fore
SplineSet
159 700 m 1
 380 700 l 1
 260 0 l 1
 39 0 l 1
 159 700 l 1
88 865 m 1
 110 914 155 966 225 964 c 0
 281 963 304 909 356 911 c 0
 388 912 414 939 436 966 c 1
 510 871 l 1
 482 831 416 778 350 780 c 0
 300 782 264 840 215 836 c 0
 183 834 168 804 160 786 c 1
 88 865 l 1
EndSplineSet
EndChar

StartChar: itilde
Encoding: 297 297 284
Width: 277
VWidth: 0
Flags: HMW
LayerCount: 2
Fore
SplineSet
98 460 m 1
 282 460 l 1
 204 0 l 1
 18 0 l 1
 98 460 l 1
6 616 m 1
 28 665 74 718 144 716 c 0
 200 715 222 660 274 662 c 0
 306 663 333 690 355 717 c 1
 428 622 l 1
 400 582 335 530 269 532 c 0
 219 534 183 591 134 587 c 0
 102 585 86 555 78 537 c 1
 6 616 l 1
EndSplineSet
EndChar

StartChar: Imacron
Encoding: 298 298 285
Width: 354
VWidth: 0
Flags: HMW
LayerCount: 2
Fore
SplineSet
159 700 m 1
 380 700 l 1
 260 0 l 1
 39 0 l 1
 159 700 l 1
94 780 m 1
 123 945 l 1
 500 945 l 1
 471 780 l 1
 94 780 l 1
EndSplineSet
EndChar

StartChar: imacron
Encoding: 299 299 286
Width: 277
VWidth: 0
Flags: HMW
LayerCount: 2
Fore
SplineSet
98 460 m 1
 282 460 l 1
 204 0 l 1
 18 0 l 1
 98 460 l 1
13 531 m 1
 42 696 l 1
 419 696 l 1
 390 531 l 1
 13 531 l 1
EndSplineSet
EndChar

StartChar: Ibreve
Encoding: 300 300 287
Width: 354
VWidth: 0
Flags: HMW
LayerCount: 2
Fore
SplineSet
159 700 m 1
 380 700 l 1
 260 0 l 1
 39 0 l 1
 159 700 l 1
143 930 m 1
 254 930 l 1
 255 899 270 882 294 880 c 0
 318 878 346 900 354 930 c 1
 471 928 l 1
 453 842 388 780 288 780 c 0
 188 780 137 842 143 930 c 1
EndSplineSet
EndChar

StartChar: ibreve
Encoding: 301 301 288
Width: 277
VWidth: 0
Flags: HMW
LayerCount: 2
Fore
SplineSet
98 460 m 1
 282 460 l 1
 204 0 l 1
 18 0 l 1
 98 460 l 1
62 681 m 1
 173 681 l 1
 174 650 188 634 212 632 c 0
 236 630 265 650 273 680 c 1
 390 680 l 1
 372 594 307 532 207 532 c 0
 107 532 56 593 62 681 c 1
EndSplineSet
EndChar

StartChar: Iogonek
Encoding: 302 302 289
Width: 354
VWidth: 0
Flags: HMW
LayerCount: 2
Fore
SplineSet
159 700 m 1
 380 700 l 1
 260 0 l 1
 39 0 l 1
 159 700 l 1
205 -96 m 1
 227 -178 l 1
 203 -199 171 -217 119 -217 c 0
 63 -216 12 -180 20 -116 c 0
 30 -43 111 -5 178 28 c 1
 220 0 l 1
 176 -26 140 -54 133 -88 c 0
 131 -102 135 -114 152 -116 c 0
 168 -118 191 -106 205 -96 c 1
EndSplineSet
EndChar

StartChar: iogonek
Encoding: 303 303 290
Width: 277
VWidth: 0
Flags: HMW
LayerCount: 2
Fore
SplineSet
112 624 m 0
 120 680 173 720 230 720 c 0
 288 720 332 677 324 620 c 0
 316 564 263 524 206 524 c 0
 148 524 104 567 112 624 c 0
98 460 m 1
 282 460 l 1
 204 0 l 1
 18 0 l 1
 98 460 l 1
150 -100 m 1
 170 -182 l 1
 146 -203 114 -220 62 -220 c 0
 6 -219 -44 -183 -36 -119 c 0
 -26 -46 56 -8 123 25 c 1
 164 0 l 1
 122 -28 84 -55 77 -90 c 0
 75 -104 79 -118 96 -120 c 0
 112 -122 136 -110 150 -100 c 1
EndSplineSet
EndChar

StartChar: Idotaccent
Encoding: 304 304 291
Width: 354
VWidth: 0
Flags: HMW
LayerCount: 2
Fore
SplineSet
159 700 m 1
 380 700 l 1
 260 0 l 1
 39 0 l 1
 159 700 l 1
194 880 m 0
 202 936 255 976 312 976 c 0
 370 976 414 933 406 876 c 0
 398 820 344 780 287 780 c 0
 229 780 186 823 194 880 c 0
EndSplineSet
EndChar

StartChar: uni0136
Encoding: 310 310 292
Width: 757
VWidth: 0
Flags: HMW
LayerCount: 2
Fore
SplineSet
159 700 m 1
 386 700 l 1
 266 0 l 1
 39 0 l 1
 159 700 l 1
588 700 m 1
 846 700 l 1
 519 368 l 1
 734 0 l 1
 480 0 l 1
 266 370 l 1
 588 700 l 1
284 -61 m 1
 474 -96 l 1
 300 -343 l 1
 154 -317 l 1
 284 -61 l 1
EndSplineSet
EndChar

StartChar: uni0137
Encoding: 311 311 293
Width: 640
VWidth: 0
Flags: HMW
LayerCount: 2
Fore
SplineSet
153 780 m 1
 336 780 l 1
 202 0 l 1
 20 0 l 1
 153 780 l 1
436 460 m 1
 668 460 l 1
 440 266 l 1
 601 0 l 1
 388 0 l 1
 219 275 l 1
 436 460 l 1
208 -61 m 1
 398 -96 l 1
 225 -343 l 1
 78 -317 l 1
 208 -61 l 1
EndSplineSet
EndChar

StartChar: Lacute
Encoding: 313 313 294
Width: 558
VWidth: 0
Flags: HMW
LayerCount: 2
Fore
SplineSet
159 700 m 1
 376 700 l 1
 288 185 l 1
 564 185 l 1
 532 0 l 1
 39 0 l 1
 159 700 l 1
621 926 m 1
 424 780 l 1
 319 834 l 1
 489 989 l 1
 621 926 l 1
EndSplineSet
EndChar

StartChar: lacute
Encoding: 314 314 295
Width: 286
VWidth: 0
Flags: HMW
LayerCount: 2
Fore
SplineSet
153 780 m 1
 346 780 l 1
 212 0 l 1
 20 0 l 1
 153 780 l 1
462 986 m 1
 265 840 l 1
 160 894 l 1
 330 1049 l 1
 462 986 l 1
EndSplineSet
EndChar

StartChar: uni013B
Encoding: 315 315 296
Width: 558
VWidth: 0
Flags: HMW
LayerCount: 2
Fore
SplineSet
159 700 m 1
 376 700 l 1
 288 185 l 1
 564 185 l 1
 532 0 l 1
 39 0 l 1
 159 700 l 1
220 -61 m 1
 410 -96 l 1
 238 -343 l 1
 91 -317 l 1
 220 -61 l 1
EndSplineSet
EndChar

StartChar: uni013C
Encoding: 316 316 297
Width: 286
VWidth: 0
Flags: HMW
LayerCount: 2
Fore
SplineSet
153 780 m 1
 346 780 l 1
 212 0 l 1
 20 0 l 1
 153 780 l 1
50 -61 m 1
 240 -96 l 1
 68 -343 l 1
 -79 -317 l 1
 50 -61 l 1
EndSplineSet
EndChar

StartChar: Lcaron
Encoding: 317 317 298
Width: 558
VWidth: 0
Flags: HMW
LayerCount: 2
Fore
SplineSet
159 700 m 1
 376 700 l 1
 288 185 l 1
 564 185 l 1
 532 0 l 1
 39 0 l 1
 159 700 l 1
542 719 m 1
 732 684 l 1
 559 437 l 1
 412 463 l 1
 542 719 l 1
EndSplineSet
EndChar

StartChar: lcaron
Encoding: 318 318 299
Width: 286
VWidth: 0
Flags: HMW
LayerCount: 2
Fore
SplineSet
153 780 m 1
 346 780 l 1
 212 0 l 1
 20 0 l 1
 153 780 l 1
474 779 m 1
 664 744 l 1
 492 497 l 1
 345 523 l 1
 474 779 l 1
EndSplineSet
EndChar

StartChar: Ldot
Encoding: 319 319 300
Width: 558
VWidth: 0
Flags: HMW
LayerCount: 2
Fore
SplineSet
159 700 m 1
 376 700 l 1
 288 185 l 1
 564 185 l 1
 532 0 l 1
 39 0 l 1
 159 700 l 1
400 441 m 0
 408 503 465 554 531 554 c 0
 598 554 640 500 632 439 c 0
 624 377 567 326 501 326 c 0
 434 326 392 380 400 441 c 0
EndSplineSet
EndChar

StartChar: ldot
Encoding: 320 320 301
Width: 525
VWidth: 0
Flags: HMW
LayerCount: 2
Fore
SplineSet
153 780 m 1
 346 780 l 1
 212 0 l 1
 20 0 l 1
 153 780 l 1
308 406 m 0
 316 468 372 520 438 520 c 0
 505 520 547 465 539 404 c 0
 531 342 474 290 408 290 c 0
 341 290 300 345 308 406 c 0
EndSplineSet
EndChar

StartChar: eth
Encoding: 240 240 302
Width: 657
VWidth: 0
Flags: HMW
LayerCount: 2
Fore
SplineSet
314 -20 m 0
 169 -20 55 74 55 220 c 0
 55 368 159 483 303 483 c 0
 398 483 470 428 532 318 c 1
 491 320 l 1
 432 492 337 595 188 695 c 1
 339 782 l 1
 557 597 643 454 643 280 c 0
 643 113 501 -20 314 -20 c 0
333 150 m 0
 389 150 430 195 430 245 c 0
 430 285 403 321 358 321 c 0
 303 321 261 275 261 225 c 0
 261 185 287 150 333 150 c 0
210 509 m 1
 194 569 l 1
 584 684 l 1
 600 624 l 1
 210 509 l 1
EndSplineSet
EndChar

StartChar: racute
Encoding: 341 341 303
Width: 439
VWidth: 0
Flags: HMW
LayerCount: 2
Fore
SplineSet
286 460 m 1
 207 0 l 1
 20 0 l 1
 98 460 l 1
 286 460 l 1
380 262 m 1
 368 276 353 290 330 290 c 0
 286 291 252 247 241 195 c 1
 218 281 l 1
 235 377 311 475 405 472 c 0
 439 471 466 452 482 428 c 1
 380 262 l 1
507 678 m 1
 310 532 l 1
 206 586 l 1
 375 741 l 1
 507 678 l 1
EndSplineSet
EndChar

StartChar: rcaron
Encoding: 345 345 304
Width: 439
VWidth: 0
Flags: HMW
LayerCount: 2
Fore
SplineSet
286 460 m 1
 207 0 l 1
 20 0 l 1
 98 460 l 1
 286 460 l 1
380 262 m 1
 368 276 353 290 330 290 c 0
 286 291 252 247 241 195 c 1
 218 281 l 1
 235 377 311 475 405 472 c 0
 439 471 466 452 482 428 c 1
 380 262 l 1
327 684 m 1
 418 762 l 1
 542 668 l 1
 310 532 l 1
 116 676 l 1
 263 763 l 1
 327 684 l 1
EndSplineSet
EndChar

StartChar: Rcaron
Encoding: 344 344 305
Width: 679
VWidth: 0
Flags: HMW
LayerCount: 2
Fore
SplineSet
292 300 m 1
 508 300 l 1
 650 0 l 1
 406 0 l 1
 292 300 l 1
159 700 m 1
 376 700 l 1
 256 0 l 1
 39 0 l 1
 159 700 l 1
266 516 m 1
 297 700 l 1
 440 700 l 1
 614 698 714 606 692 460 c 0
 669 313 550 222 370 220 c 1
 214 220 l 1
 244 385 l 1
 368 385 l 1
 416 387 456 408 464 450 c 0
 471 490 446 512 400 514 c 1
 266 516 l 1
466 932 m 1
 556 1010 l 1
 681 916 l 1
 448 780 l 1
 254 924 l 1
 402 1011 l 1
 466 932 l 1
EndSplineSet
EndChar

StartChar: uni0213
Encoding: 531 531 306
Width: 439
VWidth: 0
Flags: HMW
LayerCount: 2
Fore
SplineSet
286 460 m 1
 207 0 l 1
 20 0 l 1
 98 460 l 1
 286 460 l 1
380 262 m 1
 368 276 353 290 330 290 c 0
 286 291 252 247 241 195 c 1
 218 281 l 1
 235 377 311 475 405 472 c 0
 439 471 466 452 482 428 c 1
 380 262 l 1
141 531 m 1
 250 532 l 1
 258 562 284 584 308 582 c 0
 334 580 350 565 352 532 c 1
 466 532 l 1
 477 616 436 681 336 682 c 0
 232 683 165 617 141 531 c 1
EndSplineSet
EndChar

StartChar: uni0212
Encoding: 530 530 307
Width: 679
VWidth: 0
Flags: HMW
LayerCount: 2
Fore
SplineSet
292 300 m 1
 508 300 l 1
 650 0 l 1
 406 0 l 1
 292 300 l 1
159 700 m 1
 376 700 l 1
 256 0 l 1
 39 0 l 1
 159 700 l 1
266 516 m 1
 297 700 l 1
 440 700 l 1
 614 698 714 606 692 460 c 0
 669 313 550 222 370 220 c 1
 214 220 l 1
 244 385 l 1
 368 385 l 1
 416 387 456 408 464 450 c 0
 471 490 446 512 400 514 c 1
 266 516 l 1
289 779 m 1
 398 780 l 1
 406 810 432 832 456 830 c 0
 482 828 498 813 500 780 c 1
 614 780 l 1
 625 864 584 929 484 930 c 0
 380 931 313 865 289 779 c 1
EndSplineSet
EndChar

StartChar: OE
Encoding: 338 338 308
Width: 955
VWidth: 0
Flags: HMW
LayerCount: 2
Fore
SplineSet
563 275 m 1
 593 445 l 1
 973 445 l 1
 943 275 l 1
 563 275 l 1
537 670 m 1
 744 670 l 1
 634 30 l 1
 427 30 l 1
 537 670 l 1
944 174 m 1
 916 0 l 1
 358 0 l 1
 160 4 32 156 60 350 c 0
 90 552 260 697 464 700 c 1
 1036 700 l 1
 1005 525 l 1
 620 525 l 1
 600 510 l 1
 493 510 l 1
 375 508 306 458 286 350 c 0
 268 246 312 192 426 190 c 1
 532 190 l 1
 552 175 l 1
 944 174 l 1
EndSplineSet
EndChar

StartChar: oe
Encoding: 339 339 309
Width: 873
VWidth: 0
Flags: HMW
LayerCount: 2
Fore
SplineSet
658 250 m 2
 662 298 662 345 618 349 c 0
 573 353 536 312 526 260 c 1
 518 230 l 1
 510 174 518 118 572 116 c 0
 616 114 646 140 672 166 c 1
 843 135 l 1
 794 57 697 -10 596 -10 c 0
 467 -10 412 108 428 230 c 0
 430 247 434 263 439 279 c 0
 473 386 568 470 686 470 c 0
 806 470 868 358 854 234 c 0
 852 223 849 201 846 190 c 1
 654 231 l 1
 658 250 l 2
473 190 m 1
 488 283 l 1
 842 283 l 1
 845 190 l 1
 473 190 l 1
44 230 m 0
 62 366 172 470 302 470 c 0
 432 470 482 358 466 230 c 0
 448 97 361 -10 232 -10 c 0
 102 -10 27 98 44 230 c 0
232 230 m 0
 226 185 243 148 288 146 c 0
 338 144 372 181 380 230 c 0
 387 276 373 313 325 314 c 0
 279 315 240 278 232 230 c 0
EndSplineSet
EndChar

StartChar: a.alt
Encoding: 65536 -1 310
Width: 559
VWidth: 0
Flags: HMW
LayerCount: 2
Fore
SplineSet
206 141 m 0
 204 119 222 107 242 106 c 0
 287 104 324 142 336 190 c 1
 344 129 l 1
 326 44 255 -10 161 -10 c 0
 74 -10 1 40 13 132 c 0
 27 224 113 274 218 274 c 0
 280 274 340 259 377 228 c 1
 364 148 l 1
 340 168 308 180 271 180 c 0
 237 180 208 167 206 141 c 0
141 298 m 1
 100 425 l 1
 168 451 249 475 332 475 c 0
 444 475 554 427 540 320 c 1
 486 0 l 1
 302 0 l 1
 352 272 l 1
 356 306 340 330 294 332 c 0
 240 336 173 312 141 298 c 1
EndSplineSet
EndChar

StartChar: Jcircumflex
Encoding: 308 308 312
Width: 373
VWidth: 0
Flags: HMW
LayerCount: 2
Fore
SplineSet
-112 -40 m 1
 -90 -54 -64 -70 -38 -70 c 0
 -2 -70 31 -40 39 6 c 1
 159 700 l 1
 400 700 l 1
 272 -50 l 2
 247 -192 114 -250 -28 -250 c 0
 -113 -250 -190 -222 -250 -188 c 1
 -112 -40 l 1
310 858 m 1
 220 780 l 1
 94 874 l 1
 326 1010 l 1
 521 866 l 1
 374 779 l 1
 310 858 l 1
EndSplineSet
EndChar

StartChar: jcircumflex
Encoding: 309 309 313
Width: 276
VWidth: 0
Flags: HMW
LayerCount: 2
Fore
SplineSet
-83 -56 m 1
 -73 -69 -62 -80 -44 -80 c 0
 -14 -80 8 -54 14 -24 c 1
 98 460 l 1
 282 460 l 1
 190 -80 l 2
 171 -180 94 -250 -28 -250 c 0
 -97 -250 -140 -220 -172 -192 c 1
 -83 -56 l 1
219 610 m 1
 128 531 l 1
 4 624 l 1
 236 761 l 1
 430 618 l 1
 283 530 l 1
 219 610 l 1
EndSplineSet
EndChar

StartChar: Nacute
Encoding: 323 323 314
Width: 781
VWidth: 0
Flags: HMW
LayerCount: 2
Fore
SplineSet
600 700 m 1
 808 700 l 1
 682 -33 l 1
 301 318 l 1
 246 0 l 1
 39 0 l 1
 164 733 l 1
 545 382 l 1
 600 700 l 1
654 912 m 1
 458 766 l 1
 353 818 l 1
 522 974 l 1
 654 912 l 1
EndSplineSet
EndChar

StartChar: nacute
Encoding: 324 324 315
Width: 587
VWidth: 0
Flags: HMW
LayerCount: 2
Fore
SplineSet
291 460 m 1
 212 0 l 1
 20 0 l 1
 98 460 l 1
 291 460 l 1
361 280 m 1
 364 312 365 341 329 345 c 0
 293 349 268 314 260 280 c 1
 232 271 l 1
 250 375 303 470 423 471 c 0
 539 472 577 402 564 300 c 1
 513 0 l 1
 310 0 l 1
 361 280 l 1
558 678 m 1
 362 532 l 1
 257 584 l 1
 426 740 l 1
 558 678 l 1
EndSplineSet
EndChar

StartChar: uni0145
Encoding: 325 325 316
Width: 781
VWidth: 0
Flags: HMW
LayerCount: 2
Fore
SplineSet
290 -66 m 1
 480 -101 l 1
 308 -348 l 1
 161 -322 l 1
 290 -66 l 1
600 700 m 1
 808 700 l 1
 682 -33 l 1
 301 318 l 1
 246 0 l 1
 39 0 l 1
 164 733 l 1
 545 382 l 1
 600 700 l 1
EndSplineSet
EndChar

StartChar: uni0146
Encoding: 326 326 317
Width: 587
VWidth: 0
Flags: HMW
LayerCount: 2
Fore
SplineSet
291 460 m 1
 212 0 l 1
 20 0 l 1
 98 460 l 1
 291 460 l 1
361 280 m 1
 364 312 365 341 329 345 c 0
 293 349 268 314 260 280 c 1
 232 271 l 1
 250 375 303 470 423 471 c 0
 539 472 577 402 564 300 c 1
 513 0 l 1
 310 0 l 1
 361 280 l 1
201 -61 m 1
 391 -96 l 1
 218 -343 l 1
 72 -317 l 1
 201 -61 l 1
EndSplineSet
EndChar

StartChar: Ncaron
Encoding: 327 327 318
Width: 781
VWidth: 0
Flags: HMW
LayerCount: 2
Fore
SplineSet
474 916 m 1
 565 995 l 1
 690 902 l 1
 458 765 l 1
 264 908 l 1
 410 996 l 1
 474 916 l 1
600 700 m 1
 808 700 l 1
 682 -33 l 1
 301 318 l 1
 246 0 l 1
 39 0 l 1
 164 733 l 1
 545 382 l 1
 600 700 l 1
EndSplineSet
EndChar

StartChar: ncaron
Encoding: 328 328 319
Width: 587
VWidth: 0
Flags: HMW
LayerCount: 2
Fore
SplineSet
291 460 m 1
 212 0 l 1
 20 0 l 1
 98 460 l 1
 291 460 l 1
361 280 m 1
 364 312 365 341 329 345 c 0
 293 349 268 314 260 280 c 1
 232 271 l 1
 250 375 303 470 423 471 c 0
 539 472 577 402 564 300 c 1
 513 0 l 1
 310 0 l 1
 361 280 l 1
378 682 m 1
 469 761 l 1
 594 668 l 1
 362 531 l 1
 167 674 l 1
 314 762 l 1
 378 682 l 1
EndSplineSet
EndChar

StartChar: Omacron
Encoding: 332 332 320
Width: 815
VWidth: 0
Flags: HMW
LayerCount: 2
Fore
SplineSet
289 350 m 0
 275 262 307 180 405 178 c 0
 503 176 575 256 592 350 c 0
 606 438 576 521 476 522 c 0
 378 523 305 444 289 350 c 0
60 350 m 0
 92 564 279 720 497 720 c 0
 714 720 850 558 820 350 c 0
 788 134 608 -30 382 -30 c 0
 160 -30 30 142 60 350 c 0
325 780 m 1
 354 945 l 1
 730 945 l 1
 701 780 l 1
 325 780 l 1
EndSplineSet
EndChar

StartChar: omacron
Encoding: 333 333 321
Width: 597
VWidth: 0
Flags: HMW
LayerCount: 2
Fore
SplineSet
40 230 m 0
 61 376 192 471 346 471 c 0
 495 471 602 374 582 230 c 0
 561 84 429 -10 276 -10 c 0
 127 -10 20 86 40 230 c 0
236 230 m 0
 230 186 250 148 292 146 c 0
 336 144 378 182 386 230 c 0
 392 274 372 314 330 316 c 0
 286 318 244 278 236 230 c 0
174 531 m 1
 203 696 l 1
 579 696 l 1
 550 531 l 1
 174 531 l 1
EndSplineSet
EndChar

StartChar: Obreve
Encoding: 334 334 322
Width: 815
VWidth: 0
Flags: HMW
LayerCount: 2
Fore
SplineSet
289 350 m 0
 275 262 307 180 405 178 c 0
 503 176 575 256 592 350 c 0
 606 438 576 521 476 522 c 0
 378 523 305 444 289 350 c 0
60 350 m 0
 92 564 279 720 497 720 c 0
 714 720 850 558 820 350 c 0
 788 134 608 -30 382 -30 c 0
 160 -30 30 142 60 350 c 0
374 930 m 1
 486 930 l 1
 487 899 501 882 525 880 c 0
 549 878 577 900 585 930 c 1
 702 928 l 1
 684 842 619 780 519 780 c 0
 419 780 368 842 374 930 c 1
EndSplineSet
EndChar

StartChar: obreve
Encoding: 335 335 323
Width: 597
VWidth: 0
Flags: HMW
LayerCount: 2
Fore
SplineSet
40 230 m 0
 61 376 192 471 346 471 c 0
 495 471 602 374 582 230 c 0
 561 84 429 -10 276 -10 c 0
 127 -10 20 86 40 230 c 0
236 230 m 0
 230 186 250 148 292 146 c 0
 336 144 378 182 386 230 c 0
 392 274 372 314 330 316 c 0
 286 318 244 278 236 230 c 0
222 681 m 1
 334 681 l 1
 335 650 350 634 374 632 c 0
 398 630 426 650 434 680 c 1
 551 680 l 1
 533 594 468 532 368 532 c 0
 268 532 216 593 222 681 c 1
EndSplineSet
EndChar

StartChar: Racute
Encoding: 340 340 324
Width: 679
VWidth: 0
Flags: HMW
LayerCount: 2
Fore
SplineSet
292 300 m 1
 508 300 l 1
 650 0 l 1
 406 0 l 1
 292 300 l 1
159 700 m 1
 376 700 l 1
 256 0 l 1
 39 0 l 1
 159 700 l 1
266 516 m 1
 297 700 l 1
 440 700 l 1
 614 698 714 606 692 460 c 0
 669 313 550 222 370 220 c 1
 214 220 l 1
 244 385 l 1
 368 385 l 1
 416 387 456 408 464 450 c 0
 471 490 446 512 400 514 c 1
 266 516 l 1
626 926 m 1
 430 780 l 1
 324 834 l 1
 494 989 l 1
 626 926 l 1
EndSplineSet
EndChar

StartChar: uni0156
Encoding: 342 342 325
Width: 679
VWidth: 0
Flags: HMW
LayerCount: 2
Fore
SplineSet
292 300 m 1
 508 300 l 1
 650 0 l 1
 406 0 l 1
 292 300 l 1
159 700 m 1
 376 700 l 1
 256 0 l 1
 39 0 l 1
 159 700 l 1
266 516 m 1
 297 700 l 1
 440 700 l 1
 614 698 714 606 692 460 c 0
 669 313 550 222 370 220 c 1
 214 220 l 1
 244 385 l 1
 368 385 l 1
 416 387 456 408 464 450 c 0
 471 490 446 512 400 514 c 1
 266 516 l 1
282 -61 m 1
 470 -96 l 1
 298 -343 l 1
 152 -317 l 1
 282 -61 l 1
EndSplineSet
EndChar

StartChar: uni0157
Encoding: 343 343 326
Width: 439
VWidth: 0
Flags: HMW
LayerCount: 2
Fore
SplineSet
286 460 m 1
 207 0 l 1
 20 0 l 1
 98 460 l 1
 286 460 l 1
380 262 m 1
 368 276 353 290 330 290 c 0
 286 291 252 247 241 195 c 1
 218 281 l 1
 235 377 311 475 405 472 c 0
 439 471 466 452 482 428 c 1
 380 262 l 1
48 -61 m 1
 238 -96 l 1
 66 -343 l 1
 -80 -317 l 1
 48 -61 l 1
EndSplineSet
EndChar

StartChar: Scedilla
Encoding: 350 350 327
Width: 652
VWidth: 0
Flags: HMW
LayerCount: 2
Fore
SplineSet
186 266 m 1
 222 201 259 158 325 158 c 0
 359 158 392 170 398 200 c 0
 408 244 343 256 289 280 c 0
 209 316 115 385 130 510 c 0
 150 640 277 720 426 720 c 0
 568 720 651 653 679 562 c 1
 509 474 l 1
 485 516 459 538 417 538 c 0
 387 538 354 525 348 503 c 0
 337 462 431 443 485 423 c 0
 587 383 640 307 626 200 c 0
 604 46 465 -30 300 -30 c 0
 172 -30 62 42 28 160 c 1
 186 266 l 1
256 62 m 1
 401 56 l 1
 276 -72 l 1
 291 -68 307 -66 324 -66 c 0
 376 -68 420 -114 412 -179 c 0
 402 -255 323 -294 254 -296 c 0
 191 -298 138 -283 83 -254 c 1
 145 -171 l 1
 171 -187 208 -196 230 -196 c 0
 256 -196 293 -186 295 -162 c 0
 297 -138 259 -134 239 -134 c 0
 217 -133 177 -138 139 -148 c 1
 256 62 l 1
EndSplineSet
EndChar

StartChar: scedilla
Encoding: 351 351 328
Width: 473
VWidth: 0
Flags: HMW
LayerCount: 2
Fore
SplineSet
75 182 m 1
 145 130 194 106 230 110 c 0
 244 111 260 120 262 134 c 0
 266 164 220 174 184 186 c 0
 118 210 69 253 79 334 c 0
 93 422 177 470 278 470 c 0
 355 470 420 445 485 414 c 1
 419 283 l 1
 381 317 334 347 292 346 c 0
 272 346 254 338 251 326 c 0
 244 294 306 286 346 270 c 0
 409 246 459 208 450 130 c 0
 437 26 359 -23 251 -24 c 0
 155 -25 74 4 -6 48 c 1
 75 182 l 1
198 66 m 1
 342 60 l 1
 218 -67 l 1
 233 -63 249 -62 266 -62 c 0
 318 -64 362 -109 354 -174 c 0
 344 -250 265 -289 196 -291 c 0
 133 -293 79 -278 24 -249 c 1
 86 -166 l 1
 112 -182 150 -192 172 -192 c 0
 198 -192 235 -181 237 -157 c 0
 239 -133 200 -129 180 -129 c 0
 158 -128 118 -133 80 -143 c 1
 198 66 l 1
EndSplineSet
EndChar

StartChar: Zcaron
Encoding: 381 381 329
Width: 645
VWidth: 0
Flags: HMW
LayerCount: 2
Fore
SplineSet
125 505 m 1
 159 700 l 1
 732 700 l 1
 346 186 l 1
 598 185 l 1
 566 0 l 1
 -27 0 l 1
 352 504 l 1
 125 505 l 1
479 932 m 1
 570 1010 l 1
 694 916 l 1
 462 780 l 1
 268 924 l 1
 415 1011 l 1
 479 932 l 1
EndSplineSet
EndChar

StartChar: zcaron
Encoding: 382 382 330
Width: 533
VWidth: 0
Flags: HMW
LayerCount: 2
Fore
SplineSet
381 682 m 1
 472 760 l 1
 596 666 l 1
 364 530 l 1
 170 674 l 1
 317 761 l 1
 381 682 l 1
242 284 m 1
 82 286 l 1
 113 460 l 1
 585 460 l 1
 344 176 l 1
 495 175 l 1
 464 0 l 1
 -18 0 l 1
 242 284 l 1
EndSplineSet
EndChar

StartChar: Ydieresis
Encoding: 376 376 331
Width: 698
VWidth: 0
Flags: HMW
LayerCount: 2
Fore
SplineSet
209 896 m 0
 217 952 271 992 328 992 c 0
 386 992 429 951 421 894 c 0
 413 838 359 798 302 798 c 0
 244 798 201 839 209 896 c 0
529 896 m 0
 537 952 591 992 648 992 c 0
 706 992 749 951 741 894 c 0
 733 838 679 798 622 798 c 0
 564 798 521 839 529 896 c 0
545 700 m 1
 800 700 l 1
 479 270 l 1
 434 0 l 1
 212 0 l 1
 261 279 l 1
 89 700 l 1
 334 700 l 1
 401 478 l 1
 545 700 l 1
EndSplineSet
EndChar

StartChar: Scaron
Encoding: 352 352 332
Width: 652
VWidth: 0
Flags: HMW
LayerCount: 2
Fore
SplineSet
186 266 m 1
 222 201 259 158 325 158 c 0
 359 158 392 170 398 200 c 0
 408 244 343 256 289 280 c 0
 209 316 115 385 130 510 c 0
 150 640 277 720 426 720 c 0
 568 720 651 653 679 562 c 1
 509 474 l 1
 485 516 459 538 417 538 c 0
 387 538 354 525 348 503 c 0
 337 462 431 443 485 423 c 0
 587 383 640 307 626 200 c 0
 604 46 465 -30 300 -30 c 0
 172 -30 62 42 28 160 c 1
 186 266 l 1
464 932 m 1
 555 1010 l 1
 680 916 l 1
 448 780 l 1
 254 924 l 1
 400 1011 l 1
 464 932 l 1
EndSplineSet
EndChar

StartChar: scaron
Encoding: 353 353 333
Width: 473
VWidth: 0
Flags: HMW
LayerCount: 2
Fore
SplineSet
75 182 m 1
 147 136 196 116 231 117 c 0
 243 117 260 120 262 132 c 0
 266 158 180 168 145 186 c 0
 88 215 52 260 60 330 c 0
 74 427 174 470 278 470 c 0
 355 470 420 445 485 414 c 1
 420 283 l 1
 380 317 325 339 282 339 c 0
 262 339 242 334 240 322 c 0
 236 297 307 285 346 270 c 0
 409 246 459 208 450 130 c 0
 437 26 359 -23 251 -24 c 0
 155 -25 74 4 -6 48 c 1
 75 182 l 1
312 662 m 1
 404 741 l 1
 528 648 l 1
 296 511 l 1
 102 654 l 1
 248 742 l 1
 312 662 l 1
EndSplineSet
EndChar

StartChar: Lslash
Encoding: 321 321 334
Width: 567
VWidth: 0
Flags: HMW
LayerCount: 2
Fore
SplineSet
31 290 m 1
 -6 380 l 1
 449 666 l 1
 486 578 l 1
 31 290 l 1
159 700 m 1
 376 700 l 1
 288 185 l 1
 564 185 l 1
 532 0 l 1
 39 0 l 1
 159 700 l 1
EndSplineSet
EndChar

StartChar: lslash
Encoding: 322 322 335
Width: 286
VWidth: 0
Flags: HMW
LayerCount: 2
Fore
SplineSet
12 290 m 1
 -25 380 l 1
 386 636 l 1
 422 548 l 1
 12 290 l 1
153 780 m 1
 346 780 l 1
 212 0 l 1
 20 0 l 1
 153 780 l 1
EndSplineSet
EndChar

StartChar: uni0218
Encoding: 536 536 336
Width: 652
VWidth: 0
Flags: HMW
LayerCount: 2
Fore
SplineSet
186 266 m 1
 222 201 259 158 325 158 c 0
 359 158 392 170 398 200 c 0
 408 244 343 256 289 280 c 0
 209 316 115 385 130 510 c 0
 150 640 277 720 426 720 c 0
 568 720 651 653 679 562 c 1
 509 474 l 1
 485 516 459 538 417 538 c 0
 387 538 354 525 348 503 c 0
 337 462 431 443 485 423 c 0
 587 383 640 307 626 200 c 0
 604 46 465 -30 300 -30 c 0
 172 -30 62 42 28 160 c 1
 186 266 l 1
192 -71 m 1
 384 -106 l 1
 210 -353 l 1
 63 -327 l 1
 192 -71 l 1
EndSplineSet
EndChar

StartChar: uni0219
Encoding: 537 537 337
Width: 473
VWidth: 0
Flags: HMW
LayerCount: 2
Fore
SplineSet
75 182 m 1
 147 136 196 116 231 117 c 0
 243 117 260 120 262 132 c 0
 266 158 180 168 145 186 c 0
 88 215 52 260 60 330 c 0
 74 427 174 470 278 470 c 0
 355 470 420 445 485 414 c 1
 420 283 l 1
 380 317 325 339 282 339 c 0
 262 339 242 334 240 322 c 0
 236 297 307 285 346 270 c 0
 409 246 459 208 450 130 c 0
 437 26 359 -23 251 -24 c 0
 155 -25 74 4 -6 48 c 1
 75 182 l 1
145 -66 m 1
 334 -101 l 1
 162 -348 l 1
 16 -322 l 1
 145 -66 l 1
EndSplineSet
EndChar

StartChar: pi
Encoding: 960 960 338
Width: 621
VWidth: 0
Flags: HMW
LayerCount: 2
Fore
SplineSet
132 430 m 1
 310 430 l 1
 236 0 l 1
 58 0 l 1
 132 430 l 1
79 460 m 1
 636 460 l 1
 608 305 l 1
 52 305 l 1
 79 460 l 1
375 430 m 1
 553 430 l 1
 512 200 l 1
 506 147 518 139 552 131 c 1
 530 -8 l 1
 406 -8 307 -8 323 121 c 1
 375 430 l 1
EndSplineSet
EndChar

StartChar: trademark
Encoding: 8482 8482 339
Width: 771
VWidth: 0
Flags: HMW
LayerCount: 2
Fore
SplineSet
101 602 m 1
 118 700 l 1
 422 700 l 1
 405 602 l 1
 308 602 l 1
 264 350 l 1
 154 350 l 1
 198 602 l 1
 101 602 l 1
681 593 m 1
 786 724 l 1
 783 350 l 1
 668 350 l 1
 681 593 l 1
480 719 m 1
 540 582 l 1
 471 350 l 1
 352 350 l 1
 480 719 l 1
788 726 m 1
 760 580 l 1
 578 380 l 1
 458 591 l 1
 480 717 l 1
 596 530 l 1
 788 726 l 1
EndSplineSet
EndChar

StartChar: uni2219
Encoding: 8729 8729 340
Width: 326
VWidth: 0
Flags: HMW
LayerCount: 2
Fore
SplineSet
98 461 m 0
 106 523 164 574 230 574 c 0
 297 574 338 520 330 459 c 0
 322 397 266 346 200 346 c 0
 133 346 90 400 98 461 c 0
EndSplineSet
EndChar

StartChar: agrave.alt
Encoding: 65537 -1 341
Width: 562
VWidth: 0
Flags: HMW
LayerCount: 2
Fore
SplineSet
206 138 m 0
 204 117 222 107 242 106 c 0
 288 104 328 138 340 190 c 1
 346 129 l 1
 328 44 258 -10 164 -10 c 0
 70 -10 1 41 13 130 c 0
 27 222 121 274 228 274 c 0
 284 274 346 260 380 232 c 1
 368 148 l 1
 342 169 315 181 274 180 c 0
 245 179 210 164 206 138 c 0
144 298 m 1
 104 425 l 1
 172 451 252 475 332 475 c 0
 446 475 556 427 542 320 c 1
 488 0 l 1
 306 0 l 1
 355 272 l 1
 359 306 341 330 299 332 c 0
 240 336 179 312 144 298 c 1
200 688 m 1
 342 746 l 1
 463 582 l 1
 353 535 l 1
 200 688 l 1
EndSplineSet
EndChar

StartChar: aacute.alt
Encoding: 65538 -1 342
Width: 562
VWidth: 0
Flags: HMW
LayerCount: 2
Fore
SplineSet
206 138 m 0
 204 117 222 107 242 106 c 0
 288 104 328 138 340 190 c 1
 346 129 l 1
 328 44 258 -10 164 -10 c 0
 70 -10 1 41 13 130 c 0
 27 222 121 274 228 274 c 0
 284 274 346 260 380 232 c 1
 368 148 l 1
 342 169 315 181 274 180 c 0
 245 179 210 164 206 138 c 0
144 298 m 1
 104 425 l 1
 172 451 252 475 332 475 c 0
 446 475 556 427 542 320 c 1
 488 0 l 1
 306 0 l 1
 355 272 l 1
 359 306 341 330 299 332 c 0
 240 336 179 312 144 298 c 1
550 682 m 1
 354 536 l 1
 249 588 l 1
 418 744 l 1
 550 682 l 1
EndSplineSet
EndChar

StartChar: acircumflex.alt
Encoding: 65539 -1 343
Width: 562
VWidth: 0
Flags: HMW
LayerCount: 2
Fore
SplineSet
206 138 m 0
 204 117 222 107 242 106 c 0
 288 104 328 138 340 190 c 1
 346 129 l 1
 328 44 258 -10 164 -10 c 0
 70 -10 1 41 13 130 c 0
 27 222 121 274 228 274 c 0
 284 274 346 260 380 232 c 1
 368 148 l 1
 342 169 315 181 274 180 c 0
 245 179 210 164 206 138 c 0
144 298 m 1
 104 425 l 1
 172 451 252 475 332 475 c 0
 446 475 556 427 542 320 c 1
 488 0 l 1
 306 0 l 1
 355 272 l 1
 359 306 341 330 299 332 c 0
 240 336 179 312 144 298 c 1
366 614 m 1
 276 535 l 1
 150 628 l 1
 383 765 l 1
 578 622 l 1
 430 534 l 1
 366 614 l 1
EndSplineSet
EndChar

StartChar: atilde.alt
Encoding: 65540 -1 344
Width: 562
VWidth: 0
Flags: HMW
LayerCount: 2
Fore
SplineSet
206 138 m 0
 204 117 222 107 242 106 c 0
 288 104 328 138 340 190 c 1
 346 129 l 1
 328 44 258 -10 164 -10 c 0
 70 -10 1 41 13 130 c 0
 27 222 121 274 228 274 c 0
 284 274 346 260 380 232 c 1
 368 148 l 1
 342 169 315 181 274 180 c 0
 245 179 210 164 206 138 c 0
144 298 m 1
 104 425 l 1
 172 451 252 475 332 475 c 0
 446 475 556 427 542 320 c 1
 488 0 l 1
 306 0 l 1
 355 272 l 1
 359 306 341 330 299 332 c 0
 240 336 179 312 144 298 c 1
153 620 m 1
 175 669 221 722 291 720 c 0
 347 719 370 664 422 666 c 0
 454 667 479 694 501 721 c 1
 574 626 l 1
 546 586 482 534 416 536 c 0
 366 538 329 595 280 591 c 0
 248 589 234 559 226 541 c 1
 153 620 l 1
EndSplineSet
EndChar

StartChar: adieresis.alt
Encoding: 65541 -1 345
Width: 562
VWidth: 0
Flags: HMW
LayerCount: 2
Fore
SplineSet
206 138 m 0
 204 117 222 107 242 106 c 0
 288 104 328 138 340 190 c 1
 346 129 l 1
 328 44 258 -10 164 -10 c 0
 70 -10 1 41 13 130 c 0
 27 222 121 274 228 274 c 0
 284 274 346 260 380 232 c 1
 368 148 l 1
 342 169 315 181 274 180 c 0
 245 179 210 164 206 138 c 0
144 298 m 1
 104 425 l 1
 172 451 252 475 332 475 c 0
 446 475 556 427 542 320 c 1
 488 0 l 1
 306 0 l 1
 355 272 l 1
 359 306 341 330 299 332 c 0
 240 336 179 312 144 298 c 1
390 634 m 0
 398 690 451 730 508 730 c 0
 566 730 610 689 602 632 c 0
 594 576 541 536 484 536 c 0
 426 536 382 577 390 634 c 0
128 634 m 0
 136 690 189 730 246 730 c 0
 304 730 348 689 340 632 c 0
 332 576 279 536 222 536 c 0
 164 536 120 577 128 634 c 0
EndSplineSet
EndChar

StartChar: aring.alt
Encoding: 65542 -1 346
Width: 562
VWidth: 0
Flags: HMW
LayerCount: 2
Fore
SplineSet
206 138 m 0
 204 117 222 107 242 106 c 0
 288 104 328 138 340 190 c 1
 346 129 l 1
 328 44 258 -10 164 -10 c 0
 70 -10 1 41 13 130 c 0
 27 222 121 274 228 274 c 0
 284 274 346 260 380 232 c 1
 368 148 l 1
 342 169 315 181 274 180 c 0
 245 179 210 164 206 138 c 0
144 298 m 1
 104 425 l 1
 172 451 252 475 332 475 c 0
 446 475 556 427 542 320 c 1
 488 0 l 1
 306 0 l 1
 355 272 l 1
 359 306 341 330 299 332 c 0
 240 336 179 312 144 298 c 1
234 661 m 0
 244 733 309 784 385 784 c 0
 461 784 516 731 506 659 c 0
 496 587 428 536 352 536 c 0
 276 536 224 589 234 661 c 0
327 659 m 0
 325 637 336 617 358 616 c 0
 382 615 408 637 412 661 c 0
 414 683 402 703 380 704 c 0
 356 705 331 683 327 659 c 0
EndSplineSet
EndChar

StartChar: amacron.alt
Encoding: 65543 -1 347
Width: 562
VWidth: 0
Flags: HMW
LayerCount: 2
Fore
SplineSet
206 138 m 0
 204 117 222 107 242 106 c 0
 288 104 328 138 340 190 c 1
 346 129 l 1
 328 44 258 -10 164 -10 c 0
 70 -10 1 41 13 130 c 0
 27 222 121 274 228 274 c 0
 284 274 346 260 380 232 c 1
 368 148 l 1
 342 169 315 181 274 180 c 0
 245 179 210 164 206 138 c 0
144 298 m 1
 104 425 l 1
 172 451 252 475 332 475 c 0
 446 475 556 427 542 320 c 1
 488 0 l 1
 306 0 l 1
 355 272 l 1
 359 306 341 330 299 332 c 0
 240 336 179 312 144 298 c 1
159 535 m 1
 188 700 l 1
 566 700 l 1
 537 535 l 1
 159 535 l 1
EndSplineSet
EndChar

StartChar: abreve.alt
Encoding: 65544 -1 348
Width: 562
VWidth: 0
Flags: HMW
LayerCount: 2
Fore
SplineSet
206 138 m 0
 204 117 222 107 242 106 c 0
 288 104 328 138 340 190 c 1
 346 129 l 1
 328 44 258 -10 164 -10 c 0
 70 -10 1 41 13 130 c 0
 27 222 121 274 228 274 c 0
 284 274 346 260 380 232 c 1
 368 148 l 1
 342 169 315 181 274 180 c 0
 245 179 210 164 206 138 c 0
144 298 m 1
 104 425 l 1
 172 451 252 475 332 475 c 0
 446 475 556 427 542 320 c 1
 488 0 l 1
 306 0 l 1
 355 272 l 1
 359 306 341 330 299 332 c 0
 240 336 179 312 144 298 c 1
209 685 m 1
 320 685 l 1
 321 654 336 638 360 636 c 0
 384 634 412 654 420 684 c 1
 537 684 l 1
 519 598 454 536 354 536 c 0
 254 536 203 597 209 685 c 1
EndSplineSet
EndChar

StartChar: aogonek.alt
Encoding: 65545 -1 349
Width: 562
VWidth: 0
Flags: HMW
LayerCount: 2
Fore
SplineSet
206 138 m 0
 204 117 222 107 242 106 c 0
 288 104 328 138 340 190 c 1
 346 129 l 1
 328 44 258 -10 164 -10 c 0
 70 -10 1 41 13 130 c 0
 27 222 121 274 228 274 c 0
 284 274 346 260 380 232 c 1
 368 148 l 1
 342 169 315 181 274 180 c 0
 245 179 210 164 206 138 c 0
144 298 m 1
 104 425 l 1
 172 451 252 475 332 475 c 0
 446 475 556 427 542 320 c 1
 488 0 l 1
 306 0 l 1
 355 272 l 1
 359 306 341 330 299 332 c 0
 240 336 179 312 144 298 c 1
425 -100 m 1
 446 -182 l 1
 422 -203 390 -220 338 -220 c 0
 282 -219 232 -183 240 -119 c 0
 250 -46 331 -8 398 25 c 1
 440 0 l 1
 398 -28 360 -55 353 -90 c 0
 351 -104 355 -118 372 -120 c 0
 388 -122 411 -110 425 -100 c 1
EndSplineSet
EndChar

StartChar: dagger
Encoding: 8224 8224 350
Width: 650
VWidth: 0
Flags: HMW
LayerCount: 2
Fore
SplineSet
152 540 m 1
 631 540 l 1
 606 385 l 1
 128 385 l 1
 152 540 l 1
327 700 m 1
 505 700 l 1
 374 -150 l 1
 196 -150 l 1
 327 700 l 1
EndSplineSet
EndChar

StartChar: daggerdbl
Encoding: 8225 8225 351
Width: 650
VWidth: 0
Flags: HMW
LayerCount: 2
Fore
SplineSet
96 180 m 1
 576 180 l 1
 551 25 l 1
 72 25 l 1
 96 180 l 1
152 540 m 1
 631 540 l 1
 606 385 l 1
 128 385 l 1
 152 540 l 1
327 700 m 1
 505 700 l 1
 374 -150 l 1
 196 -150 l 1
 327 700 l 1
EndSplineSet
EndChar

StartChar: ellipsis
Encoding: 8230 8230 352
Width: 912
VWidth: 0
Flags: HMW
LayerCount: 2
Fore
SplineSet
34 86 m 0
 42 148 100 200 166 200 c 0
 233 200 274 145 266 84 c 0
 258 22 202 -30 136 -30 c 0
 69 -30 26 25 34 86 c 0
326 86 m 0
 334 148 390 200 456 200 c 0
 523 200 566 145 558 84 c 0
 550 22 492 -30 426 -30 c 0
 359 -30 318 25 326 86 c 0
617 86 m 0
 625 148 682 200 748 200 c 0
 815 200 856 145 848 84 c 0
 840 22 784 -30 718 -30 c 0
 651 -30 609 25 617 86 c 0
EndSplineSet
EndChar

StartChar: uniFF10
Encoding: 65296 65296 353
Width: 640
VWidth: 0
Flags: HMW
LayerCount: 2
Fore
SplineSet
256 350 m 0
 248 272 247 172 316 170 c 0
 387 168 436 262 448 350 c 0
 456 428 457 528 388 530 c 0
 317 532 268 438 256 350 c 0
50 350 m 0
 78 560 214 715 408 715 c 0
 610 715 680 550 654 350 c 0
 626 140 496 -15 296 -15 c 0
 100 -15 24 150 50 350 c 0
EndSplineSet
EndChar

StartChar: uniFF11
Encoding: 65297 65297 354
Width: 640
VWidth: 0
Flags: HMW
LayerCount: 2
Fore
SplineSet
150 458 m 1
 184 643 l 1
 582 716 l 1
 460 0 l 1
 252 0 l 1
 338 498 l 1
 150 458 l 1
EndSplineSet
EndChar

StartChar: uniFF12
Encoding: 65298 65298 355
Width: 640
VWidth: 0
Flags: HMW
LayerCount: 2
Fore
SplineSet
-28 0 m 1
 317 305 l 2
 375 359 435 404 446 466 c 0
 451 499 436 528 392 530 c 0
 339 532 304 479 293 430 c 1
 81 431 l 1
 109 585 231 716 421 716 c 0
 579 716 692 610 672 480 c 0
 660 402 608 344 542 297 c 2
 402 200 l 1
 648 200 l 1
 614 0 l 1
 -28 0 l 1
EndSplineSet
EndChar

StartChar: uniFF13
Encoding: 65299 65299 356
Width: 640
VWidth: 0
Flags: HMW
LayerCount: 2
Fore
SplineSet
298 336 m 1
 310 424 l 1
 368 428 438 454 444 502 c 0
 446 528 429 543 395 544 c 0
 351 546 319 513 308 476 c 1
 110 477 l 1
 136 614 254 715 414 715 c 0
 562 715 678 642 658 516 c 0
 635 370 460 337 298 336 c 1
291 -20 m 0
 118 -19 24 104 38 245 c 1
 248 244 l 1
 245 186 268 152 318 150 c 0
 362 148 406 170 414 216 c 0
 427 271 368 293 290 295 c 1
 304 398 l 1
 473 396 646 352 622 194 c 0
 601 58 462 -21 291 -20 c 0
EndSplineSet
EndChar

StartChar: uniFF14
Encoding: 65300 65300 357
Width: 640
VWidth: 0
Flags: HMW
LayerCount: 2
Fore
SplineSet
-6 116 m 1
 195 264 l 1
 450 266 l 1
 472 300 l 1
 653 300 l 1
 620 115 l 1
 -6 116 l 1
212 194 m 1
 -10 110 l 1
 453 700 l 1
 634 700 l 1
 514 0 l 1
 287 0 l 1
 312 150 l 1
 343 162 l 1
 386 410 l 1
 212 194 l 1
EndSplineSet
EndChar

StartChar: uniFF15
Encoding: 65301 65301 358
Width: 640
VWidth: 0
Flags: HMW
LayerCount: 2
Fore
SplineSet
620 220 m 0
 597 60 430 -14 288 -15 c 0
 176 -15 84 10 2 43 c 1
 90 236 l 1
 148 202 206 185 252 185 c 0
 314 185 379 196 387 250 c 0
 395 302 330 310 284 310 c 0
 224 311 143 300 72 278 c 1
 236 373 l 1
 298 423 362 446 442 445 c 0
 556 443 636 349 620 220 c 0
368 510 m 1
 281 356 l 1
 66 274 l 1
 239 700 l 1
 680 700 l 1
 648 510 l 1
 368 510 l 1
EndSplineSet
EndChar

StartChar: uniFF16
Encoding: 65302 65302 359
Width: 640
VWidth: 0
Flags: HMW
LayerCount: 2
Fore
SplineSet
245 254 m 0
 237 205 265 167 316 166 c 0
 368 165 417 204 426 256 c 0
 434 304 408 345 356 346 c 0
 303 348 254 306 245 254 c 0
379 694 m 1
 660 694 l 1
 396 466 l 1
 336 439 l 1
 376 469 409 482 457 482 c 0
 569 482 657 382 641 254 c 0
 617 77 464 -20 295 -20 c 0
 130 -20 6 81 30 255 c 0
 44 344 103 415 166 480 c 2
 379 694 l 1
EndSplineSet
EndChar

StartChar: uniFF17
Encoding: 65303 65303 360
Width: 640
VWidth: 0
Flags: HMW
LayerCount: 2
Fore
SplineSet
82 495 m 1
 117 700 l 1
 724 700 l 1
 274 0 l 1
 34 0 l 1
 370 494 l 1
 82 495 l 1
EndSplineSet
EndChar

StartChar: uniFF18
Encoding: 65304 65304 361
Width: 640
VWidth: 0
Flags: HMW
LayerCount: 2
Fore
SplineSet
146 532 m 0
 164 660 298 720 430 720 c 0
 556 720 678 660 660 530 c 0
 642 397 495 335 376 335 c 0
 263 335 128 399 146 532 c 0
344 510 m 0
 340 480 354 452 386 450 c 0
 419 448 451 480 455 512 c 0
 459 542 446 568 414 570 c 0
 381 572 348 542 344 510 c 0
64 190 m 0
 84 339 249 400 374 400 c 0
 492 400 646 340 626 190 c 0
 606 52 455 -20 315 -20 c 0
 183 -20 44 51 64 190 c 0
286 224 m 0
 280 186 298 158 336 156 c 0
 375 154 410 186 416 226 c 0
 420 258 402 288 366 290 c 0
 328 292 292 258 286 224 c 0
EndSplineSet
EndChar

StartChar: uniFF19
Encoding: 65305 65305 362
Width: 640
VWidth: 0
Flags: HMW
LayerCount: 2
Fore
SplineSet
459 446 m 0
 467 495 439 533 388 534 c 0
 336 535 287 496 278 444 c 0
 270 396 296 355 348 354 c 0
 401 352 450 394 459 446 c 0
325 6 m 1
 44 6 l 1
 308 234 l 1
 368 261 l 1
 328 231 294 218 246 218 c 0
 134 218 47 318 63 446 c 0
 87 623 240 720 409 720 c 0
 574 720 698 619 674 445 c 0
 660 356 601 285 538 220 c 2
 325 6 l 1
EndSplineSet
EndChar

StartChar: caron
Encoding: 711 711 363
Width: 465
VWidth: 0
Flags: HMW
LayerCount: 2
Fore
SplineSet
320 690 m 1
 410 769 l 1
 535 676 l 1
 302 539 l 1
 108 682 l 1
 256 770 l 1
 320 690 l 1
EndSplineSet
EndChar

StartChar: napostrophe
Encoding: 329 329 364
Width: 790
VWidth: 0
Flags: HMW
LayerCount: 2
Fore
SplineSet
495 460 m 1
 416 0 l 1
 223 0 l 1
 302 460 l 1
 495 460 l 1
564 280 m 1
 567 312 569 341 533 345 c 0
 497 349 472 314 464 280 c 1
 436 271 l 1
 454 375 507 470 627 471 c 0
 743 472 780 402 767 300 c 1
 716 0 l 1
 514 0 l 1
 564 280 l 1
187 700 m 1
 383 700 l 1
 234 430 l 1
 92 430 l 1
 187 700 l 1
EndSplineSet
EndChar

StartChar: IJ
Encoding: 306 306 365
Width: 684
VWidth: 0
Flags: HMW
LayerCount: 2
Fore
SplineSet
198 -40 m 1
 220 -54 246 -70 272 -70 c 0
 308 -70 342 -40 350 6 c 1
 470 700 l 1
 710 700 l 1
 583 -50 l 2
 558 -192 424 -250 282 -250 c 0
 197 -250 120 -222 60 -188 c 1
 198 -40 l 1
159 700 m 1
 380 700 l 1
 260 0 l 1
 39 0 l 1
 159 700 l 1
EndSplineSet
EndChar

StartChar: ij
Encoding: 307 307 366
Width: 549
VWidth: 0
Flags: HMW
LayerCount: 2
Fore
SplineSet
384 624 m 0
 392 680 445 720 502 720 c 0
 560 720 604 677 596 620 c 0
 588 564 534 524 477 524 c 0
 419 524 376 567 384 624 c 0
189 -56 m 1
 199 -63 214 -80 228 -80 c 0
 258 -82 280 -53 286 -24 c 1
 370 460 l 1
 553 460 l 1
 462 -80 l 2
 443 -180 366 -250 244 -250 c 0
 175 -250 132 -220 100 -192 c 1
 189 -56 l 1
112 624 m 0
 120 680 173 720 230 720 c 0
 288 720 332 677 324 620 c 0
 316 564 263 524 206 524 c 0
 148 524 104 567 112 624 c 0
98 460 m 1
 282 460 l 1
 204 0 l 1
 18 0 l 1
 98 460 l 1
EndSplineSet
EndChar

StartChar: uni0237
Encoding: 567 567 367
Width: 276
VWidth: 0
Flags: HMW
LayerCount: 2
Fore
SplineSet
-83 -56 m 1
 -73 -69 -62 -80 -44 -80 c 0
 -14 -80 8 -54 14 -24 c 1
 98 460 l 1
 282 460 l 1
 190 -80 l 2
 171 -180 94 -250 -28 -250 c 0
 -97 -250 -140 -220 -172 -192 c 1
 -83 -56 l 1
EndSplineSet
EndChar

StartChar: Sacute
Encoding: 346 346 368
Width: 652
VWidth: 0
Flags: HMW
LayerCount: 2
Fore
SplineSet
186 266 m 1
 222 201 259 158 325 158 c 0
 359 158 392 170 398 200 c 0
 408 244 343 256 289 280 c 0
 209 316 115 385 130 510 c 0
 150 640 277 720 426 720 c 0
 568 720 651 653 679 562 c 1
 509 474 l 1
 485 516 459 538 417 538 c 0
 387 538 354 525 348 503 c 0
 337 462 431 443 485 423 c 0
 587 383 640 307 626 200 c 0
 604 46 465 -30 300 -30 c 0
 172 -30 62 42 28 160 c 1
 186 266 l 1
644 926 m 1
 448 780 l 1
 343 834 l 1
 512 989 l 1
 644 926 l 1
EndSplineSet
EndChar

StartChar: sacute
Encoding: 347 347 369
Width: 473
VWidth: 0
Flags: HMW
LayerCount: 2
Fore
SplineSet
75 182 m 1
 147 136 196 116 231 117 c 0
 243 117 260 120 262 132 c 0
 266 158 180 168 145 186 c 0
 88 215 52 260 60 330 c 0
 74 427 174 470 278 470 c 0
 355 470 420 445 485 414 c 1
 420 283 l 1
 380 317 325 339 282 339 c 0
 262 339 242 334 240 322 c 0
 236 297 307 285 346 270 c 0
 409 246 459 208 450 130 c 0
 437 26 359 -23 251 -24 c 0
 155 -25 74 4 -6 48 c 1
 75 182 l 1
496 678 m 1
 300 532 l 1
 194 584 l 1
 364 740 l 1
 496 678 l 1
EndSplineSet
EndChar

StartChar: Scircumflex
Encoding: 348 348 370
Width: 652
VWidth: 0
Flags: HMW
LayerCount: 2
Fore
SplineSet
186 266 m 1
 222 201 259 158 325 158 c 0
 359 158 392 170 398 200 c 0
 408 244 343 256 289 280 c 0
 209 316 115 385 130 510 c 0
 150 640 277 720 426 720 c 0
 568 720 651 653 679 562 c 1
 509 474 l 1
 485 516 459 538 417 538 c 0
 387 538 354 525 348 503 c 0
 337 462 431 443 485 423 c 0
 587 383 640 307 626 200 c 0
 604 46 465 -30 300 -30 c 0
 172 -30 62 42 28 160 c 1
 186 266 l 1
460 858 m 1
 370 780 l 1
 244 874 l 1
 477 1010 l 1
 672 866 l 1
 524 779 l 1
 460 858 l 1
EndSplineSet
EndChar

StartChar: scircumflex
Encoding: 349 349 371
Width: 473
VWidth: 0
Flags: HMW
LayerCount: 2
Fore
SplineSet
75 182 m 1
 147 136 196 116 231 117 c 0
 243 117 260 120 262 132 c 0
 266 158 180 168 145 186 c 0
 88 215 52 260 60 330 c 0
 74 427 174 470 278 470 c 0
 355 470 420 445 485 414 c 1
 420 283 l 1
 380 317 325 339 282 339 c 0
 262 339 242 334 240 322 c 0
 236 297 307 285 346 270 c 0
 409 246 459 208 450 130 c 0
 437 26 359 -23 251 -24 c 0
 155 -25 74 4 -6 48 c 1
 75 182 l 1
332 610 m 1
 241 531 l 1
 116 624 l 1
 348 761 l 1
 542 618 l 1
 396 530 l 1
 332 610 l 1
EndSplineSet
EndChar

StartChar: uni1E9E
Encoding: 7838 7838 372
Width: 874
VWidth: 0
Flags: HMW
LayerCount: 2
Fore
SplineSet
622 -12 m 0
 744 -12 825 48 825 149 c 0
 825 271 749 285 749 346 c 0
 749 401 834 457 834 541 c 0
 834 633 734 720 530 720 c 0
 236 720 142 551 110 352 c 2
 50 -2 l 1
 278 -2 l 1
 338 330 l 2
 357 439 401 525 507 525 c 0
 552 525 593 509 593 477 c 0
 593 437 518 409 518 351 c 0
 518 270 593 269 593 200 c 0
 593 174 571 162 535 162 c 0
 504 162 451 175 388 198 c 1
 350 22 l 1
 427 1 538 -12 622 -12 c 0
EndSplineSet
EndChar

StartChar: Zacute
Encoding: 377 377 373
Width: 645
VWidth: 0
Flags: HW
LayerCount: 2
Fore
SplineSet
125 505 m 1
 159 700 l 1
 732 700 l 1
 346 186 l 1
 598 185 l 1
 566 0 l 1
 -27 0 l 1
 352 504 l 1
 125 505 l 1
659 926 m 1
 462 780 l 1
 358 834 l 1
 527 989 l 1
 659 926 l 1
EndSplineSet
EndChar

StartChar: zacute
Encoding: 378 378 374
Width: 543
VWidth: 0
Flags: HW
LayerCount: 2
Fore
SplineSet
240 284 m 1
 82 286 l 1
 113 460 l 1
 585 460 l 1
 346 176 l 1
 495 174 l 1
 464 0 l 1
 -18 0 l 1
 240 284 l 1
561 678 m 1
 364 532 l 1
 260 584 l 1
 429 740 l 1
 561 678 l 1
EndSplineSet
EndChar

StartChar: Zdotaccent
Encoding: 379 379 375
Width: 645
VWidth: 0
Flags: HW
LayerCount: 2
Fore
SplineSet
125 505 m 1
 159 700 l 1
 732 700 l 1
 346 186 l 1
 598 185 l 1
 566 0 l 1
 -27 0 l 1
 352 504 l 1
 125 505 l 1
368 880 m 0
 376 936 429 976 486 976 c 0
 544 976 588 933 580 876 c 0
 572 820 519 780 462 780 c 0
 404 780 360 823 368 880 c 0
EndSplineSet
EndChar

StartChar: zdotaccent
Encoding: 380 380 376
Width: 543
VWidth: 0
Flags: HW
LayerCount: 2
Fore
SplineSet
240 284 m 1
 82 286 l 1
 113 460 l 1
 585 460 l 1
 346 176 l 1
 495 174 l 1
 464 0 l 1
 -18 0 l 1
 240 284 l 1
270 630 m 0
 278 686 331 726 388 726 c 0
 446 726 490 685 482 628 c 0
 474 572 421 532 364 532 c 0
 306 532 262 573 270 630 c 0
EndSplineSet
EndChar

StartChar: Tcaron
Encoding: 356 356 377
Width: 601
VWidth: 0
Flags: HW
LayerCount: 2
Fore
SplineSet
57 505 m 1
 91 700 l 1
 696 700 l 1
 662 505 l 1
 468 505 l 1
 382 0 l 1
 165 0 l 1
 252 505 l 1
 57 505 l 1
428 932 m 1
 519 1010 l 1
 644 916 l 1
 412 780 l 1
 218 924 l 1
 364 1011 l 1
 428 932 l 1
EndSplineSet
EndChar

StartChar: tcaron
Encoding: 357 357 378
Width: 548
VWidth: 0
Flags: HW
LayerCount: 2
Fore
SplineSet
55 460 m 1
 403 460 l 1
 376 305 l 1
 28 305 l 1
 55 460 l 1
164 620 m 1
 348 620 l 1
 241 0 l 1
 58 0 l 1
 164 620 l 1
520 771 m 1
 710 736 l 1
 538 489 l 1
 391 515 l 1
 520 771 l 1
EndSplineSet
EndChar

StartChar: Uring
Encoding: 366 366 379
Width: 723
VWidth: 0
Flags: HW
LayerCount: 2
Fore
SplineSet
154 700 m 1
 371 700 l 1
 292 250 l 2
 286 202 299 158 356 156 c 0
 414 154 450 198 460 250 c 1
 538 700 l 1
 755 700 l 1
 676 230 l 2
 647 50 504 -40 334 -40 c 0
 170 -40 50 50 74 230 c 1
 154 700 l 1
353 906 m 0
 363 978 428 1030 504 1030 c 0
 580 1030 636 976 626 904 c 0
 616 832 548 780 472 780 c 0
 396 780 343 834 353 906 c 0
446 904 m 0
 444 882 456 863 478 862 c 0
 502 861 527 882 531 906 c 0
 533 928 521 949 499 950 c 0
 475 951 450 928 446 904 c 0
EndSplineSet
EndChar

StartChar: uring
Encoding: 367 367 380
Width: 587
VWidth: 0
Flags: HW
LayerCount: 2
Fore
SplineSet
320 0 m 1
 400 460 l 1
 592 460 l 1
 513 0 l 1
 320 0 l 1
250 180 m 1
 247 148 246 119 282 115 c 0
 318 111 344 146 352 180 c 1
 380 189 l 1
 362 85 308 -10 188 -11 c 0
 72 -12 35 58 48 160 c 1
 98 460 l 1
 301 460 l 1
 250 180 l 1
242 657 m 0
 252 729 318 780 394 780 c 0
 470 780 525 727 515 655 c 0
 505 583 437 532 361 532 c 0
 285 532 232 585 242 657 c 0
336 655 m 0
 334 633 345 613 367 612 c 0
 391 611 416 633 420 657 c 0
 422 679 410 699 388 700 c 0
 364 701 340 679 336 655 c 0
EndSplineSet
EndChar

StartChar: uni0400
Encoding: 1024 1024 381
Width: 576
VWidth: 0
Flags: HW
LayerCount: 2
Fore
SplineSet
185 0 m 1
 216 175 l 1
 564 175 l 1
 534 0 l 1
 185 0 l 1
274 525 m 1
 306 700 l 1
 654 700 l 1
 623 525 l 1
 274 525 l 1
232 275 m 1
 262 445 l 1
 591 445 l 1
 561 275 l 1
 232 275 l 1
158 700 m 1
 367 700 l 1
 247 0 l 1
 38 0 l 1
 158 700 l 1
272 934 m 1
 411 991 l 1
 533 825 l 1
 425 780 l 1
 272 934 l 1
EndSplineSet
EndChar

StartChar: uni0401
Encoding: 1025 1025 382
Width: 576
VWidth: 0
Flags: HW
LayerCount: 2
Fore
SplineSet
185 0 m 1
 216 175 l 1
 564 175 l 1
 534 0 l 1
 185 0 l 1
274 525 m 1
 306 700 l 1
 654 700 l 1
 623 525 l 1
 274 525 l 1
232 275 m 1
 262 445 l 1
 591 445 l 1
 561 275 l 1
 232 275 l 1
158 700 m 1
 367 700 l 1
 247 0 l 1
 38 0 l 1
 158 700 l 1
460 880 m 0
 466 936 520 976 577 976 c 0
 635 976 680 934 673 876 c 0
 667 820 614 780 557 780 c 0
 499 780 453 822 460 880 c 0
198 880 m 0
 204 936 258 976 315 976 c 0
 373 976 418 934 411 876 c 0
 405 820 352 780 295 780 c 0
 237 780 191 822 198 880 c 0
EndSplineSet
EndChar

StartChar: uni0403
Encoding: 1027 1027 383
Width: 533
VWidth: 0
Flags: HW
LayerCount: 2
Fore
SplineSet
168 700 m 1
 620 700 l 1
 586 505 l 1
 353 505 l 1
 266 0 l 1
 48 0 l 1
 168 700 l 1
609 925 m 1
 414 780 l 1
 306 836 l 1
 474 990 l 1
 609 925 l 1
EndSplineSet
EndChar

StartChar: uni040C
Encoding: 1036 1036 384
Width: 656
VWidth: 0
Flags: HW
LayerCount: 2
Fore
SplineSet
158 700 m 1
 386 700 l 1
 266 0 l 1
 38 0 l 1
 158 700 l 1
584 700 m 1
 848 700 l 1
 518 365 l 1
 732 0 l 1
 481 0 l 1
 266 372 l 1
 584 700 l 1
676 915 m 1
 482 770 l 1
 374 826 l 1
 541 980 l 1
 676 915 l 1
EndSplineSet
EndChar

StartChar: uni040D
Encoding: 1037 1037 385
Width: 781
VWidth: 0
Flags: HW
LayerCount: 2
Fore
SplineSet
764 470 m 1
 28 -46 l 1
 83 230 l 1
 820 746 l 1
 764 470 l 1
367 700 m 1
 274 160 l 1
 28 -46 l 1
 158 700 l 1
 367 700 l 1
820 746 m 1
 688 0 l 1
 479 0 l 1
 571 530 l 1
 820 746 l 1
368 920 m 1
 508 976 l 1
 630 810 l 1
 522 764 l 1
 368 920 l 1
EndSplineSet
EndChar

StartChar: uni040E
Encoding: 1038 1038 386
Width: 611
VWidth: 0
Flags: HW
LayerCount: 2
Fore
SplineSet
724 700 m 1
 286 0 l 1
 70 0 l 1
 208 225 l 1
 79 700 l 1
 301 700 l 1
 361 315 l 1
 272 316 l 1
 504 700 l 1
 724 700 l 1
270 930 m 1
 382 930 l 1
 383 900 398 883 420 881 c 0
 444 879 473 900 481 930 c 1
 600 928 l 1
 584 841 520 780 420 780 c 0
 320 780 266 841 270 930 c 1
EndSplineSet
EndChar

StartChar: uni0410
Encoding: 1040 1040 387
Width: 756
VWidth: 0
Flags: HW
LayerCount: 2
Fore
SplineSet
186 90 m 1
 214 248 l 1
 578 248 l 1
 550 90 l 1
 186 90 l 1
422 383 m 1
 304 188 l 1
 312 138 l 1
 216 0 l 1
 -38 0 l 1
 478 754 l 1
 733 0 l 1
 494 0 l 1
 442 133 l 1
 468 189 l 1
 422 383 l 1
EndSplineSet
EndChar

StartChar: uni0411
Encoding: 1041 1041 388
Width: 725
VWidth: 0
Flags: HW
LayerCount: 2
Fore
SplineSet
145 276 m 1
 170 445 l 1
 496 445 l 2
 624 445 716 350 700 224 c 0
 683 96 570 0 438 0 c 2
 93 0 l 1
 124 175 l 1
 398 175 l 2
 442 175 471 189 479 226 c 0
 487 260 463 274 423 274 c 2
 145 276 l 1
168 700 m 1
 731 700 l 1
 700 525 l 1
 362 525 l 1
 272 0 l 1
 48 0 l 1
 168 700 l 1
EndSplineSet
EndChar

StartChar: uni0412
Encoding: 1042 1042 389
Width: 707
VWidth: 0
Flags: HW
LayerCount: 2
Fore
SplineSet
253 335 m 1
 270 424 l 1
 374 425 l 2
 418 425 454 446 462 484 c 0
 468 519 446 535 406 535 c 2
 352 536 l 1
 284 164 l 1
 350 164 l 2
 398 165 450 175 458 228 c 0
 465 272 426 279 384 280 c 2
 244 280 l 1
 266 400 l 1
 417 400 l 2
 545 398 695 339 677 192 c 0
 659 48 527 1 367 0 c 2
 39 0 l 1
 159 700 l 1
 448 700 l 2
 578 698 711 647 694 520 c 0
 678 394 542 337 404 335 c 2
 253 335 l 1
EndSplineSet
EndChar

StartChar: uni0413
Encoding: 1043 1043 390
Width: 533
VWidth: 0
Flags: HW
LayerCount: 2
Fore
SplineSet
168 700 m 1
 620 700 l 1
 586 505 l 1
 353 505 l 1
 266 0 l 1
 48 0 l 1
 168 700 l 1
EndSplineSet
EndChar

StartChar: uni0414
Encoding: 1044 1044 391
Width: 907
VWidth: 0
Flags: HW
LayerCount: 2
Fore
SplineSet
486 354 m 1
 323 30 l 1
 58 30 l 1
 548 740 l 1
 792 30 l 1
 541 30 l 1
 486 354 l 1
616 0 m 1
 234 0 l 1
 214 -110 l 1
 -10 -110 l 1
 41 185 l 1
 872 185 l 1
 820 -110 l 1
 596 -110 l 1
 616 0 l 1
EndSplineSet
EndChar

StartChar: uni0415
Encoding: 1045 1045 392
Width: 618
VWidth: 0
Flags: HW
LayerCount: 2
Fore
SplineSet
186 0 m 1
 217 175 l 1
 566 175 l 1
 535 0 l 1
 186 0 l 1
276 525 m 1
 307 700 l 1
 655 700 l 1
 624 525 l 1
 276 525 l 1
234 275 m 1
 264 445 l 1
 592 445 l 1
 562 275 l 1
 234 275 l 1
159 700 m 1
 368 700 l 1
 248 0 l 1
 39 0 l 1
 159 700 l 1
EndSplineSet
EndChar

StartChar: uni0416
Encoding: 1046 1046 393
Width: 1164
VWidth: 0
Flags: HW
LayerCount: 2
Fore
SplineSet
346 700 m 1
 566 362 l 1
 223 0 l 1
 -40 0 l 1
 322 379 l 1
 106 700 l 1
 346 700 l 1
560 700 m 1
 790 700 l 1
 670 0 l 1
 440 0 l 1
 560 700 l 1
982 700 m 1
 1255 700 l 1
 916 365 l 1
 1138 0 l 1
 888 0 l 1
 671 378 l 1
 982 700 l 1
EndSplineSet
EndChar

StartChar: uni0417
Encoding: 1047 1047 394
Width: 685
VWidth: 0
Flags: HW
LayerCount: 2
Fore
SplineSet
336 334 m 1
 348 424 l 1
 418 426 485 442 494 492 c 0
 499 524 472 543 430 544 c 0
 372 546 338 516 324 476 c 1
 123 477 l 1
 147 620 265 715 443 715 c 0
 601 715 730 646 710 516 c 0
 688 367 498 335 336 334 c 1
346 -20 m 0
 144 -20 36 93 49 245 c 1
 259 244 l 1
 257 182 290 152 348 150 c 0
 400 148 453 166 464 216 c 0
 480 273 415 293 332 295 c 1
 344 398 l 1
 513 397 696 352 674 194 c 0
 655 56 522 -20 346 -20 c 0
EndSplineSet
EndChar

StartChar: uni0418
Encoding: 1048 1048 395
Width: 781
VWidth: 0
Flags: HW
LayerCount: 2
Fore
SplineSet
764 470 m 1
 28 -46 l 1
 83 230 l 1
 820 746 l 1
 764 470 l 1
367 700 m 1
 274 160 l 1
 28 -46 l 1
 158 700 l 1
 367 700 l 1
820 746 m 1
 688 0 l 1
 479 0 l 1
 571 530 l 1
 820 746 l 1
EndSplineSet
EndChar

StartChar: uni0419
Encoding: 1049 1049 396
Width: 781
VWidth: 0
Flags: HW
LayerCount: 2
Fore
SplineSet
764 470 m 1
 28 -46 l 1
 83 230 l 1
 820 746 l 1
 764 470 l 1
367 700 m 1
 274 160 l 1
 28 -46 l 1
 158 700 l 1
 367 700 l 1
820 746 m 1
 688 0 l 1
 479 0 l 1
 571 530 l 1
 820 746 l 1
366 931 m 1
 478 931 l 1
 480 900 494 883 518 881 c 0
 542 879 570 900 578 930 c 1
 694 930 l 1
 678 844 614 781 514 781 c 0
 414 781 362 843 366 931 c 1
EndSplineSet
EndChar

StartChar: uni041A
Encoding: 1050 1050 397
Width: 760
VWidth: 0
Flags: HW
LayerCount: 2
Fore
SplineSet
158 700 m 1
 386 700 l 1
 266 0 l 1
 38 0 l 1
 158 700 l 1
584 700 m 1
 848 700 l 1
 518 365 l 1
 732 0 l 1
 481 0 l 1
 266 372 l 1
 584 700 l 1
EndSplineSet
EndChar

StartChar: uni041B
Encoding: 1051 1051 398
Width: 813
VWidth: 0
Flags: HW
LayerCount: 2
Fore
SplineSet
831 700 m 1
 711 0 l 1
 487 0 l 1
 574 505 l 1
 400 505 l 1
 370 330 l 2
 334 105 218 4 -16 0 c 1
 9 184 l 1
 79 190 126 230 140 302 c 1
 209 700 l 1
 831 700 l 1
EndSplineSet
EndChar

StartChar: uni041C
Encoding: 1052 1052 399
Width: 912
VWidth: 0
Flags: HW
LayerCount: 2
Fore
SplineSet
318 285 m 1
 234 0 l 1
 -2 0 l 1
 250 736 l 1
 485 360 l 1
 859 744 l 1
 857 0 l 1
 626 0 l 1
 638 274 l 1
 444 62 l 1
 318 285 l 1
EndSplineSet
EndChar

StartChar: uni041D
Encoding: 1053 1053 400
Width: 806
VWidth: 0
Flags: HW
LayerCount: 2
Fore
SplineSet
128 265 m 1
 162 460 l 1
 712 460 l 1
 678 265 l 1
 128 265 l 1
614 700 m 1
 833 700 l 1
 713 0 l 1
 494 0 l 1
 614 700 l 1
158 700 m 1
 377 700 l 1
 257 0 l 1
 38 0 l 1
 158 700 l 1
EndSplineSet
EndChar

StartChar: uni041E
Encoding: 1054 1054 401
Width: 814
VWidth: 0
Flags: HW
LayerCount: 2
Fore
SplineSet
290 350 m 0
 276 264 304 180 402 178 c 0
 500 176 572 256 590 350 c 0
 605 437 578 520 478 522 c 0
 380 524 308 444 290 350 c 0
59 350 m 0
 89 564 276 720 494 720 c 0
 710 720 849 560 821 350 c 0
 791 134 609 -30 384 -30 c 0
 163 -30 30 140 59 350 c 0
EndSplineSet
EndChar

StartChar: uni041F
Encoding: 1055 1055 402
Width: 781
VWidth: 0
Flags: HW
LayerCount: 2
Fore
SplineSet
542 505 m 1
 358 505 l 1
 272 0 l 1
 48 0 l 1
 168 700 l 1
 799 700 l 1
 679 0 l 1
 455 0 l 1
 542 505 l 1
EndSplineSet
EndChar

StartChar: uni0420
Encoding: 1056 1056 403
Width: 653
VWidth: 0
Flags: HW
LayerCount: 2
Fore
SplineSet
159 700 m 1
 378 700 l 1
 258 0 l 1
 39 0 l 1
 159 700 l 1
270 526 m 1
 297 700 l 1
 420 700 l 2
 596 698 696 614 674 460 c 0
 652 306 536 222 356 220 c 2
 214 220 l 1
 246 394 l 1
 368 395 l 2
 418 395 458 419 467 461 c 0
 475 501 451 524 405 524 c 2
 270 526 l 1
EndSplineSet
EndChar

StartChar: uni0421
Encoding: 1057 1057 404
Width: 688
VWidth: 0
Flags: HW
LayerCount: 2
Fore
SplineSet
298 350 m 0
 280 255 338 190 434 188 c 0
 524 187 591 231 647 272 c 1
 617 47 l 1
 556 8 491 -20 401 -20 c 0
 173 -20 29 136 59 350 c 0
 91 569 275 720 509 720 c 0
 597 720 656 692 714 652 c 1
 682 426 l 1
 641 474 591 512 507 512 c 0
 407 512 318 450 298 350 c 0
EndSplineSet
EndChar

StartChar: uni0422
Encoding: 1058 1058 405
Width: 604
VWidth: 0
Flags: HW
LayerCount: 2
Fore
SplineSet
57 505 m 1
 91 700 l 1
 698 700 l 1
 664 505 l 1
 470 505 l 1
 384 0 l 1
 165 0 l 1
 252 505 l 1
 57 505 l 1
EndSplineSet
EndChar

StartChar: uni0423
Encoding: 1059 1059 406
Width: 630
VWidth: 0
Flags: HW
LayerCount: 2
Fore
SplineSet
744 700 m 1
 305 0 l 1
 79 0 l 1
 218 225 l 1
 79 700 l 1
 310 700 l 1
 370 315 l 1
 282 316 l 1
 514 700 l 1
 744 700 l 1
EndSplineSet
EndChar

StartChar: uni0424
Encoding: 1060 1060 407
Width: 992
VWidth: 0
Flags: HW
LayerCount: 2
Fore
SplineSet
477 700 m 1
 701 700 l 1
 581 0 l 1
 357 0 l 1
 477 700 l 1
767 350 m 0
 784 424 717 434 640 434 c 2
 464 435 l 2
 379 435 307 424 291 350 c 0
 274 276 341 266 418 266 c 2
 594 265 l 2
 679 265 751 276 767 350 c 0
989 350 m 0
 965 181 806 80 630 80 c 2
 355 80 l 2
 187 80 46 182 69 350 c 0
 93 519 252 620 428 620 c 2
 703 620 l 2
 871 620 1012 518 989 350 c 0
EndSplineSet
EndChar

StartChar: uni0425
Encoding: 1061 1061 408
Width: 789
VWidth: 0
Flags: HW
LayerCount: 2
Fore
SplineSet
560 700 m 1
 840 700 l 1
 553 346 l 1
 726 0 l 1
 463 0 l 1
 395 191 l 1
 259 0 l 1
 -22 0 l 1
 288 362 l 1
 132 700 l 1
 395 700 l 1
 448 536 l 1
 560 700 l 1
EndSplineSet
EndChar

StartChar: uni0426
Encoding: 1062 1062 409
Width: 892
VWidth: 0
Flags: HW
LayerCount: 2
Fore
SplineSet
295 195 m 1
 527 195 l 1
 614 700 l 1
 838 700 l 1
 752 195 l 1
 873 195 l 1
 814 -150 l 1
 599 -150 l 1
 626 0 l 1
 38 0 l 1
 158 700 l 1
 382 700 l 1
 295 195 l 1
EndSplineSet
EndChar

StartChar: uni0427
Encoding: 1063 1063 410
Width: 756
VWidth: 0
Flags: HW
LayerCount: 2
Fore
SplineSet
322 186 m 1
 427 378 l 1
 562 380 l 1
 528 185 l 1
 322 186 l 1
546 700 m 1
 775 700 l 1
 654 0 l 1
 426 0 l 1
 546 700 l 1
382 700 m 1
 340 472 l 1
 330 404 367 378 427 378 c 1
 322 186 l 1
 170 186 96 304 114 438 c 1
 158 700 l 1
 382 700 l 1
EndSplineSet
EndChar

StartChar: uni0428
Encoding: 1064 1064 411
Width: 1106
VWidth: 0
Flags: HW
LayerCount: 2
Fore
SplineSet
818 195 m 1
 905 700 l 1
 1124 700 l 1
 1004 0 l 1
 48 0 l 1
 168 700 l 1
 386 700 l 1
 300 195 l 1
 454 195 l 1
 541 700 l 1
 750 700 l 1
 664 195 l 1
 818 195 l 1
EndSplineSet
EndChar

StartChar: uni0429
Encoding: 1065 1065 412
Width: 1188
VWidth: 0
Flags: HW
LayerCount: 2
Fore
SplineSet
818 195 m 1
 905 700 l 1
 1124 700 l 1
 1038 195 l 1
 1159 195 l 1
 1100 -150 l 1
 886 -150 l 1
 912 0 l 1
 48 0 l 1
 168 700 l 1
 386 700 l 1
 300 195 l 1
 454 195 l 1
 541 700 l 1
 750 700 l 1
 664 195 l 1
 818 195 l 1
EndSplineSet
EndChar

StartChar: uni042A
Encoding: 1066 1066 413
Width: 759
VWidth: 0
Flags: HW
LayerCount: 2
Fore
SplineSet
342 306 m 1
 370 480 l 1
 492 480 l 2
 668 478 769 394 747 240 c 0
 725 86 608 2 428 0 c 2
 287 0 l 1
 318 174 l 1
 441 175 l 2
 491 175 531 199 540 241 c 0
 548 281 524 304 478 304 c 2
 342 306 l 1
241 506 m 1
 66 506 l 1
 100 700 l 1
 494 700 l 1
 374 0 l 1
 154 0 l 1
 241 506 l 1
EndSplineSet
EndChar

StartChar: uni042B
Encoding: 1067 1067 414
Width: 965
VWidth: 0
Flags: HW
LayerCount: 2
Fore
SplineSet
769 700 m 1
 993 700 l 1
 873 0 l 1
 649 0 l 1
 769 700 l 1
158 700 m 1
 377 700 l 1
 257 0 l 1
 38 0 l 1
 158 700 l 1
230 306 m 1
 258 480 l 1
 380 480 l 2
 556 478 658 394 636 240 c 0
 614 86 497 2 317 0 c 2
 175 0 l 1
 206 174 l 1
 330 175 l 2
 380 175 419 199 428 241 c 0
 436 281 412 304 366 304 c 2
 230 306 l 1
EndSplineSet
EndChar

StartChar: uni042C
Encoding: 1068 1068 415
Width: 648
VWidth: 0
Flags: HW
LayerCount: 2
Fore
SplineSet
158 700 m 1
 377 700 l 1
 257 0 l 1
 38 0 l 1
 158 700 l 1
230 306 m 1
 258 480 l 1
 380 480 l 2
 556 478 658 394 636 240 c 0
 614 86 497 2 317 0 c 2
 175 0 l 1
 206 174 l 1
 330 175 l 2
 380 175 419 199 428 241 c 0
 436 281 412 304 366 304 c 2
 230 306 l 1
EndSplineSet
EndChar

StartChar: uni042D
Encoding: 1069 1069 416
Width: 689
VWidth: 0
Flags: HW
LayerCount: 2
Fore
SplineSet
150 265 m 1
 180 435 l 1
 519 435 l 1
 489 265 l 1
 150 265 l 1
485 350 m 0
 505 450 419 520 322 522 c 0
 234 523 164 484 112 458 c 1
 138 653 l 1
 198 692 264 720 354 720 c 0
 582 720 725 564 695 350 c 0
 663 131 480 -20 246 -20 c 0
 158 -20 98 8 40 48 c 1
 66 243 l 1
 106 212 165 178 246 178 c 0
 348 178 464 246 485 350 c 0
EndSplineSet
EndChar

StartChar: uni042E
Encoding: 1070 1070 417
Width: 1174
VWidth: 0
Flags: HW
LayerCount: 2
Fore
SplineSet
128 265 m 1
 162 460 l 1
 566 460 l 1
 532 265 l 1
 128 265 l 1
158 700 m 1
 377 700 l 1
 257 0 l 1
 38 0 l 1
 158 700 l 1
649 350 m 0
 635 264 664 180 762 178 c 0
 860 176 932 256 950 350 c 0
 965 437 937 520 837 522 c 0
 739 524 667 444 649 350 c 0
418 350 m 0
 448 564 635 720 853 720 c 0
 1069 720 1208 560 1180 350 c 0
 1150 134 969 -30 744 -30 c 0
 523 -30 389 140 418 350 c 0
EndSplineSet
EndChar

StartChar: uni042F
Encoding: 1071 1071 418
Width: 679
VWidth: 0
Flags: HW
LayerCount: 2
Fore
SplineSet
444 300 m 1
 226 0 l 1
 -34 0 l 1
 212 300 l 1
 444 300 l 1
707 700 m 1
 587 0 l 1
 368 0 l 1
 488 700 l 1
 707 700 l 1
536 516 m 1
 414 515 l 2
 364 515 323 491 314 449 c 0
 306 409 330 386 376 386 c 2
 516 384 l 1
 486 220 l 1
 344 220 l 1
 170 222 68 313 90 460 c 0
 112 608 229 698 408 700 c 1
 570 700 l 1
 536 516 l 1
EndSplineSet
EndChar

StartChar: uni0430
Encoding: 1072 1072 419
Width: 562
VWidth: 0
Flags: HW
LayerCount: 2
Fore
SplineSet
206 138 m 0
 204 118 221 106 241 106 c 0
 287 104 326 138 338 190 c 1
 346 128 l 1
 328 43 260 -10 167 -10 c 0
 73 -10 0 41 12 131 c 0
 24 223 120 274 226 275 c 0
 283 275 345 260 380 232 c 1
 369 147 l 1
 343 169 317 181 276 180 c 0
 246 180 210 164 206 138 c 0
146 297 m 1
 102 426 l 1
 170 452 250 475 330 475 c 0
 444 475 560 426 542 320 c 2
 490 0 l 1
 304 0 l 1
 355 272 l 2
 361 306 344 330 302 332 c 0
 242 336 181 311 146 297 c 1
EndSplineSet
EndChar

StartChar: uni0431
Encoding: 1073 1073 420
Width: 626
VWidth: 0
Flags: HW
LayerCount: 2
Fore
SplineSet
354 316 m 1
 398 469 l 1
 542 469 631 368 614 230 c 0
 596 88 473 -10 313 -10 c 0
 135 -10 56 111 56 250 c 1
 262 212 l 1
 262 172 284 146 322 146 c 0
 366 146 406 183 414 231 c 0
 423 283 396 316 354 316 c 1
182 231 m 1
 202 369 272 469 398 469 c 1
 354 316 l 1
 308 316 262 283 262 212 c 1
 182 231 l 1
56 250 m 1
 56 439 141 595 296 666 c 0
 375 702 433 726 462 780 c 1
 649 779 l 1
 621 681 534 607 428 561 c 0
 322 515 244 445 236 340 c 1
 258 211 l 1
 56 250 l 1
EndSplineSet
EndChar

StartChar: uni0432
Encoding: 1074 1074 421
Width: 551
VWidth: 0
Flags: HW
LayerCount: 2
Fore
SplineSet
192 240 m 1
 365 240 l 2
 449 239 528 214 518 124 c 0
 510 50 450 0 360 0 c 2
 151 0 l 1
 172 110 l 1
 295 110 l 2
 321 110 340 128 344 146 c 0
 348 162 338 178 316 178 c 2
 184 178 l 1
 192 240 l 1
192 220 m 1
 200 286 l 1
 317 286 l 2
 335 286 351 301 355 319 c 0
 358 333 351 350 336 350 c 2
 210 350 l 1
 230 460 l 1
 392 460 l 2
 472 458 546 421 535 334 c 0
 525 256 447 222 368 220 c 2
 192 220 l 1
122 460 m 1
 307 460 l 1
 228 0 l 1
 42 0 l 1
 122 460 l 1
EndSplineSet
EndChar

StartChar: uni0433
Encoding: 1075 1075 422
Width: 363
VWidth: 0
Flags: HW
LayerCount: 2
Fore
SplineSet
98 460 m 1
 418 460 l 1
 392 305 l 1
 261 305 l 1
 208 0 l 1
 18 0 l 1
 98 460 l 1
EndSplineSet
EndChar

StartChar: uni0434
Encoding: 1076 1076 423
Width: 713
VWidth: 0
Flags: HW
LayerCount: 2
Fore
SplineSet
372 246 m 1
 246 31 l 1
 70 84 l 1
 408 498 l 1
 606 77 l 1
 425 28 l 1
 372 246 l 1
466 0 m 1
 194 0 l 1
 178 -90 l 1
 -7 -90 l 1
 34 145 l 1
 670 145 l 1
 630 -90 l 1
 449 -90 l 1
 466 0 l 1
EndSplineSet
EndChar

StartChar: uni0435
Encoding: 1077 1077 424
Width: 593
VWidth: 0
Flags: HW
LayerCount: 2
Fore
SplineSet
139 190 m 1
 153 284 l 1
 375 284 l 1
 374 319 369 348 332 350 c 0
 279 354 249 303 238 250 c 1
 232 230 l 1
 224 169 238 125 285 121 c 0
 327 118 363 138 385 164 c 1
 562 134 l 1
 504 45 415 -10 289 -10 c 0
 120 -10 19 86 39 230 c 0
 41 247 45 263 50 279 c 0
 87 397 193 470 343 470 c 0
 504 470 591 382 575 238 c 0
 573 226 571 208 567 190 c 1
 139 190 l 1
EndSplineSet
EndChar

StartChar: uni0436
Encoding: 1078 1078 425
Width: 975
VWidth: 0
Flags: HW
LayerCount: 2
Fore
SplineSet
786 460 m 1
 1016 460 l 1
 790 264 l 1
 944 0 l 1
 738 0 l 1
 568 277 l 1
 786 460 l 1
632 460 m 1
 553 0 l 1
 368 0 l 1
 447 460 l 1
 632 460 l 1
279 460 m 1
 446 263 l 1
 194 0 l 1
 -35 0 l 1
 224 277 l 1
 76 460 l 1
 279 460 l 1
EndSplineSet
EndChar

StartChar: uni0437
Encoding: 1079 1079 426
Width: 558
VWidth: 0
Flags: HW
LayerCount: 2
Fore
SplineSet
295 229 m 1
 304 280 l 1
 326 282 349 294 353 312 c 0
 355 325 344 338 326 338 c 0
 304 338 288 322 284 296 c 1
 111 298 l 1
 130 404 212 470 334 470 c 0
 434 470 540 422 528 332 c 0
 516 247 413 225 295 229 c 1
270 -10 m 0
 140 -10 60 52 56 166 c 1
 230 164 l 1
 238 136 253 120 280 120 c 0
 314 120 336 137 339 161 c 0
 343 188 319 197 290 199 c 1
 300 260 l 1
 416 264 525 230 513 134 c 0
 501 38 386 -10 270 -10 c 0
EndSplineSet
EndChar

StartChar: uni0438
Encoding: 1080 1080 427
Width: 601
VWidth: 0
Flags: HW
LayerCount: 2
Fore
SplineSet
574 296 m 1
 8 -44 l 1
 52 164 l 1
 618 504 l 1
 574 296 l 1
282 460 m 1
 224 120 l 1
 8 -44 l 1
 98 460 l 1
 282 460 l 1
618 504 m 1
 528 0 l 1
 344 0 l 1
 402 340 l 1
 618 504 l 1
EndSplineSet
EndChar

StartChar: uni0439
Encoding: 1081 1081 428
Width: 601
VWidth: 0
Flags: HW
LayerCount: 2
Fore
SplineSet
574 296 m 1
 8 -44 l 1
 52 164 l 1
 618 504 l 1
 574 296 l 1
282 460 m 1
 224 120 l 1
 8 -44 l 1
 98 460 l 1
 282 460 l 1
618 504 m 1
 528 0 l 1
 344 0 l 1
 402 340 l 1
 618 504 l 1
220 699 m 1
 331 699 l 1
 333 668 348 652 372 650 c 0
 396 648 423 669 431 699 c 1
 548 698 l 1
 532 612 466 550 366 550 c 0
 266 550 216 611 220 699 c 1
EndSplineSet
EndChar

StartChar: uni043A
Encoding: 1082 1082 429
Width: 632
VWidth: 0
Flags: HW
LayerCount: 2
Fore
SplineSet
98 460 m 1
 282 460 l 1
 204 0 l 1
 18 0 l 1
 98 460 l 1
432 460 m 1
 671 460 l 1
 440 264 l 1
 600 0 l 1
 389 0 l 1
 220 277 l 1
 432 460 l 1
EndSplineSet
EndChar

StartChar: uni043B
Encoding: 1083 1083 430
Width: 643
VWidth: 0
Flags: HW
LayerCount: 2
Fore
SplineSet
620 460 m 1
 541 0 l 1
 356 0 l 1
 406 285 l 1
 285 284 l 1
 264 160 l 1
 240 38 150 2 -16 0 c 1
 8 172 l 1
 47 174 77 178 87 220 c 1
 130 460 l 1
 620 460 l 1
EndSplineSet
EndChar

StartChar: uni043C
Encoding: 1084 1084 431
Width: 666
VWidth: 0
Flags: HW
LayerCount: 2
Fore
SplineSet
449 0 m 1
 446 294 l 1
 575 504 l 1
 634 0 l 1
 449 0 l 1
304 176 m 1
 575 504 l 1
 544 258 l 1
 302 -32 l 1
 304 176 l 1
302 -32 m 1
 158 274 l 1
 206 496 l 1
 363 160 l 1
 302 -32 l 1
-28 0 m 1
 206 496 l 1
 264 276 l 1
 166 0 l 1
 -28 0 l 1
EndSplineSet
EndChar

StartChar: uni043D
Encoding: 1085 1085 432
Width: 625
VWidth: 0
Flags: HW
LayerCount: 2
Fore
SplineSet
94 175 m 1
 118 310 l 1
 502 310 l 1
 478 175 l 1
 94 175 l 1
447 460 m 1
 632 460 l 1
 553 0 l 1
 368 0 l 1
 447 460 l 1
98 460 m 1
 282 460 l 1
 204 0 l 1
 18 0 l 1
 98 460 l 1
EndSplineSet
EndChar

StartChar: uni043E
Encoding: 1086 1086 433
Width: 597
VWidth: 0
Flags: HW
LayerCount: 2
Fore
SplineSet
39 230 m 0
 59 376 190 471 343 471 c 0
 492 471 603 375 583 230 c 0
 563 84 433 -10 280 -10 c 0
 131 -10 19 85 39 230 c 0
237 229 m 0
 231 185 248 148 290 146 c 0
 334 144 377 183 385 231 c 0
 391 275 374 314 332 316 c 0
 288 318 245 277 237 229 c 0
EndSplineSet
EndChar

StartChar: uni043F
Encoding: 1087 1087 434
Width: 587
VWidth: 0
Flags: HW
LayerCount: 2
Fore
SplineSet
593 460 m 1
 514 0 l 1
 328 0 l 1
 380 295 l 1
 254 295 l 1
 204 0 l 1
 18 0 l 1
 98 460 l 1
 593 460 l 1
EndSplineSet
EndChar

StartChar: uni0440
Encoding: 1088 1088 435
Width: 626
VWidth: 0
Flags: HW
LayerCount: 2
Fore
SplineSet
176 -220 m 1
 -19 -220 l 1
 98 460 l 1
 293 460 l 1
 176 -220 l 1
612 230 m 0
 595 86 489 -20 369 -20 c 0
 237 -20 200 104 215 230 c 0
 231 362 306 479 436 480 c 0
 557 481 628 369 612 230 c 0
409 232 m 0
 415 275 393 308 349 310 c 0
 307 312 261 276 253 228 c 0
 247 182 269 152 310 150 c 0
 355 148 401 186 409 232 c 0
EndSplineSet
EndChar

StartChar: uni0441
Encoding: 1089 1089 436
Width: 484
VWidth: 0
Flags: HW
LayerCount: 2
Fore
SplineSet
238 229 m 0
 228 176 261 141 313 139 c 0
 361 137 408 161 444 196 c 1
 421 21 l 1
 383 3 344 -10 284 -10 c 0
 132 -10 19 84 39 230 c 0
 59 378 192 470 348 470 c 0
 409 470 448 456 486 440 c 1
 463 264 l 1
 437 302 397 322 359 322 c 0
 304 322 248 280 238 229 c 0
EndSplineSet
EndChar

StartChar: uni0442
Encoding: 1090 1090 437
Width: 354
VWidth: 0
Flags: HW
LayerCount: 2
Fore
SplineSet
54 460 m 1
 404 460 l 1
 376 305 l 1
 26 305 l 1
 54 460 l 1
133 440 m 1
 318 440 l 1
 242 0 l 1
 57 0 l 1
 133 440 l 1
EndSplineSet
EndChar

StartChar: uni0443
Encoding: 1091 1091 438
Width: 553
VWidth: 0
Flags: HW
LayerCount: 2
Fore
SplineSet
624 460 m 1
 216 -220 l 1
 24 -220 l 1
 170 26 l 1
 38 460 l 1
 240 460 l 1
 321 85 l 1
 216 86 l 1
 426 460 l 1
 624 460 l 1
EndSplineSet
EndChar

StartChar: uni0444
Encoding: 1092 1092 439
Width: 694
VWidth: 0
Flags: HW
LayerCount: 2
Fore
SplineSet
326 560 m 1
 506 560 l 1
 393 -100 l 1
 212 -100 l 1
 326 560 l 1
39 230 m 0
 61 387 208 471 392 471 c 0
 568 471 702 388 680 230 c 0
 658 73 512 -10 328 -10 c 0
 152 -10 17 72 39 230 c 0
208 230 m 0
 192 166 250 146 337 146 c 0
 432 146 495 166 511 230 c 0
 527 294 469 316 382 316 c 0
 287 316 224 294 208 230 c 0
EndSplineSet
EndChar

StartChar: uni0445
Encoding: 1093 1093 440
Width: 582
VWidth: 0
Flags: HW
LayerCount: 2
Fore
SplineSet
414 460 m 1
 631 460 l 1
 408 232 l 1
 563 0 l 1
 358 0 l 1
 292 112 l 1
 205 0 l 1
 -22 0 l 1
 211 245 l 1
 66 460 l 1
 280 460 l 1
 331 365 l 1
 414 460 l 1
EndSplineSet
EndChar

StartChar: uni0446
Encoding: 1094 1094 441
Width: 635
VWidth: 0
Flags: HW
LayerCount: 2
Fore
SplineSet
550 155 m 1
 628 155 l 1
 582 -110 l 1
 397 -110 l 1
 417 0 l 1
 18 0 l 1
 98 460 l 1
 292 460 l 1
 240 155 l 1
 355 155 l 1
 408 460 l 1
 603 460 l 1
 550 155 l 1
EndSplineSet
EndChar

StartChar: uni0447
Encoding: 1095 1095 442
Width: 567
VWidth: 0
Flags: HW
LayerCount: 2
Fore
SplineSet
220 101 m 1
 302 254 l 1
 396 255 l 1
 368 101 l 1
 220 101 l 1
369 460 m 1
 564 460 l 1
 485 0 l 1
 290 0 l 1
 369 460 l 1
292 460 m 1
 264 308 l 2
 257 270 274 254 302 254 c 1
 220 101 l 1
 84 101 60 204 76 328 c 2
 98 460 l 1
 292 460 l 1
EndSplineSet
EndChar

StartChar: uni0448
Encoding: 1096 1096 443
Width: 845
VWidth: 0
Flags: HW
LayerCount: 2
Fore
SplineSet
514 155 m 1
 613 155 l 1
 666 460 l 1
 852 460 l 1
 772 0 l 1
 18 0 l 1
 98 460 l 1
 282 460 l 1
 230 155 l 1
 329 155 l 1
 382 460 l 1
 567 460 l 1
 514 155 l 1
EndSplineSet
EndChar

StartChar: uni0449
Encoding: 1097 1097 444
Width: 883
VWidth: 0
Flags: HW
LayerCount: 2
Fore
SplineSet
514 155 m 1
 612 155 l 1
 665 460 l 1
 850 460 l 1
 798 155 l 1
 876 155 l 1
 830 -110 l 1
 644 -110 l 1
 664 0 l 1
 18 0 l 1
 98 460 l 1
 282 460 l 1
 230 155 l 1
 329 155 l 1
 382 460 l 1
 567 460 l 1
 514 155 l 1
EndSplineSet
EndChar

StartChar: uni044A
Encoding: 1098 1098 445
Width: 614
VWidth: 0
Flags: HW
LayerCount: 2
Fore
SplineSet
276 202 m 1
 294 316 l 1
 426 316 l 2
 516 316 586 268 575 172 c 0
 564 76 484 0 390 0 c 2
 238 0 l 1
 266 144 l 1
 356 144 l 2
 374 144 394 156 398 174 c 0
 400 188 390 201 376 201 c 2
 276 202 l 1
148 305 m 1
 26 305 l 1
 54 460 l 1
 350 460 l 1
 272 0 l 1
 96 0 l 1
 148 305 l 1
EndSplineSet
EndChar

StartChar: uni044B
Encoding: 1099 1099 446
Width: 810
VWidth: 0
Flags: HW
LayerCount: 2
Fore
SplineSet
622 460 m 1
 816 460 l 1
 737 0 l 1
 542 0 l 1
 622 460 l 1
98 460 m 1
 292 460 l 1
 213 0 l 1
 18 0 l 1
 98 460 l 1
213 202 m 1
 232 316 l 1
 363 316 l 2
 453 316 523 268 512 172 c 0
 501 76 420 0 326 0 c 2
 175 0 l 1
 202 144 l 1
 294 144 l 2
 312 144 330 156 334 174 c 0
 336 188 327 201 313 201 c 2
 213 202 l 1
EndSplineSet
EndChar

StartChar: uni044C
Encoding: 1100 1100 447
Width: 565
VWidth: 0
Flags: HW
LayerCount: 2
Fore
SplineSet
107 460 m 1
 302 460 l 1
 223 0 l 1
 28 0 l 1
 107 460 l 1
222 202 m 1
 241 316 l 1
 372 316 l 2
 462 316 533 268 522 172 c 0
 511 76 430 0 336 0 c 2
 184 0 l 1
 212 144 l 1
 303 144 l 2
 321 144 340 156 344 174 c 0
 346 188 338 201 322 201 c 2
 222 202 l 1
EndSplineSet
EndChar

StartChar: uni044D
Encoding: 1101 1101 448
Width: 488
VWidth: 0
Flags: HW
LayerCount: 2
Fore
SplineSet
114 287 m 1
 401 287 l 1
 380 173 l 1
 93 173 l 1
 114 287 l 1
274 230 m 0
 283 293 263 348 204 351 c 0
 162 353 110 328 74 294 c 1
 92 441 l 1
 130 457 169 470 229 470 c 0
 381 470 494 376 474 230 c 0
 454 82 320 -10 164 -10 c 0
 102 -10 64 2 26 22 c 1
 45 167 l 1
 71 127 104 108 148 108 c 0
 210 108 262 154 274 230 c 0
EndSplineSet
EndChar

StartChar: uni044E
Encoding: 1102 1102 449
Width: 840
VWidth: 0
Flags: HW
LayerCount: 2
Fore
SplineSet
94 175 m 1
 118 310 l 1
 444 310 l 1
 420 175 l 1
 94 175 l 1
98 460 m 1
 282 460 l 1
 204 0 l 1
 18 0 l 1
 98 460 l 1
282 230 m 0
 302 376 433 471 586 471 c 0
 735 471 846 375 826 230 c 0
 806 84 675 -10 522 -10 c 0
 373 -10 262 85 282 230 c 0
480 229 m 0
 474 185 491 148 533 146 c 0
 577 144 620 183 628 231 c 0
 634 275 616 314 574 316 c 0
 530 318 488 277 480 229 c 0
EndSplineSet
EndChar

StartChar: uni044F
Encoding: 1103 1103 450
Width: 565
VWidth: 0
Flags: HW
LayerCount: 2
Fore
SplineSet
203 0 m 1
 -2 0 l 1
 162 190 l 1
 338 190 l 1
 203 0 l 1
507 0 m 1
 312 0 l 1
 392 460 l 1
 586 460 l 1
 507 0 l 1
423 274 m 1
 404 154 l 1
 272 154 l 1
 180 156 83 207 96 313 c 0
 108 417 214 458 308 460 c 2
 459 460 l 1
 431 310 l 1
 332 310 l 2
 311 310 282 309 280 292 c 0
 278 278 296 274 314 274 c 2
 423 274 l 1
EndSplineSet
EndChar

StartChar: uni0450
Encoding: 1104 1104 451
Width: 593
VWidth: 0
Flags: HW
LayerCount: 2
Fore
SplineSet
139 190 m 1
 153 284 l 1
 375 284 l 1
 374 319 369 348 332 350 c 0
 279 354 249 303 238 250 c 1
 232 230 l 1
 224 169 238 125 285 121 c 0
 327 118 363 138 385 164 c 1
 562 134 l 1
 504 45 415 -10 289 -10 c 0
 120 -10 19 86 39 230 c 0
 41 247 45 263 50 279 c 0
 87 397 193 470 343 470 c 0
 504 470 591 382 575 238 c 0
 573 226 571 208 567 190 c 1
 139 190 l 1
199 684 m 1
 340 742 l 1
 463 578 l 1
 354 531 l 1
 199 684 l 1
EndSplineSet
EndChar

StartChar: uni0451
Encoding: 1105 1105 452
Width: 593
VWidth: 0
Flags: HW
LayerCount: 2
Fore
SplineSet
139 190 m 1
 153 284 l 1
 375 284 l 1
 374 319 369 348 332 350 c 0
 279 354 249 303 238 250 c 1
 232 230 l 1
 224 169 238 125 285 121 c 0
 327 118 363 138 385 164 c 1
 562 134 l 1
 504 45 415 -10 289 -10 c 0
 120 -10 19 86 39 230 c 0
 41 247 45 263 50 279 c 0
 87 397 193 470 343 470 c 0
 504 470 591 382 575 238 c 0
 573 226 571 208 567 190 c 1
 139 190 l 1
395 630 m 0
 401 686 456 726 513 726 c 0
 571 726 614 685 607 628 c 0
 601 572 547 531 490 531 c 0
 432 531 388 573 395 630 c 0
133 630 m 0
 139 686 194 726 251 726 c 0
 309 726 352 685 345 628 c 0
 339 572 285 531 228 531 c 0
 170 531 126 573 133 630 c 0
EndSplineSet
EndChar

StartChar: uni0453
Encoding: 1107 1107 453
Width: 363
VWidth: 0
Flags: HW
LayerCount: 2
Fore
SplineSet
98 460 m 1
 418 460 l 1
 392 305 l 1
 261 305 l 1
 208 0 l 1
 18 0 l 1
 98 460 l 1
472 676 m 1
 278 532 l 1
 169 586 l 1
 337 740 l 1
 472 676 l 1
EndSplineSet
EndChar

StartChar: uni045C
Encoding: 1116 1116 454
Width: 426
VWidth: 0
Flags: HW
LayerCount: 2
Fore
SplineSet
98 460 m 1
 282 460 l 1
 204 0 l 1
 18 0 l 1
 98 460 l 1
432 460 m 1
 671 460 l 1
 440 264 l 1
 600 0 l 1
 389 0 l 1
 220 277 l 1
 432 460 l 1
596 676 m 1
 402 532 l 1
 293 586 l 1
 460 740 l 1
 596 676 l 1
EndSplineSet
EndChar

StartChar: uni045D
Encoding: 1117 1117 455
Width: 601
VWidth: 0
Flags: HW
LayerCount: 2
Fore
SplineSet
574 296 m 1
 8 -44 l 1
 52 164 l 1
 618 504 l 1
 574 296 l 1
282 460 m 1
 224 120 l 1
 8 -44 l 1
 98 460 l 1
 282 460 l 1
618 504 m 1
 528 0 l 1
 344 0 l 1
 402 340 l 1
 618 504 l 1
208 698 m 1
 349 755 l 1
 472 592 l 1
 363 544 l 1
 208 698 l 1
EndSplineSet
EndChar

StartChar: uni045E
Encoding: 1118 1118 456
Width: 488
VWidth: 0
Flags: HW
LayerCount: 2
Fore
SplineSet
624 460 m 1
 216 -220 l 1
 24 -220 l 1
 170 26 l 1
 38 460 l 1
 240 460 l 1
 321 85 l 1
 216 86 l 1
 426 460 l 1
 624 460 l 1
185 681 m 1
 297 681 l 1
 299 650 313 633 337 631 c 0
 361 629 389 650 397 680 c 1
 513 680 l 1
 497 594 432 531 332 531 c 0
 232 531 181 593 185 681 c 1
EndSplineSet
EndChar

StartChar: Hbar
Encoding: 294 294 457
Width: 805
VWidth: 0
Flags: HW
LayerCount: 2
Fore
SplineSet
53 265 m 1
 88 460 l 1
 637 460 l 1
 603 265 l 1
 53 265 l 1
539 700 m 1
 758 700 l 1
 638 0 l 1
 419 0 l 1
 539 700 l 1
83 700 m 1
 302 700 l 1
 182 0 l 1
 -37 0 l 1
 83 700 l 1
-9 535 m 1
 13 660 l 1
 814 660 l 1
 792 535 l 1
 -9 535 l 1
EndSplineSet
EndChar

StartChar: hbar
Encoding: 295 295 458
Width: 577
VWidth: 0
Flags: HW
LayerCount: 2
Fore
SplineSet
272 780 m 1
 138 0 l 1
 -57 0 l 1
 77 780 l 1
 272 780 l 1
286 280 m 1
 289 311 291 341 256 345 c 0
 221 349 195 315 187 281 c 1
 157 281 l 1
 174 385 227 480 347 481 c 0
 464 482 494 411 481 310 c 1
 429 0 l 1
 234 0 l 1
 286 280 l 1
-2 580 m 1
 27 745 l 1
 366 745 l 1
 337 580 l 1
 -2 580 l 1
EndSplineSet
EndChar

StartChar: uni0123
Encoding: 291 291 459
Width: 553
VWidth: 0
Flags: HW
LayerCount: 2
Fore
SplineSet
-73 -34 m 1
 107 -36 l 1
 113 -79 130 -94 170 -95 c 0
 231 -96 273 -49 284 10 c 1
 362 460 l 1
 547 460 l 1
 471 10 l 2
 445 -158 330 -244 172 -245 c 0
 5 -245 -66 -166 -73 -34 c 1
-34 240 m 0
 -18 378 88 470 205 470 c 0
 327 470 389 368 374 240 c 0
 358 108 265 10 144 10 c 0
 27 10 -49 105 -34 240 c 0
168 239 m 0
 162 196 185 163 228 161 c 0
 271 159 317 193 324 241 c 0
 330 286 308 317 267 319 c 0
 222 321 175 285 168 239 c 0
313 540 m 1
 133 607 l 1
 334 828 l 1
 475 777 l 1
 313 540 l 1
EndSplineSet
EndChar

StartChar: Utilde
Encoding: 360 360 460
Width: 723
VWidth: 0
Flags: HW
LayerCount: 2
Fore
SplineSet
154 700 m 1
 371 700 l 1
 292 250 l 2
 286 202 299 158 356 156 c 0
 414 154 450 198 460 250 c 1
 538 700 l 1
 755 700 l 1
 676 230 l 2
 647 50 504 -40 334 -40 c 0
 170 -40 50 50 74 230 c 1
 154 700 l 1
273 864 m 1
 294 913 340 966 410 964 c 0
 466 963 489 909 541 911 c 0
 573 912 598 939 620 966 c 1
 694 871 l 1
 666 831 603 778 537 780 c 0
 487 782 450 840 400 836 c 0
 368 834 355 804 347 786 c 1
 273 864 l 1
EndSplineSet
EndChar

StartChar: utilde
Encoding: 361 361 461
Width: 587
VWidth: 0
Flags: HW
LayerCount: 2
Fore
SplineSet
320 0 m 1
 400 460 l 1
 592 460 l 1
 513 0 l 1
 320 0 l 1
250 180 m 1
 247 148 246 119 282 115 c 0
 318 111 344 146 352 180 c 1
 380 189 l 1
 362 85 308 -10 188 -11 c 0
 72 -12 35 58 48 160 c 1
 98 460 l 1
 301 460 l 1
 250 180 l 1
162 615 m 1
 183 664 229 717 299 715 c 0
 355 714 378 660 430 662 c 0
 462 663 487 690 509 717 c 1
 583 622 l 1
 555 582 492 529 426 531 c 0
 376 533 339 591 289 587 c 0
 257 585 244 555 236 537 c 1
 162 615 l 1
EndSplineSet
EndChar

StartChar: Umacron
Encoding: 362 362 462
Width: 723
VWidth: 0
Flags: HW
LayerCount: 2
Fore
SplineSet
154 700 m 1
 371 700 l 1
 292 250 l 2
 286 202 299 158 356 156 c 0
 414 154 450 198 460 250 c 1
 538 700 l 1
 755 700 l 1
 676 230 l 2
 647 50 504 -40 334 -40 c 0
 170 -40 50 50 74 230 c 1
 154 700 l 1
281 780 m 1
 307 945 l 1
 684 945 l 1
 658 780 l 1
 281 780 l 1
EndSplineSet
EndChar

